<svg id="Layer_1" data-name="Layer 1" xmlns="http://www.w3.org/2000/svg" viewBox="0 0 107.5 107.32"><title>addperson</title><g id="Layer_2" data-name="Layer 2"><g id="Layer_1-2" data-name="Layer 1-2"><path d="M38.2.9C33.6,2.3,26.4,9.7,25.1,14.4,22.6,23.2,24.4,31,30,37c4.5,4.7,4.6,4.8,2.4,4.8-3.2,0-14,6.6-18.9,11.5C5.4,61.4,0,73.4,0,83.5c0,3.5.4,4.3,1.8,4.3s2-1.4,2.9-7.4c3-18.7,16.2-32.3,34.6-35.7,8.8-1.6,17.9,0,26.7,4.6,7.2,3.9,9.3,4.3,8.8,1.8-.4-2-9.9-8.1-14-9-1.6-.3-2.8-.6-2.8-.8A54.17,54.17,0,0,1,62,37,22.28,22.28,0,0,0,60.9,5.5,15.41,15.41,0,0,0,58,3.2C53.5.2,44-.9,38.2.9ZM55.6,6.8c10.8,6.7,10.6,23.4-.4,30.2-5.1,3.1-13.3,3.1-18.4,0a17.84,17.84,0,0,1-5.9-24.5,13.51,13.51,0,0,1,2.6-3.2,21.48,21.48,0,0,1,6.8-4.4C44.7,3.5,51.6,4.4,55.6,6.8Z" transform="translate(0 -0.03)"/><path d="M73.5,57.1C61.6,61.8,55.3,71.6,56.2,83.7a25.68,25.68,0,0,0,14.4,21.7c5.4,2.6,17.4,2.6,22.8,0,9.5-4.7,14.1-12.5,14.1-23.6s-4.7-19-14.1-23.5C88.7,56,77.8,55.3,73.5,57.1Zm15.6,4.2C97.3,64.2,104,73.5,104,81.9c0,4.6-2.9,11.3-6.7,15.1s-10.5,6.8-15.3,6.8-11.6-3-15.3-6.8S60,86.5,60,81.9c0-8.2,6.7-17.6,14.5-20.5A19.9,19.9,0,0,1,89.1,61.3Z" transform="translate(0 -0.03)"/><path d="M80,73.8v6H74c-5.3,0-6,.2-6,2s.7,2,6,2h6v6c0,5.3.2,6,2,6s2-.7,2-6v-6h6c5.3,0,6-.2,6-2s-.7-2-6-2H84v-6c0-5.3-.2-6-2-6S80,68.5,80,73.8Z" transform="translate(0 -0.03)"/></g></g></svg>