<svg version="1.1" id="Layer_1" xmlns="http://www.w3.org/2000/svg" xmlns:xlink="http://www.w3.org/1999/xlink" x="0px" y="0px"
	 viewBox="0 0 107.8 107.8" style="enable-background:new 0 0 107.8 107.8;" xml:space="preserve">
<g id="Layer_2_1_">
	<g id="Layer_1-2">
		<path d="M46.8,2.9c-2.2,2.3-2.9,3.9-2.9,6.9c0,4.3,2.7,8.7,6,9.7c1.7,0.5,2,1.5,2,6.6V32h-6c-5.3,0-6,0.2-6,2s0.7,2,6,2h6v34
			c0,26.5-0.3,34-1.2,34c-2.6-0.4-5.1-0.9-7.6-1.5c-7.5-1.8-14.5-5.2-20.6-9.8C18.6,89.6,10.9,80.5,10.9,79c0-0.5,1.6-0.6,3.5-0.3
			c3,0.5,3.5,0.3,3.5-1.4c0-1.5-1.3-2.3-5.3-3.6C4.8,71.2,4.4,71.3,2,77.6C-0.6,84.5-0.6,86,1.8,86c1.2,0,2.3-1.1,3-3.2l1.1-3.2
			l3.4,5c20.8,30.9,68.4,30.9,89.1,0.1l3.5-5.1l1.1,3.2c0.7,2.1,1.8,3.2,3,3.2c2.4,0,2.4-1.5-0.2-8.4c-2.4-6.3-2.8-6.4-10.6-3.9
			c-4,1.3-5.3,2.1-5.3,3.6c0,1.7,0.5,1.9,3.5,1.4c1.9-0.3,3.5-0.2,3.5,0.2s-1.8,3.1-4,5.9C88,90.6,82,95.4,75.2,98.9
			c-3.8,1.9-14.9,5-18,5.1c-1,0-1.3-7.5-1.3-34V36h6c5.3,0,6-0.2,6-2s-0.7-2-6-2h-6v-5.9c0-5.1,0.3-6.1,2-6.6c3.3-1,6-5.4,6-9.7
			c0.1-5.3-4.2-9.7-9.6-9.8c-0.1,0-0.3,0-0.4,0C50.6,0,49.1,0.6,46.8,2.9z M57.9,6c1.1,1.1,1.8,2.5,2,4c0,2.6-3.4,6-6,6s-6-3.4-6-6
			s3.4-6,6-6C55.4,4.2,56.8,4.9,57.9,6z"/>
	</g>
</g>
</svg>
