<?xml version="1.0" encoding="utf-8"?>
<!-- Generator: Adobe Illustrator 22.1.0, SVG Export Plug-In . SVG Version: 6.00 Build 0)  -->
<svg version="1.1" id="Layer_1" xmlns="http://www.w3.org/2000/svg" xmlns:xlink="http://www.w3.org/1999/xlink" x="0px" y="0px"
	 viewBox="0 0 99.4 99.4" style="enable-background:new 0 0 99.4 99.4;" xml:space="preserve">
<title>nativeAsset 1</title>
<g id="Layer_2_1_">
	<g id="Layer_1-2">
		<path d="M7.8,1.5C-4.6,8-1.5,25.7,12.3,27.4c7.5,0.8,14.2-4.7,15-12.2C28.6,4.8,17-3.4,7.8,1.5z M18.6,5.2
			c6.7,3.5,6.5,14.3-0.4,17.4c-5.1,2.3-10.7,0.7-13.1-3.9C0.4,9.6,9.5,0.5,18.6,5.2z"/>
		<path d="M43.8,1.5C31.4,8,34.5,25.7,48.3,27.4c7.5,0.8,14.2-4.7,15-12.2C64.6,4.8,53-3.4,43.8,1.5z M54.6,5.2
			c6.7,3.5,6.5,14.3-0.4,17.4c-5.1,2.3-10.7,0.7-13.1-3.9C36.4,9.6,45.5,0.5,54.6,5.2z"/>
		<path d="M79.8,1.5C67.4,8,70.5,25.7,84.3,27.4c7.5,0.8,14.2-4.7,15-12.2C100.6,4.8,89-3.4,79.8,1.5z M90.6,5.2
			c6.7,3.5,6.5,14.3-0.4,17.4c-5.1,2.3-10.7,0.7-13.1-3.9C72.4,9.6,81.5,0.5,90.6,5.2z"/>
		<path d="M7.8,37.5C-4.6,44-1.5,61.7,12.3,63.4c7.5,0.8,14.2-4.7,15-12.2C28.6,40.8,17,32.6,7.8,37.5z M18.6,41.2
			c6.7,3.5,6.5,14.3-0.4,17.4c-5.1,2.3-10.7,0.7-13.1-3.9C0.4,45.6,9.5,36.5,18.6,41.2z"/>
		<path d="M43.8,37.5c-12.4,6.5-9.3,24.2,4.5,25.9c7.5,0.8,14.2-4.7,15-12.2C64.6,40.8,53,32.6,43.8,37.5z M54.6,41.2
			c6.7,3.5,6.5,14.3-0.4,17.4c-5.1,2.3-10.7,0.7-13.1-3.9C36.4,45.6,45.5,36.5,54.6,41.2z"/>
		<path d="M79.8,37.5c-12.4,6.5-9.3,24.2,4.5,25.9c7.5,0.8,14.2-4.7,15-12.2C100.6,40.8,89,32.6,79.8,37.5z M90.6,41.2
			c6.7,3.5,6.5,14.3-0.4,17.4c-5.1,2.3-10.7,0.7-13.1-3.9C72.4,45.6,81.5,36.5,90.6,41.2z"/>
		<path d="M7.8,73.5C-4.6,80-1.5,97.7,12.3,99.4c7.5,0.8,14.2-4.7,15-12.2C28.6,76.8,17,68.6,7.8,73.5z M18.6,77.2
			c6.7,3.5,6.5,14.3-0.4,17.4c-5.1,2.3-10.7,0.7-13.1-3.9C0.4,81.6,9.5,72.5,18.6,77.2z"/>
		<path d="M43.8,73.5c-12.4,6.5-9.3,24.2,4.5,25.9c7.5,0.8,14.2-4.7,15-12.2C64.6,76.8,53,68.6,43.8,73.5z M54.6,77.2
			c6.7,3.5,6.5,14.3-0.4,17.4c-5.1,2.3-10.7,0.7-13.1-3.9C36.4,81.6,45.5,72.5,54.6,77.2z"/>
		<path d="M79.8,73.5c-12.4,6.5-9.3,24.2,4.5,25.9c7.5,0.8,14.2-4.7,15-12.2C100.6,76.8,89,68.6,79.8,73.5z M90.6,77.2
			c6.7,3.5,6.5,14.3-0.4,17.4c-5.1,2.3-10.7,0.7-13.1-3.9C72.4,81.6,81.5,72.5,90.6,77.2z"/>
	</g>
</g>
</svg>
