<?xml version="1.0" encoding="utf-8"?>
<!-- Generator: Adobe Illustrator 22.1.0, SVG Export Plug-In . SVG Version: 6.00 Build 0)  -->
<svg version="1.1" id="Layer_1" xmlns="http://www.w3.org/2000/svg" xmlns:xlink="http://www.w3.org/1999/xlink" x="0px" y="0px"
	 viewBox="0 0 112 80" style="enable-background:new 0 0 112 80;" xml:space="preserve">
<title>backcross</title>
<g id="Layer_2_1_">
	<g id="Layer_1-2">
		<path d="M35,2c-1.9,1-10.6,9-19.2,17.7C0.3,35.4,0,35.7,0,40s0.3,4.6,15.8,20.3C24.4,69,33.2,77,35.2,78.1
			c3.5,1.8,6.2,1.9,37.3,1.9h33.7l2.9-2.9l2.9-2.9V5.8l-2.9-2.9L106.2,0H72.3C41.2,0.1,38.2,0.2,35,2z M106,6c1.9,1.9,2,3.3,2,34
			s-0.1,32.1-2,34s-3.3,2-33.6,2c-26.3,0-32.1-0.3-34.8-1.5C32.5,72,4,42.8,4,40c0-1.7,4.2-6.6,15.2-17.6c8.3-8.4,16.5-16,18.2-16.8
			C40,4.3,45.9,4,72.3,4C102.7,4,104.1,4.1,106,6z"/>
		<path d="M48,21.7c0,1,3.7,5.5,8.2,10l8.3,8.3l-8.3,8.3c-8,8-10,11.7-6.5,11.7c1,0,5.5-3.7,10-8.2l8.3-8.3l8.3,8.3
			c4.5,4.5,9,8.2,10,8.2c3.5,0,1.5-3.7-6.5-11.7L71.5,40l8.3-8.3c4.5-4.5,8.2-9,8.2-10c0-3.5-3.7-1.5-11.7,6.5L68,36.5l-8.3-8.3
			C51.7,20.2,48,18.2,48,21.7z"/>
	</g>
</g>
</svg>
