<svg xmlns="http://www.w3.org/2000/svg" xmlns:xlink="http://www.w3.org/1999/xlink" viewBox="0 0 100 100" version="1.1" x="0px" y="0px"><title>Delete 2.4</title><desc>Created with Sketch.</desc><g stroke="none" stroke-width="1" fill="none" fill-rule="evenodd"><g fill-rule="nonzero" fill="#000000"><path d="M69.5017129,27.9074708 L67.6495899,77.9147922 C67.617802,78.7730669 66.8619095,79.5 65.9999745,79.5 L34.0000255,79.5 C33.1389427,79.5 32.3820983,78.7703732 32.3504101,77.9147922 L30.4982871,27.9074708 C30.4471846,26.527705 29.2872367,25.4506105 27.9074708,25.5017129 C26.527705,25.5528154 25.4506105,26.7127633 25.5017129,28.0925292 L27.3538359,78.0998505 C27.4850472,81.6425548 30.4490851,84.5 34.0000255,84.5 L65.9999745,84.5 C69.5490762,84.5 72.5147533,81.6479424 72.6461641,78.0998505 L74.4982871,28.0925292 C74.5493895,26.7127633 73.472295,25.5528154 72.0925292,25.5017129 C70.7127633,25.4506105 69.5528154,26.527705 69.5017129,27.9074708 Z"></path><path d="M48,38 L48,72 C48,73.1045695 48.8954305,74 50,74 C51.1045695,74 52,73.1045695 52,72 L52,38 C52,36.8954305 51.1045695,36 50,36 C48.8954305,36 48,36.8954305 48,38 Z"></path><path d="M37.0008645,38.0587981 L38.0008645,72.0587981 C38.0333378,73.1628902 38.954706,74.0316088 40.0587981,73.9991355 C41.1628902,73.9666622 42.0316088,73.045294 41.9991355,71.9412019 L40.9991355,37.9412019 C40.9666622,36.8371098 40.045294,35.9683912 38.9412019,36.0008645 C37.8371098,36.0333378 36.9683912,36.954706 37.0008645,38.0587981 Z"></path><path d="M59.0008645,37.9412019 L58.0008645,71.9412019 C57.9683912,73.045294 58.8371098,73.9666622 59.9412019,73.9991355 C61.045294,74.0316088 61.9666622,73.1628902 61.9991355,72.0587981 L62.9991355,38.0587981 C63.0316088,36.954706 62.1628902,36.0333378 61.0587981,36.0008645 C59.954706,35.9683912 59.0333378,36.8371098 59.0008645,37.9412019 Z"></path><path d="M25,29 L75,29 C76.3807119,29 77.5,27.8807119 77.5,26.5 C77.5,25.1192881 76.3807119,24 75,24 L25,24 C23.6192881,24 22.5,25.1192881 22.5,26.5 C22.5,27.8807119 23.6192881,29 25,29 Z"></path><path d="M42.4038099,25.6868028 L43.4448153,22.0432839 C43.6677785,21.2629127 44.6793677,20.5 45.4914967,20.5 L54.5085033,20.5 C55.3211505,20.5 56.3320347,21.2622589 56.5551847,22.0432839 L57.5961901,25.6868028 L62.4038099,24.3131972 L61.3628045,20.6696783 C60.5262772,17.741833 57.5532275,15.5 54.5085033,15.5 L45.4914967,15.5 C42.4471337,15.5 39.4734928,17.742638 38.6371955,20.6696783 L37.5961901,24.3131972 L42.4038099,25.6868028 Z"></path></g></g></svg>