<?xml version="1.0" encoding="utf-8"?>
<!-- Generator: Adobe Illustrator 22.1.0, SVG Export Plug-In . SVG Version: 6.00 Build 0)  -->
<svg version="1.1" id="Layer_1" xmlns="http://www.w3.org/2000/svg" xmlns:xlink="http://www.w3.org/1999/xlink" x="0px" y="0px"
	 viewBox="0 0 124 107.5" style="enable-background:new 0 0 124 107.5;" xml:space="preserve">
<title>box</title>
<g id="Layer_2_1_">
	<g id="Layer_1-2">
		<path d="M21.3,11.3C8.1,18.3,0,23.1,0,24s3.3,3.2,7.5,5.5S15,33.7,15,34s-3.4,2.3-7.5,4.5S0,43.1,0,44s4.1,3.6,9.8,6.6l9.7,5.2
			l0.3,14.8l0.3,14.9l20.1,11c11,6,20.8,11,21.8,11s10.8-5,21.8-11l20.1-11l0.3-14.9l0.3-14.8l9.7-5.2c5.7-3,9.8-5.7,9.8-6.6
			s-3.3-3.2-7.5-5.5S109,34.3,109,34s3.4-2.3,7.5-4.5s7.5-4.7,7.5-5.5c0-1.4-41.4-24-44-24c-0.6,0-4.8,2.1-9.5,4.6L62,9.2l-8.5-4.6
			c-4.7-2.5-9-4.6-9.7-4.5S32.9,5.1,21.3,11.3z M51.3,8.4l5.9,3.4l-15.9,8.5c-22.5,12.1-19.9,11.4-27.1,7.8C10.8,26.4,8,24.6,8,24.2
			C8,23.1,42,5.1,44,5.1C44.8,5.1,48.1,6.6,51.3,8.4z M98.5,14.2c9.6,5,17.5,9.5,17.5,10s-2.8,2.2-6.2,3.9
			c-7.2,3.6-4.6,4.3-27.1-7.8l-15.9-8.5l5.9-3.4C75.9,6.6,79.1,5,79.8,5S88.9,9.1,98.5,14.2z M80.3,24C90,29.2,98,33.7,98,34
			s-8.1,4.8-18,10.1l-18,9.7l-18-9.7c-9.9-5.3-18-9.8-18-10.1c0-0.6,35.3-19.8,36.1-19.6C62.4,14.4,70.6,18.8,80.3,24z M24.3,38.6
			c1.8,0.9,9.9,5.2,18,9.6l14.9,8l-5.9,3.4c-3.2,1.8-6.4,3.4-7.1,3.4C42.4,63,8,44.8,8,43.8c0-0.7,10.7-6.7,12.3-6.8
			C21.7,37.4,23,37.9,24.3,38.6z M110,40c3.3,1.7,6,3.4,6,3.8c0,1-34.4,19.2-36.2,19.2c-0.7,0-3.9-1.6-7.1-3.4l-5.9-3.4l16.4-8.7
			c8.9-4.8,17-9.2,17.8-9.6C103.2,36.7,103.5,36.7,110,40z M52,64.2l8-4.3V81c0,11.6-0.4,21-0.8,20.8s-8.6-4.5-18-9.7L24,82.7V57.9
			l10,5.3l9.9,5.3L52,64.2z M100,70.3v12.4l-17.2,9.4c-9.4,5.2-17.5,9.5-18,9.7S64,92.6,64,81V59.9l8,4.3l8.1,4.3l9.7-5.2
			c5.3-2.9,9.8-5.2,10-5.3S100,63.5,100,70.3z"/>
	</g>
</g>
</svg>
