<?xml version="1.0" encoding="utf-8"?>
<!-- Generator: Adobe Illustrator 22.1.0, SVG Export Plug-In . SVG Version: 6.00 Build 0)  -->
<svg version="1.1" id="Layer_1" xmlns="http://www.w3.org/2000/svg" xmlns:xlink="http://www.w3.org/1999/xlink" x="0px" y="0px"
	 viewBox="0 0 103 100" style="enable-background:new 0 0 103 100;" xml:space="preserve">
<title>boxline</title>
<g id="Layer_2_1_">
	<g id="Layer_1-2">
		<path d="M9.5,1.9C7.1,3.4,4.9,5.2,3,7.4l-3,3.8v77.6l3,3.8c6.2,7.5,5.3,7.4,48.5,7.4s42.3,0.1,48.5-7.4l3-3.8V11.2l-3-3.8
			C93.8-0.1,94.7,0,51.5,0C15.9,0,12.7,0.1,9.5,1.9z M91.4,5.8c2.1,1.1,4,2.6,5.5,4.5c2,2.8,2.1,4,2.1,39.7s-0.1,36.9-2.1,39.7
			c-4.5,6.2-5.2,6.3-45.4,6.3s-40.9-0.1-45.4-6.3C4.1,86.9,4,85.7,4,50s0.1-36.9,2.1-39.7C10.6,4.1,11.3,4,51.5,4
			C84.3,4,88.3,4.2,91.4,5.8z"/>
		<path d="M19.5,26c0,2,0.7,2,32,2s32,0,32-2s-0.7-2-32-2S19.5,24,19.5,26z"/>
		<path d="M19.5,50c0,2,0.7,2,32,2s32,0,32-2s-0.7-2-32-2S19.5,48,19.5,50z"/>
		<path d="M19.5,74c0,2,0.7,2,32,2s32,0,32-2s-0.7-2-32-2S19.5,72,19.5,74z"/>
	</g>
</g>
</svg>
