<?xml version="1.0" encoding="utf-8"?>
<!-- Generator: Adobe Illustrator 22.1.0, SVG Export Plug-In . SVG Version: 6.00 Build 0)  -->
<svg version="1.1" id="Layer_1" xmlns="http://www.w3.org/2000/svg" xmlns:xlink="http://www.w3.org/1999/xlink" x="0px" y="0px"
	 viewBox="0 0 100 100" style="enable-background:new 0 0 100 100;" xml:space="preserve">
<title>calendartime</title>
<g id="Layer_2_1_">
	<g id="Layer_1-2">
		<path d="M2.5,2.5L0,4.9v90.2l2.5,2.4l2.4,2.5h90.2l2.4-2.5l2.5-2.4V4.9l-2.5-2.4L95.1,0H4.9L2.5,2.5z M94.4,5.6
			c1.2,1.2,1.6,3.6,1.6,10V24H4v-8.4c0-6.4,0.4-8.8,1.6-10C7,4.2,12.4,4,50,4S93,4.2,94.4,5.6z M96,60.4c0,28.2-0.2,32.7-1.6,34
			S87.6,96,50,96S7,95.8,5.6,94.4S4,88.6,4,60.4V28h92V60.4z"/>
		<path d="M21.7,9.8c-2.3,2.4-2.2,6.3,0.3,8.6c1.1,1.1,2.7,1.7,4.2,1.6c5.1,0,7.8-6.9,4-10.3C27.8,7.5,23.7,7.6,21.7,9.8z
			 M27.6,13.1c1,1.7-1.3,3.6-2.7,2.2c-0.8-0.7-0.8-1.9-0.1-2.7c0.3-0.3,0.7-0.5,1.2-0.6C26.7,12.1,27.2,12.5,27.6,13.1z"/>
		<path d="M69.7,9.8c-2.2,2.4-2.1,6.5,0.1,8.5c2.4,2.3,6.3,2.2,8.6-0.3c1.1-1.1,1.7-2.7,1.6-4.2C80,8.7,73.1,6,69.7,9.8z M75.6,13.1
			c1,1.7-1.3,3.6-2.7,2.2c-0.8-0.7-0.8-1.9-0.1-2.7c0.3-0.3,0.7-0.5,1.2-0.6C74.7,12.1,75.2,12.5,75.6,13.1z"/>
		<path d="M41.5,37.3C29.6,42,23.3,51.8,24.2,63.9c0.5,9.3,6,17.6,14.4,21.7c5.4,2.6,17.4,2.6,22.8,0c9.5-4.7,14.1-12.5,14.1-23.6
			s-4.7-19-14.1-23.5C56.7,36.2,45.8,35.5,41.5,37.3z M57.1,41.5C65.3,44.4,72,53.7,72,62.1c0,4.6-2.9,11.3-6.7,15.1S54.8,84,50,84
			s-11.6-3-15.3-6.8S28,66.7,28,62.1c0-8.2,6.7-17.6,14.5-20.5C47.2,39.7,52.4,39.7,57.1,41.5z"/>
		<path d="M48,54v10h8c7.3,0,8-0.2,8-2s-0.7-2-6-2h-6v-8c0-7.3-0.2-8-2-8S48,44.7,48,54z"/>
	</g>
</g>
</svg>
