<?xml version="1.0" encoding="utf-8"?>
<!-- Generator: Adobe Illustrator 22.1.0, SVG Export Plug-In . SVG Version: 6.00 Build 0)  -->
<svg version="1.1" id="Layer_1" xmlns="http://www.w3.org/2000/svg" xmlns:xlink="http://www.w3.org/1999/xlink" x="0px" y="0px"
	 viewBox="0 0 100 100" style="enable-background:new 0 0 100 100;" xml:space="preserve">
<title>calendarpencil</title>
<g id="Layer_2_1_">
	<g id="Layer_1-2">
		<path d="M2.5,2.5L0,4.9v90.2l2.5,2.4l2.4,2.5h90.2l2.4-2.5l2.5-2.4V4.9l-2.5-2.4L95.1,0H4.9L2.5,2.5z M94.4,5.6
			c1.2,1.2,1.6,3.6,1.6,10V24H4v-8.4c0-6.4,0.4-8.8,1.6-10C7,4.2,12.4,4,50,4S93,4.2,94.4,5.6z M96,60.4c0,28.2-0.2,32.7-1.6,34
			S87.6,96,50,96S7,95.8,5.6,94.4S4,88.6,4,60.4V28h92V60.4z"/>
		<path d="M21.7,9.8c-2.3,2.4-2.2,6.3,0.3,8.6c1.1,1.1,2.7,1.7,4.2,1.6c5.1,0,7.8-6.9,4-10.3C27.8,7.5,23.7,7.6,21.7,9.8z
			 M27.6,13.1c1,1.7-1.3,3.6-2.7,2.2c-0.8-0.7-0.8-1.9-0.1-2.7c0.3-0.3,0.7-0.5,1.2-0.6C26.7,12.1,27.2,12.5,27.6,13.1z"/>
		<path d="M69.7,9.8c-2.2,2.4-2.1,6.5,0.1,8.5c2.4,2.3,6.3,2.2,8.6-0.3c1.1-1.1,1.7-2.7,1.6-4.2C80,8.7,73.1,6,69.7,9.8z M75.6,13.1
			c1,1.7-1.3,3.6-2.7,2.2c-0.8-0.7-0.8-1.9-0.1-2.7c0.3-0.3,0.7-0.5,1.2-0.6C74.7,12.1,75.2,12.5,75.6,13.1z"/>
		<path d="M48.3,52.2C34,66.6,31.7,69.4,28.1,76.7c-6.4,12.9-5.7,13.6,7.2,7.2c7.3-3.6,10.1-5.9,24.5-20.2
			C71.6,51.9,76,46.9,76,45.2c0-1.4-1.5-3.9-3.4-5.8S68.2,36,66.8,36C65.1,36,60.1,40.4,48.3,52.2z M71,46.4
			c-1.4,1.4-6.5-3.7-5.5-5.4c0.5-0.8,1.6-0.3,3.6,1.6S71.7,45.7,71,46.4z M63.9,48.4l2.3,2.4L54.9,62.4L43.7,74.1l-2.9-2.8L38,68.6
			l11.2-11.3C55.4,51.1,60.7,46,61.1,46C62.2,46.6,63.1,47.4,63.9,48.4z M37.4,74.9c1.7,1.9,1.6,2-2.3,4.1l-4.2,2.1L33,77
			c0.6-1.4,1.4-2.8,2.4-4C36.1,73.6,36.8,74.2,37.4,74.9z"/>
	</g>
</g>
</svg>
