<?xml version="1.0" encoding="utf-8"?>
<!-- Generator: Adobe Illustrator 22.1.0, SVG Export Plug-In . SVG Version: 6.00 Build 0)  -->
<svg version="1.1" id="Layer_1" xmlns="http://www.w3.org/2000/svg" xmlns:xlink="http://www.w3.org/1999/xlink" x="0px" y="0px"
	 viewBox="0 0 96 96" style="enable-background:new 0 0 96 96;" xml:space="preserve">
<title>calendar</title>
<g id="Layer_2_1_">
	<g id="Layer_1-2">
		<path d="M2.5,2.5L0,4.9v86.2l2.5,2.4L4.9,96h86.2l2.4-2.5l2.5-2.4V4.9l-2.5-2.4L91.1,0H4.9L2.5,2.5z M90.4,5.6
			c1.2,1.2,1.6,3.6,1.6,10V24H4v-8.4c0-6.4,0.4-8.8,1.6-10C6.9,4.2,12.2,4,48,4S89.1,4.2,90.4,5.6z M92,58.4c0,26.4-0.2,30.7-1.6,32
			S83.8,92,48,92S6.9,91.8,5.6,90.4S4,84.8,4,58.4V28h88V58.4z"/>
		<path d="M32,36v4h8v-8h-8V36z"/>
		<path d="M44,36v4h8v-8h-8V36z"/>
		<path d="M56,36v4h8v-8h-8V36z"/>
		<path d="M68,36v4h8v-8h-8V36z"/>
		<path d="M80,36v4h8v-8h-8V36z"/>
		<path d="M8,48v4h8v-8H8V48z"/>
		<path d="M20,48v4h8v-8h-8V48z"/>
		<path d="M32,48v4h8v-8h-8V48z"/>
		<path d="M44,48v4h8v-8h-8V48z"/>
		<path d="M56,48v4h8v-8h-8V48z"/>
		<path d="M68,48v4h8v-8h-8V48z"/>
		<path d="M80,48v4h8v-8h-8V48z"/>
		<path d="M8,60v4h8v-8H8V60z"/>
		<path d="M20,60v4h8v-8h-8V60z"/>
		<path d="M32,60v4h8v-8h-8V60z"/>
		<path d="M44,60v4h8v-8h-8V60z"/>
		<path d="M56,60v4h8v-8h-8V60z"/>
		<path d="M68,60v4h8v-8h-8V60z"/>
		<path d="M80,60v4h8v-8h-8V60z"/>
		<path d="M8,72v4h8v-8H8V72z"/>
		<path d="M20,72v4h8v-8h-8V72z"/>
		<path d="M32,72v4h8v-8h-8V72z"/>
		<path d="M44,72v4h8v-8h-8V72z"/>
		<path d="M56,72v4h8v-8h-8V72z"/>
		<path d="M68,72v4h8v-8h-8V72z"/>
		<path d="M80,72v4h8v-8h-8V72z"/>
		<path d="M8,84v4h8v-8H8V84z"/>
		<path d="M20,84v4h8v-8h-8V84z"/>
		<path d="M32,84v4h8v-8h-8V84z"/>
		<path d="M44,84v4h8v-8h-8V84z"/>
	</g>
</g>
</svg>
