<?xml version="1.0" encoding="utf-8"?>
<!-- Generator: Adobe Illustrator 22.1.0, SVG Export Plug-In . SVG Version: 6.00 Build 0)  -->
<svg version="1.1" id="Layer_1" xmlns="http://www.w3.org/2000/svg" xmlns:xlink="http://www.w3.org/1999/xlink" x="0px" y="0px"
	 viewBox="0 0 100 100" style="enable-background:new 0 0 100 100;" xml:space="preserve">
<title>calendarflag</title>
<g id="Layer_2_1_">
	<g id="Layer_1-2">
		<path d="M2.5,2.5L0,4.9v90.2l2.5,2.4l2.4,2.5h90.2l2.4-2.5l2.5-2.4V4.9l-2.5-2.4L95.1,0H4.9L2.5,2.5z M94.4,5.6
			c1.2,1.2,1.6,3.6,1.6,10V24H4v-8.4c0-6.4,0.4-8.8,1.6-10C7,4.2,12.4,4,50,4S93,4.2,94.4,5.6z M96,60.4c0,28.2-0.2,32.7-1.6,34
			S87.6,96,50,96S7,95.8,5.6,94.4S4,88.6,4,60.4V28h92V60.4z"/>
		<path d="M21.7,9.8c-2.2,2.4-2.1,6.5,0.1,8.5c2.4,2.3,6.3,2.2,8.6-0.3c1.1-1.1,1.7-2.7,1.6-4.2C32,8.7,25.1,6,21.7,9.8z M27.6,13.1
			c1,1.7-1.3,3.6-2.7,2.2c-0.8-0.7-0.8-1.9-0.1-2.7c0.3-0.3,0.7-0.5,1.2-0.6C26.7,12.1,27.2,12.5,27.6,13.1z"/>
		<path d="M69.7,9.8c-2.2,2.4-2.1,6.5,0.1,8.5c2.4,2.3,6.3,2.2,8.6-0.3c1.1-1.1,1.7-2.7,1.6-4.2C80,8.7,73.1,6,69.7,9.8z M75.6,13.1
			c1,1.7-1.3,3.6-2.7,2.2c-0.8-0.7-0.8-1.9-0.1-2.7c0.3-0.3,0.7-0.5,1.2-0.6C74.7,12.1,75.2,12.5,75.6,13.1z"/>
		<path d="M32,62c0,25.3,0.1,26,2,26s2-0.7,2-12V64h36V36H32V62z M68,50v10H36V40h32V50z"/>
	</g>
</g>
</svg>
