<?xml version="1.0" encoding="utf-8"?>
<!-- Generator: Adobe Illustrator 22.1.0, SVG Export Plug-In . SVG Version: 6.00 Build 0)  -->
<svg version="1.1" id="Layer_1" xmlns="http://www.w3.org/2000/svg" xmlns:xlink="http://www.w3.org/1999/xlink" x="0px" y="0px"
	 viewBox="0 0 107.9 107.9" style="enable-background:new 0 0 107.9 107.9;" xml:space="preserve">
<title>circlehash</title>
<g id="Layer_2_1_">
	<g id="Layer_1-2">
		<path d="M40.6,1.5C31.2,3.9,22.7,8.9,16,15.9C5.7,25.8-0.1,39.6,0,53.9c-0.1,14.3,5.7,28.1,16,38c9.9,10.3,23.7,16.1,38,16
			c14.3,0.1,28.1-5.7,38-16c7.4-7.4,12.3-15.8,14.5-25.1c3-12.9,1.3-26.5-4.7-38.3c-4.1-7.8-14.6-18.3-22.4-22.4
			C67.4,0.1,53.7-1.5,40.6,1.5z M64.8,5.4c20,4.6,35.2,20.9,38.4,41.2c5.4,31.9-24.6,61.9-56.4,56.5c-21.6-3.4-38.6-20.4-42-42
			C-0.9,27.7,31.5-2.4,64.8,5.4z"/>
		<path d="M43.5,32.1c-1.2,8-1.1,7.8-7.6,7.8c-5.2,0-5.9,0.2-5.9,2s0.7,2,5.5,2c6.3,0,6.2-0.2,4.5,9.6c-2,11.3-1.3,10.4-8,10.4
			c-5.3,0-6,0.2-6,2s0.7,2,5.6,2h5.6l-0.7,6c-0.6,5.6-0.6,6,1.3,6c1.6,0,2.2-0.9,2.7-4.3c1.3-8.2,0.6-7.7,11.2-7.7h9.5l-0.7,6
			c-0.6,5.6-0.6,6,1.3,6c1.6,0,2.2-0.9,2.7-4.3c1.2-7.9,1.1-7.7,7.6-7.7c5.2,0,5.9-0.2,5.9-2s-0.7-2-5.5-2c-6.3,0-6.2,0.2-4.5-9.6
			c2-11.3,1.3-10.4,8-10.4c5.3,0,6-0.2,6-2s-0.7-2-5.6-2h-5.6l0.7-6c0.6-5.6,0.6-6-1.3-6c-1.6,0-2.2,0.9-2.7,4.2
			c-1.3,8.3-0.6,7.8-11.2,7.8h-9.5l0.7-6c0.6-5.6,0.6-6-1.3-6C44.6,27.9,44,28.8,43.5,32.1z M65,45.7c-0.6,5.3-1.4,10.6-2.5,15.9
			c-0.5,2.2-1,2.3-10,2.3c-10.8,0-10.2,0.6-8.5-9.6c2-11.5,0.8-10.4,11.5-10.4C64,43.9,65,44.1,65,45.7z"/>
	</g>
</g>
</svg>
