<?xml version="1.0" encoding="utf-8"?>
<!-- Generator: Adobe Illustrator 22.1.0, SVG Export Plug-In . SVG Version: 6.00 Build 0)  -->
<svg version="1.1" id="Layer_1" xmlns="http://www.w3.org/2000/svg" xmlns:xlink="http://www.w3.org/1999/xlink" x="0px" y="0px"
	 viewBox="0 0 56 56" style="enable-background:new 0 0 56 56;" xml:space="preserve">
<style type="text/css">
	.st0{fill:none;stroke:#666666;stroke-width:2;stroke-linecap:round;stroke-linejoin:round;}
</style>
<title>Asset 1</title>
<g id="Layer_2_1_">
	<g id="_64px">
		<g id="Outline">
			<g id="Construction">
				<g id="circular_saw">
					<circle class="st0" cx="28" cy="28" r="19"/>
					<path class="st0" d="M54.9,35.4l-4,6.9l-4.6,0.5c-1,0.1-1.9,0.5-2.7,1.1c-1.5,1.4,0.7,2.5,0.7,2.5l3.2,1.4l0,0l-6.9,4l-4.2-1.8
						c-0.9-0.4-1.9-0.5-2.9-0.4c-2,0.5-0.7,2.5-0.7,2.5L35,55h-8l-2.8-3.7c-0.6-0.8-1.4-1.4-2.3-1.8c-1.9-0.6-1.8,1.8-1.8,1.8
						l0.4,3.5l0,0l-6.9-4l-0.5-4.6c-0.1-1-0.5-1.9-1.1-2.7c-1.4-1.5-2.5,0.7-2.5,0.7l-1.4,3.2l-4-6.9l1.8-4.2
						c0.4-0.9,0.5-1.9,0.4-2.9c-0.5-2-2.5-0.7-2.5-0.7L1,35v-8l3.7-2.8c0.8-0.6,1.4-1.4,1.8-2.3C7,20,4.6,20.1,4.6,20.1l-3.5,0.4
						l0,0l4-6.9l4.6-0.6c1-0.1,1.9-0.5,2.7-1.1c1.4-1.4-0.7-2.5-0.7-2.5L8.4,8.1l6.9-4l4.2,1.8c0.9,0.4,1.9,0.5,2.9,0.4
						c2-0.5,0.6-2.5,0.6-2.5L21,1h8l2.8,3.7c0.6,0.8,1.4,1.4,2.3,1.8C36,7,35.9,4.6,35.9,4.6l-0.4-3.5l6.9,4l0.5,4.6
						c0.1,1,0.5,1.9,1.1,2.7c1.4,1.4,2.5-0.7,2.5-0.7l1.4-3.2l0,0l4,6.9l-1.8,4.2c-0.4,0.9-0.5,1.9-0.4,2.9c0.5,2,2.5,0.6,2.5,0.6
						L55,21v8l-3.7,2.8c-0.8,0.6-1.4,1.4-1.8,2.3c-0.6,1.9,1.8,1.8,1.8,1.8L54.9,35.4z"/>
					<circle class="st0" cx="28" cy="28" r="5"/>
				</g>
			</g>
		</g>
	</g>
</g>
</svg>
