<?xml version="1.0" encoding="utf-8"?>
<!-- Generator: Adobe Illustrator 22.1.0, SVG Export Plug-In . SVG Version: 6.00 Build 0)  -->
<svg version="1.1" id="Layer_1" xmlns="http://www.w3.org/2000/svg" xmlns:xlink="http://www.w3.org/1999/xlink" x="0px" y="0px"
	 viewBox="0 0 107.9 107.9" style="enable-background:new 0 0 107.9 107.9;" xml:space="preserve">
<title>circlebrackets</title>
<g id="Layer_2_1_">
	<g id="Layer_1-2">
		<path d="M40.6,1.5C31.2,3.9,22.7,8.9,16,15.9C5.7,25.8-0.1,39.6,0,53.9c-0.1,14.3,5.7,28.1,16,38c9.9,10.3,23.7,16.1,38,16
			c14.3,0.1,28.1-5.7,38-16c7.4-7.4,12.3-15.8,14.5-25.1c3-12.9,1.3-26.5-4.7-38.3c-4.1-7.8-14.6-18.3-22.4-22.4
			C67.4,0.1,53.7-1.5,40.6,1.5z M64.8,5.4c20,4.6,35.2,20.9,38.4,41.2c5.4,31.9-24.6,61.9-56.4,56.5c-21.6-3.4-38.6-20.4-42-42
			C-0.9,27.7,31.5-2.4,64.8,5.4z"/>
		<path d="M38.5,30.4c-2.2,2.2-2.5,3.3-2.5,10.4c0,8.1-1.2,11.1-4.6,11.1c-0.8,0-1.4,0.9-1.4,2s0.6,2,1.4,2c3.4,0,4.6,3,4.6,11.1
			c0,7.1,0.3,8.2,2.5,10.4c3.2,3.3,9.5,3.6,9.5,0.5c0-1.4-0.7-2-2.2-2c-4.5,0-5.3-1.5-6-11.2c-0.4-5.1-0.7-10-0.7-10.8
			s0.3-5.7,0.7-10.8c0.7-9.7,1.5-11.2,6-11.2c1.5,0,2.2-0.6,2.2-2C48,26.8,41.7,27.1,38.5,30.4z"/>
		<path d="M60,29.9c0,1.4,0.7,2,2.3,2c4.4,0,5.2,1.5,5.9,11.2c0.4,5.1,0.7,10,0.7,10.8s-0.3,5.7-0.7,10.8
			c-0.7,9.7-1.5,11.2-5.9,11.2c-1.6,0-2.3,0.6-2.3,2c0,3.1,6.3,2.8,9.5-0.5C71.7,75.2,72,74.1,72,67c0-8.1,1.2-11.1,4.6-11.1
			c0.8,0,1.4-0.9,1.4-2s-0.6-2-1.4-2c-3.4,0-4.6-3-4.6-11.1c0-7.1-0.3-8.2-2.5-10.4C66.3,27.1,60,26.8,60,29.9z"/>
	</g>
</g>
</svg>
