<?xml version="1.0" encoding="utf-8"?>
<!-- Generator: Adobe Illustrator 22.1.0, SVG Export Plug-In . SVG Version: 6.00 Build 0)  -->
<svg version="1.1" id="Layer_1" xmlns="http://www.w3.org/2000/svg" xmlns:xlink="http://www.w3.org/1999/xlink" x="0px" y="0px"
	 viewBox="0 0 107.9 107.8" style="enable-background:new 0 0 107.9 107.8;" xml:space="preserve">
<title>circleminus</title>
<g id="Layer_2_1_">
	<g id="Layer_1-2">
		<path d="M40.6,1.5C31.2,3.9,22.7,8.9,16,15.9C5.7,25.8-0.1,39.6,0,53.9c-0.1,14.3,5.7,28.1,16,38c7.4,7.4,15.8,12.3,25.1,14.5
			c12.9,3,26.5,1.3,38.3-4.7c7.8-4.1,18.3-14.6,22.4-22.4c8.2-15.9,8.2-34.9,0-50.8c-4.1-7.8-14.6-18.3-22.4-22.4
			C67.4,0.1,53.7-1.5,40.6,1.5z M64.8,5.4c20,4.6,35.2,20.9,38.4,41.2c5.4,31.9-24.6,61.9-56.4,56.5c-21.6-3.4-38.6-20.4-42-42
			C-0.9,27.7,31.5-2.4,64.8,5.4z"/>
		<path d="M24,53.9c0,2,0.7,2,30,2s30,0,30-2s-0.7-2-30-2S24,51.9,24,53.9z"/>
	</g>
</g>
</svg>
