<?xml version="1.0" encoding="utf-8"?>
<!-- Generator: Adobe Illustrator 22.1.0, SVG Export Plug-In . SVG Version: 6.00 Build 0)  -->
<svg version="1.1" id="Layer_1" xmlns="http://www.w3.org/2000/svg" xmlns:xlink="http://www.w3.org/1999/xlink" x="0px" y="0px"
	 viewBox="0 0 107.9 107.9" style="enable-background:new 0 0 107.9 107.9;" xml:space="preserve">
<title>circletick</title>
<g id="Layer_2_1_">
	<g id="Layer_1-2">
		<path d="M40.6,1.5C31.2,3.9,22.7,8.9,16,15.9C5.7,25.8-0.1,39.6,0,53.9c-0.1,14.3,5.7,28.1,16,38c9.9,10.3,23.7,16.1,38,16
			c14.3,0.1,28.1-5.7,38-16c7.4-7.4,12.3-15.8,14.5-25.1c3-12.9,1.3-26.5-4.7-38.3c-4.1-7.8-14.6-18.3-22.4-22.4
			C67.4,0.1,53.7-1.5,40.6,1.5z M64.8,5.4c25.4,6,42.6,30.9,38.4,55.7c-3.4,21.6-20.3,38.5-41.9,42C29.4,108.5-0.6,78.5,4.8,46.6
			C9.7,17.8,37.2-1.1,64.8,5.4z"/>
		<path d="M59.3,53.1L38,74.4l-7.3-7.3C23.5,60,20,58.2,20,61.7c0,2.1,15.9,18.2,18,18.2s46-44.1,46-46.3
			C84,29.4,79.2,33.2,59.3,53.1z"/>
	</g>
</g>
</svg>
