<?xml version="1.0" encoding="utf-8"?>
<!-- Generator: Adobe Illustrator 22.1.0, SVG Export Plug-In . SVG Version: 6.00 Build 0)  -->
<svg version="1.1" id="Layer_1" xmlns="http://www.w3.org/2000/svg" xmlns:xlink="http://www.w3.org/1999/xlink" x="0px" y="0px"
	 viewBox="0 0 107.9 107.9" style="enable-background:new 0 0 107.9 107.9;" xml:space="preserve">
<title>circlebar</title>
<g id="Layer_2_1_">
	<g id="Layer_1-2">
		<path d="M40.6,1.5C31.2,3.9,22.7,8.9,16,15.9C5.7,25.8-0.1,39.6,0,53.9c-0.1,14.3,5.7,28.1,16,38c9.9,10.3,23.7,16.1,38,16
			c14.3,0.1,28.1-5.7,38-16c7.4-7.4,12.3-15.8,14.5-25.1c3-12.9,1.3-26.5-4.7-38.3c-4.1-7.8-14.6-18.3-22.4-22.4
			C67.4,0.1,53.7-1.5,40.6,1.5z M64.8,5.4c25.4,6,42.6,30.9,38.4,55.7C102,68.4,97,80.2,93.1,84.9l-2,2.5L55.8,52.1L20.5,16.8l2.5-2
			c4.2-3.4,13.8-7.9,19.8-9.3C50,3.6,57.6,3.6,64.8,5.4z M52.5,55.9l35,35.1L85,93c-4.7,3.9-16.5,8.9-23.7,10.1
			c-20.5,3.5-42.8-8.3-51.8-27.4c-6.6-14.1-7-28.5-0.9-41.8c2.6-5.8,7.2-13,8.3-13C17.2,20.9,33.3,36.7,52.5,55.9z"/>
	</g>
</g>
</svg>
