<?xml version="1.0" encoding="utf-8"?>
<!-- Generator: Adobe Illustrator 22.1.0, SVG Export Plug-In . SVG Version: 6.00 Build 0)  -->
<svg version="1.1" id="Layer_1" xmlns="http://www.w3.org/2000/svg" xmlns:xlink="http://www.w3.org/1999/xlink" x="0px" y="0px"
	 viewBox="0 0 107.9 107.8" style="enable-background:new 0 0 107.9 107.8;" xml:space="preserve">
<title>circleplus</title>
<g id="Layer_2_1_">
	<g id="Layer_1-2">
		<path d="M40.6,1.5C31.2,3.9,22.7,8.9,16,15.9C5.7,25.8-0.1,39.6,0,53.9c-0.1,14.3,5.7,28.1,16,38c7.4,7.4,15.8,12.3,25.1,14.5
			c12.9,3,26.5,1.3,38.3-4.7c7.8-4.1,18.3-14.6,22.4-22.4c8.2-15.9,8.2-34.9,0-50.8c-4.1-7.8-14.6-18.3-22.4-22.4
			C67.4,0.1,53.7-1.5,40.6,1.5z M64.8,5.4c25.4,6,42.6,30.9,38.4,55.7c-3.4,21.6-20.3,38.5-41.9,42C29.4,108.5-0.6,78.5,4.8,46.6
			C9.7,17.8,37.2-1.1,64.8,5.4z"/>
		<path d="M52,37.9v14H38c-13.3,0-14,0.1-14,2s0.7,2,14,2h14v14c0,13.3,0.1,14,2,14s2-0.7,2-14v-14h14c13.3,0,14-0.1,14-2
			s-0.7-2-14-2H56v-14c0-13.3-0.1-14-2-14S52,24.6,52,37.9z"/>
	</g>
</g>
</svg>
