<?xml version="1.0" encoding="utf-8"?>
<!-- Generator: Adobe Illustrator 22.1.0, SVG Export Plug-In . SVG Version: 6.00 Build 0)  -->
<svg version="1.1" id="Layer_1" xmlns="http://www.w3.org/2000/svg" xmlns:xlink="http://www.w3.org/1999/xlink" x="0px" y="0px"
	 viewBox="0 0 107.9 107.8" style="enable-background:new 0 0 107.9 107.8;" xml:space="preserve">
<title>clock</title>
<g id="Layer_2_1_">
	<g id="Layer_1-2">
		<path d="M40.6,1.5C31.2,3.9,22.7,8.9,16,15.9C5.7,25.8-0.1,39.6,0,53.9c-0.1,14.3,5.7,28.1,16,38c7.4,7.4,15.8,12.3,25.1,14.5
			c12.9,3,26.5,1.3,38.3-4.7c7.8-4.1,18.3-14.6,22.4-22.4c8.2-15.9,8.2-34.9,0-50.8c-4.1-7.8-14.6-18.3-22.4-22.4
			C67.4,0.1,53.7-1.5,40.6,1.5z M64.8,5.4c25.4,6,42.6,30.9,38.4,55.7c-3.4,21.6-20.3,38.5-41.9,42C29.4,108.5-0.6,78.5,4.8,46.6
			C9.7,17.8,37.2-1.1,64.8,5.4z"/>
		<path d="M52,11.9c0,3.3,0.3,4,2,4s2-0.7,2-4s-0.3-4-2-4S52,8.6,52,11.9z"/>
		<path d="M30,15.6c0.1,2.5,2.4,5.3,4.4,5.3s2-1,0.4-4.5C33.5,13.5,30,13,30,15.6z"/>
		<path d="M73.2,16.4c-1.6,3.5-1.5,4.5,0.4,4.5s4.3-2.8,4.4-5.3S74.5,13.5,73.2,16.4z"/>
		<path d="M52,37.4V55l10.3,12.4C71.8,78.9,76,82.3,76,78.3c0-0.8-4.5-6.9-10-13.4L56,53V36.5c0-15.9-0.1-16.6-2-16.6
			S52,20.6,52,37.4z"/>
		<path d="M14,31.7c0,1.7,3.6,4.2,6,4.2c1.7,0,1.1-3.2-0.7-4.6C16.7,29.3,14,29.6,14,31.7z"/>
		<path d="M88.8,31.3c-1.9,1.4-2.5,4.6-0.8,4.6c2.4,0,6-2.5,6-4.2C94,29.6,91.3,29.3,88.8,31.3z"/>
		<path d="M8,53.9c0,1.7,0.7,2,4,2s4-0.3,4-2s-0.7-2-4-2S8,52.2,8,53.9z"/>
		<path d="M92,53.9c0,1.7,0.7,2,4,2s4-0.3,4-2s-0.7-2-4-2S92,52.2,92,53.9z"/>
		<path d="M16.3,73.1c-2.7,1.3-3.1,4.8-0.5,4.8c2.4-0.1,5.2-2.4,5.2-4.4C21,71.7,19.5,71.5,16.3,73.1z"/>
		<path d="M87,73.5c0,2,2.8,4.3,5.3,4.4s2.1-3.5-0.8-4.8C88,71.5,87,71.6,87,73.5z"/>
		<path d="M31.2,88.9c-1.7,2.8-1.5,5,0.6,5c1.7,0,4.2-3.6,4.2-6C36,86.1,32.5,86.9,31.2,88.9z"/>
		<path d="M72,87.9c0,2.4,2.5,6,4.2,6c2.1,0,2.4-2.7,0.4-5.3C75.2,86.8,72,86.2,72,87.9z"/>
		<path d="M52,95.9c0,3.3,0.3,4,2,4s2-0.7,2-4s-0.3-4-2-4S52,92.6,52,95.9z"/>
	</g>
</g>
</svg>
