<svg xmlns="http://www.w3.org/2000/svg" xmlns:xlink="http://www.w3.org/1999/xlink" version="1.1" preserveAspectRatio="none" x="0px" y="0px" viewBox="0 0 100 100"><defs><g id="a"><path fill="#000000" stroke="none" d=" M 58.5 29.55 Q 58.5 30.85 59.15 31.5 59.8 32.15 61.8 32.4 63.3 32.65 63.95 33.3 64.6 33.95 64.6 35.25 L 64.6 40.95 Q 64.6 45 65.4 46.9 66.25 48.8 68.2 50.05 66.2 51.35 65.4 53.1 64.6 54.85 64.6 59.15 L 64.6 64.6 Q 64.6 66.05 64.05 66.7 63.45 67.35 61.8 67.6 59.8 67.9 59.15 68.55 58.5 69.2 58.5 70.5 58.5 71.85 59.4 72.65 60.2 73.4 61.75 73.4 63.9 73.4 65.9 72.6 67.9 71.8 68.95 70.55 69.9 69.35 70.3 67.7 70.7 66.05 70.7 61.75 L 70.7 58.65 Q 70.7 53.85 74.55 53.15 L 75.75 52.9 Q 76.9 52.65 77.45 51.95 78 51.2 78 50.05 78 48.9 77.5 48.2 76.95 47.5 75.8 47.2 L 74.45 46.95 Q 70.7 46.2 70.7 41.5 L 70.7 38.3 Q 70.7 33.75 70.2 31.95 69.65 30.15 68.3 28.95 67.15 27.85 65.4 27.25 63.7 26.65 61.7 26.65 60.15 26.65 59.35 27.4 58.5 28.15 58.5 29.55 M 41.5 29.35 Q 41.5 28.15 40.65 27.4 39.8 26.65 38.35 26.65 36.05 26.65 34.15 27.45 32.25 28.2 31.1 29.6 30.15 30.85 29.75 32.5 29.3 34.15 29.3 38.3 L 29.3 41.5 Q 29.3 46.2 25.75 46.85 L 24.25 47.2 Q 23.1 47.5 22.55 48.2 22 48.85 22 50.05 22 51.35 22.65 52.05 23.25 52.75 24.55 53 24.7 53 24.85 53.05 29.3 53.75 29.3 58.65 L 29.3 61.75 Q 29.3 66.25 29.85 68.05 30.4 69.9 31.65 71.05 32.8 72.15 34.6 72.8 36.35 73.4 38.25 73.4 39.75 73.4 40.65 72.65 41.5 71.9 41.5 70.65 41.5 68.1 38.45 67.65 L 37.55 67.5 Q 36.35 67.25 35.9 66.55 35.45 65.85 35.45 63.2 L 35.45 59.15 Q 35.45 54.85 34.65 53.1 33.85 51.35 31.8 50.05 33.8 48.8 34.65 46.9 35.45 45 35.45 40.95 L 35.45 36.95 Q 35.45 34.25 35.95 33.5 36.45 32.7 37.8 32.5 38.05 32.45 38.25 32.4 41.5 31.9 41.5 29.35 Z"></path></g></defs><g transform="matrix( 1, 0, 0, 1, 0,0) "><use xlink:href="#a"></use></g></svg>