<?xml version="1.0" encoding="utf-8"?>
<!-- Generator: Adobe Illustrator 22.0.1, SVG Export Plug-In . SVG Version: 6.00 Build 0)  -->
<svg version="1.1"
	 id="Layer_1" xmlns:cc="http://creativecommons.org/ns#" xmlns:dc="http://purl.org/dc/elements/1.1/" xmlns:inkscape="http://www.inkscape.org/namespaces/inkscape" xmlns:rdf="http://www.w3.org/1999/02/22-rdf-syntax-ns#" xmlns:sodipodi="http://sodipodi.sourceforge.net/DTD/sodipodi-0.dtd" xmlns:svg="http://www.w3.org/2000/svg"
	 xmlns="http://www.w3.org/2000/svg" xmlns:xlink="http://www.w3.org/1999/xlink" x="0px" y="0px" viewBox="0 0 100 100"
	 style="enable-background:new 0 0 100 100;" xml:space="preserve">
<g transform="translate(0,-952.36218)">
	<path d="M21,964.4c-4.4,0-8,3.6-8,8v40c0,4.4,3.6,8,8,8h11l-1.8,17.8c-0.1,0.8,0.4,1.6,1.1,2c0.7,0.4,1.7,0.2,2.3-0.4l19.5-19.4h26
		c4.4,0,8-3.6,8-8v-40c0-4.4-3.6-8-8-8H21z M21,968.4h58c2.3,0,4,1.7,4,4v40c0,2.3-1.7,4-4,4H52.2c-0.5,0-1,0.2-1.4,0.6l-16.1,16
		l1.5-14.4c0.1-1.1-0.9-2.2-2-2.2H21c-2.3,0-4-1.7-4-4v-40C17,970.1,18.7,968.4,21,968.4L21,968.4z"/>
</g>
</svg>
