<?xml version="1.0" encoding="utf-8"?>
<!-- Generator: Adobe Illustrator 22.1.0, SVG Export Plug-In . SVG Version: 6.00 Build 0)  -->
<svg version="1.1" id="Layer_1" xmlns="http://www.w3.org/2000/svg" xmlns:xlink="http://www.w3.org/1999/xlink" x="0px" y="0px"
	 viewBox="0 0 88 87.8" style="enable-background:new 0 0 88 87.8;" xml:space="preserve">
<title>cross</title>
<g id="Layer_2_1_">
	<g id="Layer_1-2">
		<path d="M0,1.5c0,1,9.1,10.9,20.2,22l20.3,20.3L20.2,64.1c-19,19-22.6,23.7-18.5,23.7c1,0,10.9-9.1,22-20.2L44,47.3l20.3,20.3
			c19,19,23.7,22.6,23.7,18.5c0-1-9.1-10.9-20.2-22L47.5,43.8l20.3-20.3C78.9,12.4,88,2.5,88,1.5C88-2.6,83.3,1,64.3,20L44,40.3
			L23.7,20C4.7,1,0-2.6,0,1.5z"/>
	</g>
</g>
</svg>
