<?xml version="1.0" encoding="utf-8"?>
<!-- Generator: Adobe Illustrator 22.1.0, SVG Export Plug-In . SVG Version: 6.00 Build 0)  -->
<svg version="1.1" id="Layer_1" xmlns="http://www.w3.org/2000/svg" xmlns:xlink="http://www.w3.org/1999/xlink" x="0px" y="0px"
	 viewBox="0 0 56 56" style="enable-background:new 0 0 56 56;" xml:space="preserve">
<style type="text/css">
	.st0{fill:none;stroke:#666666;stroke-width:2;stroke-linecap:round;stroke-linejoin:round;}
</style>
<title>Asset 7</title>
<g id="Layer_2_1_">
	<g id="_64px">
		<g id="Outline">
			<g id="Construction">
				<g id="digger">
					<polygon class="st0" points="27,20 27,28 15,21 15,11 22,11 					"/>
					<path class="st0" d="M11,23V10c0-1.7,1.3-3,3-3h8c2.6,0,3.5,1.1,4.3,3s4.7,9,4.7,9v15.7"/>
					<path class="st0" d="M11,23H6c-1.7,0-3,1.3-3,3v14c0,1.7,1.3,3,3,3h29v-6L11,23z"/>
					<path class="st0" d="M5,55c-2.2,0-4-1.8-4-4s1.8-4,4-4h30c2.2,0,4,1.8,4,4s-1.8,4-4,4H5z"/>
					<path class="st0" d="M49,55c0,0-8-2-8-12"/>
					<line class="st0" x1="7" y1="29" x2="11" y2="29"/>
					<line class="st0" x1="7" y1="33" x2="11" y2="33"/>
					<line class="st0" x1="7" y1="37" x2="11" y2="37"/>
					<path class="st0" d="M27.6,12.7L38.2,2.2c1.6-1.6,4.1-1.6,5.7,0s1.6,4.1,0,5.7L31,20.7"/>
					<line class="st0" x1="52" y1="25" x2="44.5" y2="3.2"/>
					<line class="st0" x1="40.8" y1="10.8" x2="49" y2="27"/>
					<path class="st0" d="M41.2,34.6c2.5,2.8,8.9,3.2,12,0.9s1.9-7-0.5-9.8L52,25L39,35L41.2,34.6z"/>
					<circle class="st0" cx="5" cy="51" r="4"/>
					<circle class="st0" cx="15" cy="51" r="4"/>
					<circle class="st0" cx="25" cy="51" r="4"/>
					<circle class="st0" cx="35" cy="51" r="4"/>
				</g>
			</g>
		</g>
	</g>
</g>
</svg>
