<?xml version="1.0" encoding="utf-8"?>
<!-- Generator: Adobe Illustrator 22.1.0, SVG Export Plug-In . SVG Version: 6.00 Build 0)  -->
<svg version="1.1" id="Layer_1" xmlns="http://www.w3.org/2000/svg" xmlns:xlink="http://www.w3.org/1999/xlink" x="0px" y="0px"
	 viewBox="0 0 64 40" style="enable-background:new 0 0 64 40;" xml:space="preserve">
<style type="text/css">
	.st0{fill:none;stroke:#666666;stroke-width:2;stroke-linecap:round;stroke-linejoin:round;}
</style>
<title>Asset 8</title>
<g id="Layer_2_1_">
	<g id="_64px">
		<g id="Outline">
			<g id="Construction">
				<g id="dump_truck">
					<polyline class="st0" points="55,1 44,1 35,31 1,15 1,5 42.8,5 					"/>
					<polygon class="st0" points="58,17 48,17 50,9 56,9 					"/>
					<circle class="st0" cx="53" cy="31" r="8"/>
					<circle class="st0" cx="9" cy="31" r="8"/>
					<polyline class="st0" points="61,31 63,31 63,19 59,5 47,5 43,19 43,31 45,31 					"/>
					<circle class="st0" cx="9" cy="31" r="2"/>
					<circle class="st0" cx="53" cy="31" r="2"/>
					<line class="st0" x1="33" y1="9" x2="29" y2="23"/>
					<line class="st0" x1="25" y1="9" x2="22.1" y2="19"/>
					<line class="st0" x1="17" y1="9" x2="14.8" y2="16"/>
					<line class="st0" x1="9" y1="9" x2="7.8" y2="12.5"/>
				</g>
			</g>
		</g>
	</g>
</g>
</svg>
