<?xml version="1.0" encoding="utf-8"?>
<!-- Generator: Adobe Illustrator 22.1.0, SVG Export Plug-In . SVG Version: 6.00 Build 0)  -->
<svg version="1.1" id="Layer_1" xmlns="http://www.w3.org/2000/svg" xmlns:xlink="http://www.w3.org/1999/xlink" x="0px" y="0px"
	 viewBox="0 0 79.9 100" style="enable-background:new 0 0 79.9 100;" xml:space="preserve">
<title>flag</title>
<g id="Layer_2_1_">
	<g id="Layer_1-2">
		<path d="M4.4,1.4l-4,1.2L0.1,51.3C-0.1,99.5-0.1,100,1.9,100s2-0.6,2-21.9C3.9,60.2,4.2,56,5.4,55c0.7-0.6,4.3-1.7,7.9-2.3
			c6.1-1,7.3-0.9,22.3,2.9c18.1,4.5,28.6,5,38.6,2.1l5.7-1.8V28.4c0-15.2-0.3-27.4-0.7-27.2C69.5,6,59.8,8.5,54.6,7.5
			c-1.7-0.4-9.5-2.2-17.1-4.1C22.5-0.3,12-0.9,4.4,1.4z M35.5,7.5c21.1,5.4,26.8,5.5,38.9,0.9c1.3-0.5,1.5,2.1,1.5,21.9v22.5
			l-5.2,1.3c-9.2,2.2-17.1,1.6-33.2-2.5c-15.2-3.9-21.3-4.3-30.8-2l-2.8,0.6V6l2.8-0.6c1.2-0.2,2.5-0.5,3.7-0.9
			C13.9,3.3,23.5,4.5,35.5,7.5z"/>
	</g>
</g>
</svg>
