<svg xmlns="http://www.w3.org/2000/svg" xmlns:xlink="http://www.w3.org/1999/xlink" xml:space="preserve" version="1.1" style="shape-rendering:geometricPrecision;text-rendering:geometricPrecision;image-rendering:optimizeQuality;" viewBox="0 0 303 218" x="0px" y="0px" fill-rule="evenodd" clip-rule="evenodd"><defs><style type="text/css">
   
    .fil0 {fill:black}
   
  </style></defs><g><path class="fil0" d="M302 89c2,-4 -1,-8 -5,-8l-240 0c-2,0 -4,2 -5,4l-46 123c-1,3 1,10 5,10l229 0c10,-2 18,-9 22,-18l40 -111z"></path><path class="fil0" d="M0 184l39 -104c2,-8 10,-13 18,-13l196 0 0 -12c0,-6 -5,-11 -11,-11l-124 0c-3,0 -7,-4 -7,-7l0 -17c0,-11 -9,-20 -20,-20l-81 0c-6,0 -10,4 -10,10l0 174z"></path></g></svg>