<?xml version="1.0" encoding="utf-8"?>
<!-- Generator: Adobe Illustrator 22.1.0, SVG Export Plug-In . SVG Version: 6.00 Build 0)  -->
<svg version="1.1" id="Layer_1" xmlns="http://www.w3.org/2000/svg" xmlns:xlink="http://www.w3.org/1999/xlink" x="0px" y="0px"
	 viewBox="0 0 107 99.4" style="enable-background:new 0 0 107 99.4;" xml:space="preserve">
<title>Asset 1</title>
<g id="Layer_2_1_">
	<g id="Layer_1-2">
		<path d="M39.9,1.2c-0.2,0.7-0.3,6.9-0.2,13.8L40,27.4l5.8,0.3l5.7,0.3v19.9l-19.7,0.2L12,48.4l-0.3,11.7l-0.3,11.7l-5.7,0.3
			L0,72.4v27h27v-27l-5.7-0.3l-5.8-0.3V51.9h36v19.9l-5.7,0.3L40,72.4v27h27v-27l-5.7-0.3l-5.8-0.3V51.9h36v19.9l-5.7,0.3L80,72.4
			v27h27v-27l-5.7-0.3l-5.7-0.3l-0.3-11.7L95,48.4l-19.7-0.3l-19.8-0.2V28l5.8-0.3l5.7-0.3v-27L53.7,0.1C43.4-0.1,40.3,0.1,39.9,1.2
			z M63.5,13.9v10h-20v-20h20V13.9z M23.5,85.9v10h-20v-20h20V85.9z M63.5,85.9v10h-20v-20h20V85.9z M103.5,85.9v10h-20v-20h20V85.9
			z"/>
	</g>
</g>
</svg>
