<?xml version="1.0" encoding="utf-8"?>
<!-- Generator: Adobe Illustrator 22.1.0, SVG Export Plug-In . SVG Version: 6.00 Build 0)  -->
<svg version="1.1" id="Layer_1" xmlns="http://www.w3.org/2000/svg" xmlns:xlink="http://www.w3.org/1999/xlink" x="0px" y="0px"
	 viewBox="0 0 120 87.9" style="enable-background:new 0 0 120 87.9;" xml:space="preserve">
<title>friend</title>
<g id="Layer_2_1_">
	<g id="Layer_1-2">
		<path d="M26,1.8c-2.4,1.5-4.6,3.4-6.5,5.6c-2.7,3.4-3,4.5-3,10.6s0.3,7.2,3.4,11c1.2,1.4,2.2,2.8,3,4.4c-0.2,0.2-2.8,1.6-5.7,3.1
			c-9.5,5.3-15.8,14.9-17,25.7C-0.2,67.5-0.1,68,1.7,68s2.2-0.9,2.7-5.1C6.1,49,17,38,30.9,36.4c3.9-0.5,5.1-1.1,5.1-2.4
			s-1.1-1.9-3.9-2.4c-7.5-1.1-12.7-8.1-11.6-15.6c0.4-2.5,1.5-4.9,3.1-6.9c5-6,13.7-6.4,19.8-1.1c1.9,1.7,3.9,3,4.6,3
			c2.3,0,0.4-4.4-3.3-7.3C39.8-0.3,31.4-1.1,26,1.8z"/>
		<path d="M78.5,1.5c-6.1,3.3-9.8,8.1-7,9.1c0.9,0.4,2.9-0.6,5-2.4C82.7,2.6,91.4,3,96.4,9c4.9,5.8,4.2,14.5-1.6,19.4
			c-2,1.7-4.4,2.7-6.9,3.1C85.1,32,84,32.6,84,34s1.2,1.9,5.1,2.4C103,38,113.9,49,115.6,62.9c0.5,4.2,1,5.1,2.7,5.1
			s1.9-0.5,1.5-5.8c-1.2-10.8-7.5-20.4-17-25.7c-2.9-1.5-5.5-2.9-5.7-3.1c0.8-1.6,1.8-3,3-4.4c2.7-3.3,3.3-5.1,3.6-9.8
			c0.5-6.8-1.5-11.1-7.1-15.6C92.1-0.2,83.3-1.1,78.5,1.5z"/>
		<path d="M51.5,13.9c-12.4,5.7-15.4,22.3-5.8,32.3c1.5,1.5,2.5,2.9,2.2,3s-3,1.6-6.1,3.1c-11.1,5.6-20,18-21.4,30
			c-0.6,5.3-0.5,5.7,1.3,5.7s2.2-0.9,2.7-4.8c1.7-11.6,10.2-22.8,21.4-28c4.8-2.2,7.1-2.7,14.2-2.7s9.4,0.5,14.2,2.7
			c11.2,5.2,19.7,16.4,21.4,28c0.5,3.9,1,4.8,2.7,4.8s1.9-0.4,1.3-5.7c-1.4-12-10.3-24.4-21.4-30c-3.1-1.5-5.9-2.9-6.1-3.1
			s0.7-1.5,2.2-3c5.7-6.1,7.2-15.1,3.8-22.7c-4.6-10-16.5-14.3-26.5-9.7C51.6,13.8,51.5,13.8,51.5,13.9z M67,18.1
			c4.8,2.5,9,8.9,9,13.8c-0.3,2.4-1.1,4.8-2.2,7c-2.5,4.8-8.9,9-13.8,9c-2.5-0.3-4.8-1.1-7-2.3c-4.8-2.4-9-8.8-9-13.7
			c0.3-2.5,1.1-4.8,2.3-7c2.4-4.8,8.8-9,13.7-9C62.4,16.3,64.8,17,67,18.1z"/>
	</g>
</g>
</svg>
