<?xml version="1.0" encoding="utf-8"?>
<!-- Generator: Adobe Illustrator 22.1.0, SVG Export Plug-In . SVG Version: 6.00 Build 0)  -->
<svg version="1.1" id="Layer_1" xmlns="http://www.w3.org/2000/svg" xmlns:xlink="http://www.w3.org/1999/xlink" x="0px" y="0px"
	 viewBox="0 0 108 108" style="enable-background:new 0 0 108 108;" xml:space="preserve">
<title>gear</title>
<g id="Layer_2_1_">
	<g id="Layer_1-2">
		<path d="M46.5,1.4c-1.3,0.9-2.1,3.1-2.5,6.5l-0.5,5.2l-6,2.4L31.6,18l-3.1-3c-1.7-1.7-4-3-5.1-3C20.9,12,12,20.9,12,23.5
			c0,1,1.4,3.3,3,5l3,3.1l-2.4,6l-2.4,5.9L8,44c-6.5,0.7-8,2.5-8,10s1.5,9.3,8,10l5.2,0.5l2.4,5.9l2.4,6l-3,3.1c-1.6,1.7-3,4-3,5.1
			C12,87.1,20.9,96,23.5,96c1,0,3.3-1.4,5-3l3.1-3l6,2.4l5.9,2.4L44,100c0.7,6.5,2.5,8,10,8s9.3-1.5,10-8l0.5-5.2l5.9-2.4l6-2.4
			l3.1,3c1.7,1.6,4,3,5.1,3C87.1,96,96,87.1,96,84.5c0-1-1.4-3.3-3-5l-3-3.1l2.4-6l2.4-5.9L100,64c6.5-0.7,8-2.5,8-10s-1.5-9.3-8-10
			l-5.2-0.5l-2.4-5.9l-2.4-6l3-3.1c1.6-1.7,3-4,3-5.1C96,20.9,87.1,12,84.5,12c-1,0-3.3,1.3-5,3l-3.1,3l-5.9-2.5l-6-2.4L64,7.9
			C63.3,1.5,61.5,0,54,0C50.8,0,47.6,0.6,46.5,1.4z M60,10.4c0.5,5.9,0.5,5.9,4.5,7.1c2.8,0.9,5.5,2,8.1,3.3l4.1,2.1l3.4-3.5
			c1.8-1.8,3.7-3.4,4.3-3.4c1.4,0,7.6,6.1,7.6,7.5c0,0.6-1.6,2.6-3.4,4.4l-3.5,3.4l2.1,4.1c1.3,2.6,2.4,5.3,3.3,8.1
			c1.2,4,1.2,4,7.1,4.5l5.9,0.5v11L97.6,60c-5.9,0.5-5.9,0.5-7.1,4.5c-0.9,2.8-2,5.5-3.3,8.1l-2.1,4.1l3.5,3.4
			c1.8,1.8,3.4,3.7,3.4,4.3c0,1.4-6.1,7.6-7.5,7.6c-0.6,0-2.6-1.6-4.4-3.4l-3.4-3.5l-4.1,2.1c-2.6,1.3-5.3,2.4-8.1,3.3
			c-4,1.2-4,1.2-4.5,7.1l-0.5,5.9h-11L48,97.6c-0.5-5.9-0.5-5.9-4.5-7.1c-2.8-0.9-5.5-2-8.1-3.3l-4.1-2.1l-3.4,3.5
			c-1.8,1.8-3.7,3.4-4.3,3.4c-1.4,0-7.6-6.1-7.6-7.5c0-0.6,1.6-2.6,3.4-4.4l3.5-3.4l-2.1-4.1c-1.3-2.6-2.4-5.3-3.3-8.1
			c-1.2-4-1.2-4-7.1-4.5l-5.9-0.5v-11l5.9-0.5c5.9-0.5,5.9-0.5,7.1-4.5c0.9-2.8,2-5.5,3.3-8.1l2.1-4.1l-3.5-3.4
			c-1.8-1.8-3.4-3.7-3.4-4.3c0-1.4,6.1-7.6,7.5-7.6c0.6,0,2.6,1.6,4.4,3.4l3.4,3.5l4.1-2.1c2.6-1.3,5.3-2.4,8.1-3.3
			c3.9-1.2,4-1.3,4.3-6.1c0.4-7.4,0.5-7.5,6.4-7.2l5.3,0.3L60,10.4z"/>
		<path d="M46.5,33.5c-3.1,1.4-5.9,3.4-8.2,5.8c-8.6,9.1-8.4,20.9,0.6,29.8C43.4,73.7,48.5,76,54,76c8.5,0,18.7-7.6,20.9-15.5
			c2.4-8.7,0.6-15.3-5.8-21.6C62.5,32.3,55,30.5,46.5,33.5z M61.3,37.6c4.5,2.3,6.6,4.4,8.8,8.6C76,57.7,67.1,72,54,72
			S32,57.7,37.9,46.2C42.4,37.3,53,33.4,61.3,37.6z"/>
	</g>
</g>
</svg>
