<?xml version="1.0" encoding="utf-8"?>
<!-- Generator: Adobe Illustrator 22.1.0, SVG Export Plug-In . SVG Version: 6.00 Build 0)  -->
<svg version="1.1" id="Layer_1" xmlns="http://www.w3.org/2000/svg" xmlns:xlink="http://www.w3.org/1999/xlink" x="0px" y="0px"
	 viewBox="0 0 107.9 107.9" style="enable-background:new 0 0 107.9 107.9;" xml:space="preserve">
<title>github</title>
<g id="Layer_2_1_">
	<g id="Layer_1-2">
		<path d="M40.6,1.5C31.2,3.9,22.7,8.9,16,15.9C5.7,25.8-0.1,39.6,0,53.9c-0.1,14.3,5.7,28.1,16,38c9.9,10.3,23.7,16.1,38,16
			c14.3,0.1,28.1-5.7,38-16c7.4-7.4,12.3-15.8,14.5-25.1c3-12.9,1.3-26.5-4.7-38.3c-4.1-7.8-14.6-18.3-22.4-22.4
			C67.4,0.1,53.7-1.5,40.6,1.5z M64.8,5.4c20,4.6,35.2,20.9,38.4,41.2c3.4,20.5-8.2,42.6-27.4,51.8l-7.3,3.5L68,93.7
			c-0.3-4.6-1.1-9.3-1.8-10.5c-1.1-2.1-1-2.3,1.5-2.9c10-2.2,16.9-7.6,19.1-15c2.1-7.1,1.5-16.3-1.3-21.2c-1.7-2.9-2.3-5.2-1.9-6.8
			c0.4-1.3,0.3-4.4,0-6.9c-0.7-4.1-1-4.5-3.4-4.5c-2.5,0.3-4.9,1.1-7.2,2.2c-3.9,1.8-6.3,2.1-19,2.1c-12.9-0.1-15.1-0.3-18.8-2.2
			c-8.3-4.2-11.9-1.7-10.9,7.7c0.4,3.4-0.1,5.3-1.9,8.5c-2.7,4.8-3.3,14.1-1.2,21.1c2.2,7.4,9.1,12.8,19.1,15
			c2.5,0.6,2.6,0.8,1.5,2.9c-0.7,1.2-1.5,5.9-1.8,10.5l-0.5,8.2l-7.3-3.5C13,89.2,1.4,67.1,4.8,46.6C9.7,17.8,37.2-1.1,64.8,5.4z"/>
	</g>
</g>
</svg>
