<?xml version="1.0" encoding="utf-8"?>
<!-- Generator: Adobe Illustrator 22.1.0, SVG Export Plug-In . SVG Version: 6.00 Build 0)  -->
<svg version="1.1" id="Layer_1" xmlns="http://www.w3.org/2000/svg" xmlns:xlink="http://www.w3.org/1999/xlink" x="0px" y="0px"
	 viewBox="0 0 100 100" style="enable-background:new 0 0 100 100;" xml:space="preserve">
<title>gridbox</title>
<g id="Layer_2_1_">
	<g id="Layer_1-2">
		<path d="M0,14v14h28V0H0V14z M24,14v10H4V4h20V14z"/>
		<path d="M36,14v14h28V0H36V14z M60,14v10H40V4h20V14z"/>
		<path d="M72,14v14h28V0H72V14z M96,14v10H76V4h20V14z"/>
		<path d="M0,50v14h28V36H0V50z M24,50v10H4V40h20V50z"/>
		<path d="M36,50v14h28V36H36V50z M60,50v10H40V40h20V50z"/>
		<path d="M72,50v14h28V36H72V50z M96,50v10H76V40h20V50z"/>
		<path d="M0,86v14h28V72H0V86z M24,86v10H4V76h20V86z"/>
		<path d="M36,86v14h28V72H36V86z M60,86v10H40V76h20V86z"/>
		<path d="M72,86v14h28V72H72V86z M96,86v10H76V76h20V86z"/>
	</g>
</g>
</svg>
