<?xml version="1.0" encoding="utf-8"?>
<!-- Generator: Adobe Illustrator 22.1.0, SVG Export Plug-In . SVG Version: 6.00 Build 0)  -->
<svg version="1.1" id="Layer_1" xmlns="http://www.w3.org/2000/svg" xmlns:xlink="http://www.w3.org/1999/xlink" x="0px" y="0px"
	 viewBox="0 0 60 56" style="enable-background:new 0 0 60 56;" xml:space="preserve">
<style type="text/css">
	.st0{fill:none;stroke:#666666;stroke-width:2;stroke-linecap:round;stroke-linejoin:round;}
	.st1{fill:none;stroke:#666666;stroke-width:2;stroke-linejoin:round;}
</style>
<title>Asset 4</title>
<g id="Layer_2_1_">
	<g id="_64px">
		<g id="Outline">
			<g id="Construction">
				<g id="hammer_screwdriver_2">
					<line class="st0" x1="37.9" y1="23.2" x2="32.3" y2="17.5"/>
					<path class="st1" d="M29.1,22.6c-2.7,0.4-5.3-1.5-5.7-4.2c-0.1-0.5-0.1-1,0-1.4l0,0L10.7,4.2C8.3,1.9,6,3.3,3.6,5.6
						s-3.8,4.7-1.4,7.1l12.7,12.7l0,0c1.6-0.3,3.1,0.3,4.2,1.4c1.1,1.1,1.7,2.7,1.4,4.2l1.4,1.4l8.5-8.5L29.1,22.6z"/>
					<polyline class="st1" points="27.7,26.7 53,52 50,55 24.7,29.7 					"/>
					<line class="st1" x1="45.8" y1="50.8" x2="48.6" y2="47.9"/>
					<path class="st0" d="M34.1,27.1l5.6-5.8c1.5-1.6,4-1.6,5.5-0.1c0,0,0.1,0.1,0.1,0.1c0.9,1.1,1.3,2.5,1,3.8
						c-0.3,2.6,0.4,3.3,0.4,3.3l2.1,2.1c0.4,0.4,1,0.4,1.4,0l8.4-8.6c0.4-0.4,0.4-1,0-1.4c0,0,0,0,0,0l-2.1-2.1c0,0-0.7-0.7-3.2-0.4
						c-1.4,0.3-2.8-0.1-3.8-1c-1.5-1.6-1.5-4.1,0-5.7L44,5.7C35.5-2.9,21,3,21,3s8,1,13.1,7"/>
					<path class="st0" d="M16.7,33.3L1.4,48.8c-0.6,0.6-0.6,1.5,0,2.1c0,0,0,0,0,0L5,54.6c0.6,0.6,1.5,0.6,2.1,0c0,0,0,0,0,0
						l18-18.4"/>
					<path class="st0" d="M34.1,9.9c1.6,1.6,1.6,4.1,0,5.7l-2.8,2.9"/>
				</g>
			</g>
		</g>
	</g>
</g>
</svg>
