<?xml version="1.0" encoding="utf-8"?>
<!-- Generator: Adobe Illustrator 22.1.0, SVG Export Plug-In . SVG Version: 6.00 Build 0)  -->
<svg version="1.1" id="Layer_1" xmlns="http://www.w3.org/2000/svg" xmlns:xlink="http://www.w3.org/1999/xlink" x="0px" y="0px"
	 viewBox="0 0 50 56" style="enable-background:new 0 0 50 56;" xml:space="preserve">
<style type="text/css">
	.st0{fill:none;stroke:#666666;stroke-width:2;stroke-linecap:round;stroke-linejoin:round;}
</style>
<title>Asset 3</title>
<g id="Layer_2_1_">
	<g id="_64px">
		<g id="Outline">
			<g id="Construction">
				<g id="helmet_goggles">
					<line class="st0" x1="25" y1="1" x2="25" y2="15"/>
					<path class="st0" d="M17,13V5.5C17,4.1,18.1,3,19.5,3h11C31.9,3,33,4.1,33,5.5V13"/>
					<path class="st0" d="M17,6.5C8.6,9.8,3,17.9,3,27l-2,2v4c0,0,7.2,2,24,2s24-2,24-2v-4l-2-2c0-9.1-5.6-17.2-14-20.5"/>
					<line class="st0" x1="9" y1="27" x2="41" y2="27"/>
					<path class="st0" d="M25,45c1.1,0,2,0.9,2,2c0,0,1.1,8,7,8h5c3.3,0,6-2.7,6-6v-6c0-2.2-1.8-4-4-4H9c-2.2,0-4,1.8-4,4v6
						c0,3.3,2.7,6,6,6h5c5.9,0,7-8,7-8C23,45.9,23.9,45,25,45z"/>
					<polyline class="st0" points="5,49 1,49 1,43 5,43 					"/>
					<polyline class="st0" points="45,49 49,49 49,43 45,43 					"/>
				</g>
			</g>
		</g>
	</g>
</g>
</svg>
