<svg xmlns="http://www.w3.org/2000/svg" xmlns:xlink="http://www.w3.org/1999/xlink" version="1.1" x="0px" y="0px" viewBox="0 0 100 100" style="enable-background:new 0 0 100 100;" xml:space="preserve"><g><path d="M50,86.6c20.2,0,36.6-16.4,36.6-36.6c0-20.2-16.4-36.6-36.6-36.6S13.4,29.8,13.4,50C13.4,70.2,29.8,86.6,50,86.6z M50,19.4   c16.9,0,30.6,13.7,30.6,30.6c0,16.9-13.7,30.6-30.6,30.6S19.4,66.9,19.4,50C19.4,33.1,33.1,19.4,50,19.4z"></path><path d="M50.4,56c1.7,0,3-1.3,3-3V34c0-1.7-1.3-3-3-3s-3,1.3-3,3v19C47.4,54.7,48.8,56,50.4,56z"></path><path d="M50.4,70c1.7,0,3-1.3,3-3v-3c0-1.7-1.3-3-3-3s-3,1.3-3,3v3C47.4,68.7,48.8,70,50.4,70z"></path></g></svg>