<?xml version="1.0" encoding="utf-8"?>
<!-- Generator: Adobe Illustrator 22.1.0, SVG Export Plug-In . SVG Version: 6.00 Build 0)  -->
<svg version="1.1" id="Layer_1" xmlns="http://www.w3.org/2000/svg" xmlns:xlink="http://www.w3.org/1999/xlink" x="0px" y="0px"
	 viewBox="0 0 112 80" style="enable-background:new 0 0 112 80;" xml:space="preserve">
<title>letter</title>
<g id="Layer_2_1_">
	<g id="Layer_1-2">
		<path d="M1.7,1.8C0.2,3.5,0,7.6,0,40.2c0,34.1,0.1,36.6,1.8,38.1S8.7,80,56.2,80c49.6,0,52.6-0.1,54.1-1.8s1.7-5.8,1.7-38.4
			c0-34.1-0.1-36.6-1.8-38.1S103.3,0,55.8,0C6.2,0,3.2,0.1,1.7,1.8z M81,27.5C68,40.4,56.8,51,55.9,51S43.9,40.4,31,27.5L7.5,4h97
			L81,27.5z M56,55c3.1,0,5.4-2,27.7-24.2L108,6.5L107.8,41l-0.3,34.5H4.5L4.2,41L4,6.5l24.2,24.2C50.5,53,52.8,55,56,55z"/>
	</g>
</g>
</svg>
