<?xml version="1.0" encoding="utf-8"?>
<!-- Generator: Adobe Illustrator 22.1.0, SVG Export Plug-In . SVG Version: 6.00 Build 0)  -->
<svg version="1.1" id="Layer_1" xmlns="http://www.w3.org/2000/svg" xmlns:xlink="http://www.w3.org/1999/xlink" x="0px" y="0px"
	 viewBox="0 0 112 104.1" style="enable-background:new 0 0 112 104.1;" xml:space="preserve">
<title>letters</title>
<g id="Layer_2_1_">
	<g id="Layer_1-2">
		<path d="M21.6,1.6c-1.3,1.3-1.6,4.6-1.6,20C20,39.3,20.1,40,22,40s2-0.8,2.2-16.5L24.5,7l19,16c20.7,17.4,22.4,18.2,28.1,13.8
			c1.6-1.3,9.9-8.1,18.4-15.3S106.1,8,106.8,7.6c0.9-0.6,1.2,4.5,1.2,23.8V56h-6c-5.3,0-6,0.2-6,2s0.7,2,6.8,2c4,0,7.3-0.5,8-1.2
			c0.9-0.9,1.2-8.6,1.2-28.4c0-23.4-0.2-27.5-1.6-28.8S103.6,0,66,0S23,0.2,21.6,1.6z M103,4.4C103,5.3,66.9,35,65.9,35
			S52.7,25.2,34.7,9.8L27.9,4h37.6C86.1,4,103,4.2,103,4.4z"/>
		<path d="M1.6,45.6C0.2,46.9,0,51,0,74.4c0,19.8,0.3,27.5,1.2,28.4c1.7,1.7,87.9,1.7,89.6,0c0.9-0.9,1.2-8.6,1.2-28.4
			c0-23.4-0.2-27.5-1.6-28.8S83.6,44,46,44S3,44.2,1.6,45.6z M83,48.4C83,49.3,46.9,79,45.9,79s-13.2-9.8-31.2-25.2L7.9,48h37.6
			C66.1,48,83,48.2,83,48.4z M24,67.4c20.2,17,21.9,17.8,27.6,13.4c1.6-1.3,9.9-8.1,18.4-15.3S86.1,52,86.8,51.6
			C87.7,51,88,56.1,88,75.4V100H4V75.4c0-13.5,0.4-24.3,0.8-24S13.9,58.9,24,67.4z"/>
	</g>
</g>
</svg>
