<?xml version="1.0" encoding="utf-8"?>
<!-- Generator: Adobe Illustrator 22.1.0, SVG Export Plug-In . SVG Version: 6.00 Build 0)  -->
<svg version="1.1" id="Layer_1" xmlns="http://www.w3.org/2000/svg" xmlns:xlink="http://www.w3.org/1999/xlink" x="0px" y="0px"
	 viewBox="0 0 112 92" style="enable-background:new 0 0 112 92;" xml:space="preserve">
<title>lettertrash</title>
<g id="Layer_2_1_">
	<g id="Layer_1-2">
		<path d="M1.6,1.6C0.2,2.9,0,7.3,0,34.4c0,22.9,0.3,31.5,1.2,32.4s9.6,1.2,33,1.2C65.3,68,66,68,66,66s-0.7-2-31-2H4V6.5l20.3,20.3
			C42.7,45.2,44.8,47,48,47s5.2-1.8,23.7-20.2L92,6.6v13.7c0,13,0.1,13.7,2,13.7s2-0.7,2-15.4c0-12.7-0.3-15.7-1.6-17S87.4,0,48,0
			S3,0.2,1.6,1.6z M68.9,23.5C58.2,34.2,48.7,43,47.9,43S37.7,34.2,27,23.5L7.5,4h81L68.9,23.5z"/>
		<path d="M82.5,42.5c-1.4,1.3-2.5,3.1-2.5,4c0,1.2-1.3,1.5-6,1.5c-5.3,0-6,0.2-6,2c-0.1,1,0.6,1.9,1.6,2c0.1,0,0.3,0,0.4,0
			c1.9,0,2,0.7,2,17.5c0,17.3,0,17.6,2.5,20C76.8,91.9,77.4,92,90,92s13.2-0.1,15.5-2.5c2.5-2.4,2.5-2.7,2.5-20
			c0-16.8,0.1-17.5,2-17.5c1,0.1,1.9-0.6,2-1.6c0-0.1,0-0.3,0-0.4c0-1.8-0.7-2-6-2c-4.7,0-6-0.3-6-1.5c0-0.9-1.1-2.7-2.5-4
			c-1.9-2-3.4-2.5-7.5-2.5S84.4,40.5,82.5,42.5z M94.6,45.7c1.7,1.7,1.6,1.8-1.4,2.1c-2.1,0.2-4.3,0.2-6.4,0c-3-0.3-3.1-0.4-1.4-2.1
			C88,43.4,92,43.4,94.6,45.7z M104,68.4c0,13.6-0.3,16.7-1.6,18S98.5,88,90,88s-11.2-0.3-12.4-1.6S76,82,76,68.4V52h28V68.4z"/>
		<path d="M80,70c0,13.3,0.1,14,2,14s2-0.7,2-14s-0.1-14-2-14S80,56.7,80,70z"/>
		<path d="M88,70c0,13.3,0.1,14,2,14s2-0.7,2-14s-0.1-14-2-14S88,56.7,88,70z"/>
		<path d="M96,70c0,13.3,0.1,14,2,14s2-0.7,2-14s-0.1-14-2-14S96,56.7,96,70z"/>
	</g>
</g>
</svg>
