<?xml version="1.0" encoding="utf-8"?>
<!-- Generator: Adobe Illustrator 22.1.0, SVG Export Plug-In . SVG Version: 6.00 Build 0)  -->
<svg version="1.1" id="Layer_1" xmlns="http://www.w3.org/2000/svg" xmlns:xlink="http://www.w3.org/1999/xlink" x="0px" y="0px"
	 viewBox="0 0 119.5 91.6" style="enable-background:new 0 0 119.5 91.6;" xml:space="preserve">
<title>letterplus</title>
<g id="Layer_2_1_">
	<g id="Layer_1-2">
		<path d="M1.6,1.6C0.2,2.9,0,7.3,0,34.4c0,22.9,0.3,31.5,1.2,32.4s9.4,1.2,32,1.2C63.3,68,64,68,64,66s-0.7-2-30-2H4V6.5l20.3,20.3
			C42.7,45.2,44.8,47,48,47s5.2-1.8,23.7-20.2L92,6.6v14.7c0,14,0.1,14.7,2,14.7s2-0.7,2-16.4c0-13.6-0.3-16.7-1.6-18S87.4,0,48,0
			S3,0.2,1.6,1.6z M68.9,23.5C58.2,34.2,48.7,43,47.9,43S37.7,34.2,27,23.5L7.5,4h81L68.9,23.5z"/>
		<path d="M85.5,41.3C73.6,46,67.3,55.8,68.2,67.9c0.5,9.3,6,17.6,14.4,21.7c5.4,2.6,17.4,2.6,22.8,0c9.5-4.7,14.1-12.5,14.1-23.6
			s-4.7-19-14.1-23.5C100.7,40.2,89.8,39.5,85.5,41.3z M101.1,45.5c8.2,2.9,14.9,12.2,14.9,20.6c0,4.6-2.9,11.3-6.7,15.1
			S98.8,88,94,88s-11.6-3-15.3-6.8S72,70.7,72,66.1c0-8.2,6.7-17.6,14.5-20.5C91.2,43.7,96.4,43.7,101.1,45.5z"/>
		<path d="M92,58v6h-6c-5.3,0-6,0.2-6,2s0.7,2,6,2h6v6c0,5.3,0.2,6,2,6s2-0.7,2-6v-6h6c5.3,0,6-0.2,6-2s-0.7-2-6-2h-6v-6
			c0-5.3-0.2-6-2-6S92,52.7,92,58z"/>
	</g>
</g>
</svg>
