<?xml version="1.0" encoding="utf-8"?>
<!-- Generator: Adobe Illustrator 22.1.0, SVG Export Plug-In . SVG Version: 6.00 Build 0)  -->
<svg version="1.1" id="Layer_1" xmlns="http://www.w3.org/2000/svg" xmlns:xlink="http://www.w3.org/1999/xlink" x="0px" y="0px"
	 viewBox="0 0 111.9 92" style="enable-background:new 0 0 111.9 92;" xml:space="preserve">
<title>lettermagnifyingglass</title>
<g id="Layer_2_1_">
	<g id="Layer_1-2">
		<path d="M1.6,1.6C0.2,2.9,0,7.3,0,34.4c0,22.9,0.3,31.5,1.2,32.4s9.6,1.2,33,1.2C65.3,68,66,68,66,66s-0.7-2-31-2H4V6.5l20.3,20.3
			C42.7,45.2,44.8,47,48,47s5.2-1.8,23.7-20.2L92,6.6v13.7c0,13,0.1,13.7,2,13.7s2-0.7,2-15.4c0-12.7-0.3-15.7-1.6-17S87.4,0,48,0
			S3,0.2,1.6,1.6z M68.9,23.5C58.2,34.2,48.7,43,47.9,43S37.7,34.2,27,23.5L7.5,4h81L68.9,23.5z"/>
		<path d="M83.5,41.9c-10,4.7-14.3,16.6-9.7,26.6c0,0,0,0.1,0.1,0.1l1.9,4.2l-7.9,7.8C60.2,88.3,58.2,92,61.8,92
			c0.9,0,5.3-3.6,9.6-7.9l7.8-7.9l4.2,1.9c10,4.7,21.9,0.5,26.6-9.5c0,0,0-0.1,0.1-0.1c3.5-7.5,1.6-17.9-4.2-23.2
			C99.7,40,91,38.6,83.5,41.9z M99,46.2c4.8,2.5,9,8.9,9,13.8s-4.2,11.3-9,13.7c-2.2,1.2-4.5,2-7,2.3c-2.5-0.3-4.8-1.1-7-2.3
			c-4.8-2.4-9-8.8-9-13.7s4.2-11.3,9-13.8c2.2-1.1,4.6-1.9,7-2.2C94.4,44.3,96.8,45.1,99,46.2z"/>
	</g>
</g>
</svg>
