<?xml version="1.0" encoding="utf-8"?>
<!-- Generator: Adobe Illustrator 22.1.0, SVG Export Plug-In . SVG Version: 6.00 Build 0)  -->
<svg version="1.1" id="Layer_1" xmlns="http://www.w3.org/2000/svg" xmlns:xlink="http://www.w3.org/1999/xlink" x="0px" y="0px"
	 viewBox="0 0 108 108.1" style="enable-background:new 0 0 108 108.1;" xml:space="preserve">
<title>links</title>
<g id="Layer_2_1_">
	<g id="Layer_1-2">
		<path d="M82.3,1.6C78.5,3.2,62.4,18.4,58.6,24c-3.3,4.7-4.5,12.7-2.3,15.5c1.9,2.6,4.1,1.1,3.3-2.4c-1.1-5.8,1-9.2,12.6-20.7
			c9-8.8,12.1-11.3,15-11.8c10.3-1.9,19.1,7.9,15.9,17.7c-0.7,2.1-5.2,7.5-11.9,14.1C80.1,47.4,76.6,49.6,71,48.5
			c-3.5-0.8-5,1.4-2.4,3.3c2.8,2.2,10.8,1,15.6-2.3c6.5-4.5,21.5-20.9,22.8-25C112,9.3,96.9-4.8,82.3,1.6z"/>
		<path d="M53.4,51.2c-11.9,11.8-22,22.1-22.5,23c-0.6,1-0.3,2.3,0.7,3c0,0,0,0,0,0c1.3,1,4.7-2,23-20.2c11.9-11.8,22-22.1,22.5-23
			c0.6-1,0.3-2.3-0.7-3c0,0,0,0,0,0C75.1,30,71.7,33,53.4,51.2z"/>
		<path d="M28.1,56.3C23.2,57.7,2.8,78.2,1,83.5c-5,15.3,9.7,29.3,24.5,23.2C29.4,105,45.4,90,49.4,84.2c3.3-4.7,4.5-12.7,2.3-15.5
			c-1.9-2.6-4.1-1.1-3.3,2.4c1.1,5.8-1,9.2-12.6,20.7c-9,8.8-12.1,11.3-15,11.8c-10.3,1.9-19.1-7.9-15.9-17.7
			c0.7-2.1,5.2-7.5,11.9-14.1c11.1-11,14.6-13.2,20.2-12.1c3.5,0.7,5.1-1.4,2.5-3.3C37.4,54.9,33,54.8,28.1,56.3z"/>
	</g>
</g>
</svg>
