<?xml version="1.0" encoding="utf-8"?>
<!-- Generator: Adobe Illustrator 22.1.0, SVG Export Plug-In . SVG Version: 6.00 Build 0)  -->
<svg version="1.1" id="Layer_1" xmlns="http://www.w3.org/2000/svg" xmlns:xlink="http://www.w3.org/1999/xlink" x="0px" y="0px"
	 viewBox="0 0 104 103.8" style="enable-background:new 0 0 104 103.8;" xml:space="preserve">
<title>link2</title>
<g id="Layer_2_1_">
	<g id="Layer_1-2">
		<path d="M73.1,1c-2.4,0.7-7.8,5.3-17.9,15.1c-7.9,7.8-15.3,15.7-16.4,17.5c-2.9,4.6-3.5,14-1.4,19.6c2.9,7.5,14.4,16.1,19.1,14.2
			c2.8-1,1.5-3.3-2.5-4.5c-7.4-2.2-13.9-10.2-14-17.1c0-7.2,2-10.3,15.9-24.3C63.4,13.9,70.7,7,72.1,6.2c9.3-4.8,20.7-1.2,25.5,8.1
			c0.2,0.3,0.3,0.7,0.5,1c2.1,4.6,2.3,7.5,0.8,13c-0.9,3.1-4,6.9-14,17C73,57.4,69.9,61.8,73.3,61.8c0.8,0,7.5-6.2,14.9-13.8
			C102.7,33.3,104,31.1,104,21.8c-0.1-8.4-6.1-17.1-14.2-20.4C85.7-0.4,78.3-0.5,73.1,1z"/>
		<path d="M46.7,36.5c-1.6,1.5-0.4,3.1,3.3,4.2c7.4,2.2,13.9,10.2,14,17.1c0,7.2-2,10.3-15.9,24.3c-7.5,7.6-14.8,14.5-16.2,15.3
			c-9.3,4.8-20.7,1.2-25.5-8.1c-0.2-0.3-0.3-0.7-0.5-1c-2.1-4.6-2.3-7.5-0.8-13c0.9-3.1,4-6.9,14-17c11.9-12.1,15-16.5,11.6-16.5
			c-0.8,0-7.5,6.2-14.9,13.8C1.4,70.2,0,72.5,0,81.6c0,11.6,10.4,22.1,22,22.2c9.4,0,11.5-1.3,26.8-16.4
			c7.9-7.7,15.3-15.6,16.4-17.4c2.5-4.1,3.5-13.6,1.8-18.7C64.2,42.9,50.4,32.8,46.7,36.5z"/>
	</g>
</g>
</svg>
