<?xml version="1.0" encoding="utf-8"?>
<!-- Generator: Adobe Illustrator 22.1.0, SVG Export Plug-In . SVG Version: 6.00 Build 0)  -->
<svg version="1.1" id="Layer_1" xmlns="http://www.w3.org/2000/svg" xmlns:xlink="http://www.w3.org/1999/xlink" x="0px" y="0px"
	 viewBox="0 0 95.5 95.8" style="enable-background:new 0 0 95.5 95.8;" xml:space="preserve">
<title>magnifyingglass</title>
<g id="Layer_2_1_">
	<g id="Layer_1-2">
		<path d="M27,1C15.7,4.8,7.9,11.6,3.1,21.8C0.3,27.6,0,29.1,0,37.8s0.3,10.1,3.1,16c3.7,8.1,10.3,14.7,18.4,18.4
			c5.9,2.8,7.4,3.1,16.1,3.1c9,0,9.9-0.2,17-3.7l7.4-3.7l14,13.9l14,14l2.8-2.7l2.7-2.8l-14-14l-13.9-14l3.7-7.4
			c3.5-7.1,3.7-8,3.7-17c0-8.7-0.3-10.2-3.1-16.1C65.6,8.4,53.7,0.6,39,0.1C34.2-0.2,29.4,0.2,27,1z M46.5,5.4
			c12.8,3.8,21.4,13.2,24.2,26.7c2.1,10-1.5,21.2-9.4,29.3c-7.6,7.8-19.4,11.7-29.4,9.6C17.3,68,7.3,58,4.3,43.5
			c-2-9.5,1.4-21,8.5-28.6C21.8,5.3,34.5,1.8,46.5,5.4z"/>
	</g>
</g>
</svg>
