<?xml version="1.0" encoding="utf-8"?>
<!-- Generator: Adobe Illustrator 22.1.0, SVG Export Plug-In . SVG Version: 6.00 Build 0)  -->
<svg version="1.1" id="Layer_1" xmlns="http://www.w3.org/2000/svg" xmlns:xlink="http://www.w3.org/1999/xlink" x="0px" y="0px"
	 viewBox="0 0 108 104" style="enable-background:new 0 0 108 104;" xml:space="preserve">
<title>chatAsset 3</title>
<g id="Layer_2_1_">
	<g id="Layer_1-2">
		<path d="M2.5,2.5L0,4.9v36.9C0,86.6-1.1,83.3,13.7,84l9.8,0.5l0.3,9.7c0.2,8.1,0.5,9.8,1.8,9.8c0.9,0,6.5-4.5,12.5-10L49,84h54.1
			l2.4-2.5l2.5-2.4V4.9l-2.5-2.4L103.1,0H4.9L2.5,2.5z M102.4,5.6c1.4,1.3,1.6,6,1.6,36.4s-0.2,35.1-1.6,36.4S97.1,80,73.9,80H47
			l-9.5,8.6L28,97.2v-6.8C28,80.8,27,80,15.9,80c-6.6,0-9.1-0.4-10.3-1.6C4.2,77.1,4,72.4,4,42S4.2,6.9,5.6,5.6S12.7,4,54,4
			S101,4.2,102.4,5.6z"/>
		<path d="M52,30v10H42c-9.3,0-10,0.1-10,2s0.7,2,10,2h10v10c0,9.3,0.1,10,2,10s2-0.7,2-10V44h10c9.3,0,10-0.1,10-2s-0.7-2-10-2H56
			V30c0-9.3-0.1-10-2-10S52,20.7,52,30z"/>
	</g>
</g>
</svg>
