<?xml version="1.0" encoding="utf-8"?>
<!-- Generator: Adobe Illustrator 22.1.0, SVG Export Plug-In . SVG Version: 6.00 Build 0)  -->
<svg version="1.1" id="Layer_1" xmlns="http://www.w3.org/2000/svg" xmlns:xlink="http://www.w3.org/1999/xlink" x="0px" y="0px"
	 viewBox="0 0 108 104" style="enable-background:new 0 0 108 104;" xml:space="preserve">
<title>chatAsset 4</title>
<g id="Layer_2_1_">
	<g id="Layer_1-2">
		<path d="M41.7,1.8C40.3,3.3,40,6,40,17.8C40,31.3,40.1,32,42,32s2-0.8,2.2-13.8l0.3-13.7h59v43l-4.7,0.3c-2.5,0.2-5.1,0.9-5.7,1.5
			s-1.1,3.6-1.3,6.5L91.5,61L84,54.5c-7.8-6.7-12-8.3-12-4.5c0,1.1,0.5,2,1.1,2s5.3,3.6,10.5,8s10,8,10.9,8c1.2,0,1.5-1.5,1.5-8v-8
			h4.3c7.6,0,7.7-0.3,7.7-26.2c0-20.5-0.2-22.6-1.8-24.1S100.8,0,73.8,0C45.5,0,43.2,0.1,41.7,1.8z"/>
		<path d="M1.7,37.8C0.2,39.4,0,42.6,0,62.2C0,87.8,0.1,88,7.8,88H12v8c0,6.5,0.3,8,1.5,8c0.9,0,5.8-3.6,10.9-8l9.4-8h15.4
			c13.7,0,15.7-0.2,17.1-1.8S68,81.4,68,61.8c0-20.5-0.2-22.6-1.8-24.1S60.8,36,33.8,36C5.5,36,3.2,36.1,1.7,37.8z M63.5,62v21.5
			l-15.9,0.3l-15.9,0.3l-7.6,6.4L16.5,97l-0.3-5.2c-0.2-2.9-0.8-5.8-1.3-6.5s-3.2-1.3-5.7-1.5l-4.7-0.3L4.2,63
			c-0.1-11.2,0-21,0.3-21.7c0.3-1.1,6.5-1.3,29.7-1.1l29.3,0.3V62z"/>
	</g>
</g>
</svg>
