<?xml version="1.0" encoding="utf-8"?>
<!-- Generator: Adobe Illustrator 22.1.0, SVG Export Plug-In . SVG Version: 6.00 Build 0)  -->
<svg version="1.1" id="Layer_1" xmlns="http://www.w3.org/2000/svg" xmlns:xlink="http://www.w3.org/1999/xlink" x="0px" y="0px"
	 viewBox="0 0 108 104" style="enable-background:new 0 0 108 104;" xml:space="preserve">
<title>chatAsset 5</title>
<g id="Layer_2_1_">
	<g id="Layer_1-2">
		<path d="M1.7,1.8C0.2,3.4,0,6.6,0,26.2C0,51.8,0.1,52,7.8,52H12v8c0,6.5,0.3,8,1.5,8c0.9,0,5.8-3.6,10.9-8l9.4-8h15.4
			c13.7,0,15.7-0.2,17.1-1.8S68,45.4,68,25.8c0-20.5-0.2-22.6-1.8-24.1S60.8,0,33.8,0C5.5,0,3.2,0.1,1.7,1.8z M63.5,26v21.5
			l-15.9,0.3l-15.9,0.3l-7.6,6.4L16.5,61l-0.3-5.2c-0.2-2.9-0.8-5.8-1.3-6.5s-3.2-1.3-5.7-1.5l-4.7-0.3L4.2,27
			C4.1,15.8,4.2,6,4.5,5.3C4.8,4.2,11,4,34.2,4.2l29.3,0.3V26z"/>
		<path d="M26.3,13.6c-3.9,2-6.3,6.8-6.3,12.9c0,5.7,2.1,10,6,12c3.3,1.7,12.2,2,15,0.5c1.3-0.7,2.1-0.7,2.5,0
			c1.1,1.8,4.5,1.1,4.5-0.9c0-1-0.3-1.9-1-2.6c-0.7-0.4-0.7-1.2,0-2.5c1.5-2.8,1.2-11.7-0.5-15c-1.1-1.8-2.7-3.4-4.5-4.5
			C38.3,11.6,30.4,11.6,26.3,13.6z M39.3,17.1c3,1.4,4.7,4.8,4.7,9.4c0,3.9-1.2,5.1-3,3s-5-1.9-5,0.4c0.1,1.2,0.6,2.3,1.5,3.1
			c2.1,1.8,0.9,3-3,3C27.8,36,24,32.5,24,26.2C24.1,18.4,31.9,13.7,39.3,17.1z"/>
		<path d="M72,38c0,1.8,0.8,2,15.8,2.2l15.7,0.3v43l-4.7,0.3c-2.5,0.2-5.1,0.9-5.7,1.5s-1.1,3.6-1.3,6.5L91.5,97l-7.6-6.5l-7.6-6.4
			l-15.9-0.3l-15.9-0.3l-0.3-13.8C44,56.8,43.8,56,42,56s-2,0.7-2,14.3C40,89,38.9,88,58.9,88h15.3l9.4,8c5.1,4.4,10,8,10.9,8
			c1.2,0,1.5-1.5,1.5-8v-8h4.3c7.6,0,7.7-0.3,7.7-26.2c0-20.5-0.2-22.6-1.8-24.1s-4.4-1.7-18-1.7C72.7,36,72,36.1,72,38z"/>
		<path d="M66.2,60.5c-3.4,6.9-6.2,13.2-6.2,14c0,3.2,3.7,1.5,5.5-2.5l1.8-4h13.4l1.8,4c1.8,4,5.5,5.7,5.5,2.5
			C88,71.6,75.6,48,74,48C73,48,70.2,52.6,66.2,60.5z M76.3,59.5c0.9,2,1.7,3.8,1.7,4S76.2,64,74,64s-4-0.2-4-0.5
			c0-1.1,3.4-7.5,4-7.5C74.3,56,75.4,57.6,76.3,59.5z"/>
	</g>
</g>
</svg>
