<?xml version="1.0" encoding="utf-8"?>
<!-- Generator: Adobe Illustrator 22.1.0, SVG Export Plug-In . SVG Version: 6.00 Build 0)  -->
<svg version="1.1" id="Layer_1" xmlns="http://www.w3.org/2000/svg" xmlns:xlink="http://www.w3.org/1999/xlink" x="0px" y="0px"
	 viewBox="0 0 100 20" style="enable-background:new 0 0 100 20;" xml:space="preserve">
<title>nativeAsset 4</title>
<g id="Layer_2_1_">
	<g id="Layer_1-2">
		<path d="M3.4,3.4C1,5.8,0,7.7,0,10c0,4.4,5.6,10,10,10s10-5.6,10-10S14.4,0,10,0C7.7,0,5.9,0.9,3.4,3.4z"/>
		<path d="M43.4,3.4C41,5.8,40,7.7,40,10c0,4.4,5.6,10,10,10s10-5.6,10-10S54.4,0,50,0C47.7,0,45.9,0.9,43.4,3.4z"/>
		<path d="M83.4,3.4C81,5.8,80,7.7,80,10c0,4.4,5.6,10,10,10s10-5.6,10-10S94.4,0,90,0C87.7,0,85.9,0.9,83.4,3.4z"/>
	</g>
</g>
</svg>
