<?xml version="1.0" encoding="utf-8"?>
<!-- Generator: Adobe Illustrator 22.1.0, SVG Export Plug-In . SVG Version: 6.00 Build 0)  -->
<svg version="1.1" id="Layer_1" xmlns="http://www.w3.org/2000/svg" xmlns:xlink="http://www.w3.org/1999/xlink" x="0px" y="0px"
	 viewBox="0 0 91.9 91.8" style="enable-background:new 0 0 91.9 91.8;" xml:space="preserve">
<title>notepad</title>
<g id="Layer_2_1_">
	<g id="Layer_1-2">
		<path d="M80.2,2.2L78,4.4l4.3,4.2c4.8,4.7,5.7,5,8,2.4c2.5-2.7,2.1-4.4-1.6-8C84.8-0.8,83.1-0.9,80.2,2.2z"/>
		<path d="M53.7,28.6L32,50.3v9.5h9.5L63.3,38C75.2,26.1,85,15.8,85,15c-0.2-0.9-0.8-1.6-1.6-1.9c-1.1-0.4-7.5,5.3-22.5,20.3
			C44.3,50,39.8,54,38.8,53s3-5.5,19.6-22.1c15-15,20.7-21.4,20.3-22.5c-0.3-0.8-1-1.4-1.9-1.6C76.1,6.8,65.7,16.6,53.7,28.6z"/>
		<path d="M0,53.8v38h76v-29c0-28.3,0-29-2-29s-2,0.7-2,27v27H4v-68h27c26.3,0,27,0,27-2s-0.7-2-29-2H0V53.8z"/>
	</g>
</g>
</svg>
