<?xml version="1.0" encoding="utf-8"?>
<!-- Generator: Adobe Illustrator 22.1.0, SVG Export Plug-In . SVG Version: 6.00 Build 0)  -->
<svg version="1.1" id="Layer_1" xmlns="http://www.w3.org/2000/svg" xmlns:xlink="http://www.w3.org/1999/xlink" x="0px" y="0px"
	 viewBox="0 0 56 56" style="enable-background:new 0 0 56 56;" xml:space="preserve">
<style type="text/css">
	.st0{fill:none;stroke:#666666;stroke-width:2;stroke-linecap:round;stroke-linejoin:round;}
</style>
<title>Asset 10</title>
<g id="Layer_2_1_">
	<g id="_64px">
		<g id="Outline">
			<g id="Construction">
				<g id="paint_brushes">
					<circle class="st0" cx="15" cy="7" r="2"/>
					<path class="st0" d="M9,7c0,5,3,9,3,16c0,2.2-1.8,4-4,4H3c-1.1,0-2,0.9-2,2v6h28v-6c0-1.1-0.9-2-2-2h-5c-2.2,0-4-1.8-4-4
						c0-7,3-11,3-16c0-3.3-2.7-6-6-6S9,3.7,9,7z"/>
					<path class="st0" d="M29,35v18c0,1.1-0.9,2-2,2H3c-1.1,0-2-0.9-2-2V35"/>
					<line class="st0" x1="7" y1="55" x2="7" y2="47"/>
					<line class="st0" x1="11" y1="55" x2="11" y2="43"/>
					<line class="st0" x1="23" y1="55" x2="23" y2="45"/>
					<line class="st0" x1="17" y1="55" x2="17" y2="51"/>
					<circle class="st0" cx="46" cy="48" r="1"/>
					<path class="st0" d="M41,49c0-5,2-9,2-16c0-2-1-4-3-4h-1c-1.1,0-2-0.9-2-2v-6h18v6c0,1.1-0.9,2-2,2h-1c-2,0-3,2-3,4
						c0,7,2,11,2,16c0,3.3-1.7,6-5,6S41,52.3,41,49z"/>
					<path class="st0" d="M37,21V3c0-1.1,0.9-2,2-2h14c1.1,0,2,0.9,2,2v18"/>
					<line class="st0" x1="45" y1="1" x2="45" y2="11"/>
					<line class="st0" x1="41" y1="1" x2="41" y2="7"/>
					<line class="st0" x1="51" y1="1" x2="51" y2="7"/>
				</g>
			</g>
		</g>
	</g>
</g>
</svg>
