<svg xmlns="http://www.w3.org/2000/svg" xmlns:xlink="http://www.w3.org/1999/xlink" version="1.1" x="0px" y="0px" viewBox="0 0 128 128" style="enable-background:new 0 0 128 128;" xml:space="preserve"><g><g><path d="M112.7,7.2c-5-5.3-13.3-5.5-18.5-0.4L17.2,83c-0.3,0.3-0.6,0.8-0.8,1.2L3.2,120.5c-0.4,1.2-0.2,2.5,0.7,3.4    c0.6,0.7,1.5,1,2.4,1c0.3,0,0.6,0,1-0.1l32.8-10.1c0.5-0.2,1-0.4,1.4-0.8l79.7-79.1c5-4.9,5.2-12.9,0.4-18L112.7,7.2z M36.3,108.9    L24,112.7c-1.4-1.4-6.8-7.3-7.8-8.7l5.6-15.5h7.6v6.6c0,1.8,1.5,3.3,3.3,3.3h5.8L36.3,108.9z"></path></g></g></svg>