<?xml version="1.0" encoding="utf-8"?>
<!-- Generator: Adobe Illustrator 22.1.0, SVG Export Plug-In . SVG Version: 6.00 Build 0)  -->
<svg version="1.1" id="Layer_1" xmlns="http://www.w3.org/2000/svg" xmlns:xlink="http://www.w3.org/1999/xlink" x="0px" y="0px"
	 viewBox="0 0 116 120.2" style="enable-background:new 0 0 116 120.2;" xml:space="preserve">
<title>timeAsset 1</title>
<g id="Layer_2_1_">
	<g id="Layer_1-2">
		<path d="M17.8,1.7c-5.4,2.9-7.3,10.6-4.2,16.7c1.1,2,1.3,3.2,0.6,3.5C8.1,23.9,0,34.9,0,41.3c0,4.2,3.5,3.9,4.4-0.4
			c0.7-2.6,1.7-5.1,3.1-7.4c2.9-4.9,10.8-9.4,16.4-9.4c4.2,0,10.6,2.8,14,6c2.6,2.5,6,9.5,6.1,12.2c0,1,0.8,1.8,1.8,1.8
			c0.1,0,0.2,0,0.2,0c5,0-0.3-14.1-7.2-19c-1.6-1.2-3.2-2.3-5-3.2c-0.7-0.3-0.5-1.5,0.6-3.5C40.2,7.1,28.8-4.3,17.8,1.7z M29.1,7
			c1.6,1.6,2.9,3.9,2.9,5.1c0,2.8-5.2,8-8,8s-8-5.2-8-8s5.2-8,8-8C25.2,4.1,27.5,5.4,29.1,7z"/>
		<path d="M85.8,1.7c-5.4,2.9-7.3,10.6-4.2,16.7c1.1,2,1.3,3.2,0.6,3.5c-6.1,2-14.2,13-14.2,19.4c0,4.2,3.5,3.9,4.4-0.4
			c0.7-2.6,1.7-5.1,3.1-7.4c2.9-4.9,10.8-9.4,16.4-9.4c4.2,0,10.6,2.8,14,6c2.6,2.5,6,9.5,6.1,12.2c0,1,0.8,1.8,1.8,1.8
			c0.1,0,0.2,0,0.2,0c5,0-0.3-14.1-7.2-19c-1.6-1.2-3.2-2.3-5-3.2c-0.7-0.3-0.5-1.5,0.6-3.5C108.2,7.1,96.8-4.3,85.8,1.7z M97.1,7
			c1.6,1.6,2.9,3.9,2.9,5.1c0,2.8-5.2,8-8,8s-8-5.2-8-8s5.2-8,8-8C93.2,4.1,95.5,5.4,97.1,7z"/>
		<path d="M42,47.8c0,1.2,2.5,3.2,7,5.7l7,4v7.3c0,6.6,0.2,7.3,2,7.3s2-0.7,2-7.3v-7.3l7-4c4.5-2.5,7-4.5,7-5.7
			c0-2.6-2.5-2.1-9.1,1.8c-3.3,1.9-6.4,3.5-6.9,3.5s-3.6-1.6-6.9-3.5C44.5,45.7,42,45.2,42,47.8z"/>
		<path d="M51.8,77.7c-5.4,2.9-7.3,10.6-4.2,16.7c1.1,2,1.3,3.2,0.6,3.5c-6.1,2-14.2,13-14.2,19.4c0,4.2,3.5,3.9,4.4-0.4
			c0.7-2.6,1.7-5.1,3.1-7.4c2.9-4.9,10.8-9.4,16.4-9.4c4.2,0,10.6,2.8,14,6c2.6,2.5,6,9.5,6.1,12.2c0,1,0.8,1.8,1.8,1.8
			c0.1,0,0.2,0,0.2,0c5,0-0.3-14.1-7.2-19c-1.6-1.2-3.2-2.3-5-3.2c-0.7-0.3-0.5-1.5,0.6-3.5C74.2,83.1,62.8,71.7,51.8,77.7z
			 M63.1,83c1.6,1.6,2.9,3.9,2.9,5.1c0,2.8-5.2,8-8,8s-8-5.2-8-8s5.2-8,8-8C59.2,80.1,61.5,81.4,63.1,83z"/>
	</g>
</g>
</svg>
