<?xml version="1.0" encoding="utf-8"?>
<!-- Generator: Adobe Illustrator 22.1.0, SVG Export Plug-In . SVG Version: 6.00 Build 0)  -->
<svg version="1.1" id="Layer_1" xmlns="http://www.w3.org/2000/svg" xmlns:xlink="http://www.w3.org/1999/xlink" x="0px" y="0px"
	 viewBox="0 0 108 120.2" style="enable-background:new 0 0 108 120.2;" xml:space="preserve">
<title>timeAsset 2</title>
<g id="Layer_2_1_">
	<g id="Layer_1-2">
		<path d="M47.8,1.7c-5.4,2.9-7.3,10.6-4.2,16.7c1.1,2,1.3,3.2,0.6,3.5c-6.1,2-14.2,13-14.2,19.4c0,4.2,3.5,3.9,4.4-0.4
			c0.7-2.6,1.7-5.1,3.1-7.4c2.9-4.9,10.8-9.4,16.4-9.4c4.2,0,10.6,2.8,14,6c2.6,2.5,6,9.5,6.1,12.2c0,1,0.8,1.8,1.8,1.8
			c0.1,0,0.2,0,0.2,0c5,0-0.3-14.1-7.2-19c-1.6-1.2-3.2-2.3-5-3.2c-0.7-0.3-0.5-1.5,0.6-3.5C70.2,7.1,58.8-4.3,47.8,1.7z M59.1,7
			c1.6,1.6,2.9,3.9,2.9,5.1c0,2.8-5.2,8-8,8s-8-5.2-8-8s5.2-8,8-8C55.2,4.1,57.5,5.4,59.1,7z"/>
		<path d="M52,54.1v6H24v6c0,5.3,0.2,6,2,6s2-0.7,2-4v-4h52v4c0,3.3,0.3,4,2,4s2-0.7,2-6v-6H56v-6c0-5.3-0.2-6-2-6S52,48.8,52,54.1z
			"/>
		<path d="M17.8,77.7c-5.4,2.9-7.3,10.6-4.2,16.7c1.1,2,1.3,3.2,0.6,3.5c-6.1,2-14.2,13-14.2,19.4c0,4.2,3.5,3.9,4.4-0.4
			c0.7-2.6,1.7-5.1,3.1-7.4c2.9-4.9,10.8-9.4,16.4-9.4c4.2,0,10.6,2.8,14,6c2.6,2.5,6,9.5,6.1,12.2c0,1,0.8,1.8,1.8,1.8
			c0.1,0,0.2,0,0.2,0c5,0-0.3-14.1-7.2-19c-1.6-1.2-3.2-2.3-5-3.2c-0.7-0.3-0.5-1.5,0.6-3.5C40.2,83.1,28.8,71.7,17.8,77.7z
			 M29.1,83c1.6,1.6,2.9,3.9,2.9,5.1c0,2.8-5.2,8-8,8s-8-5.2-8-8s5.2-8,8-8C25.2,80.1,27.5,81.4,29.1,83z"/>
		<path d="M77.8,77.7c-5.4,2.9-7.3,10.6-4.2,16.7c1.1,2,1.3,3.2,0.6,3.5c-6.1,2-14.2,13-14.2,19.4c0,4.2,3.5,3.9,4.4-0.4
			c0.7-2.6,1.7-5.1,3.1-7.4c2.9-4.9,10.8-9.4,16.4-9.4c4.2,0,10.6,2.8,14,6c2.6,2.5,6,9.5,6.1,12.2c0,1,0.8,1.8,1.8,1.8
			c0.1,0,0.2,0,0.2,0c5,0-0.3-14.1-7.2-19c-1.6-1.2-3.2-2.3-5-3.2c-0.7-0.3-0.5-1.5,0.6-3.5C100.2,83.1,88.8,71.7,77.8,77.7z
			 M89.1,83c1.6,1.6,2.9,3.9,2.9,5.1c0,2.8-5.2,8-8,8s-8-5.2-8-8s5.2-8,8-8C85.2,80.1,87.5,81.4,89.1,83z"/>
	</g>
</g>
</svg>
