<?xml version="1.0" encoding="utf-8"?>
<!-- Generator: Adobe Illustrator 22.1.0, SVG Export Plug-In . SVG Version: 6.00 Build 0)  -->
<svg version="1.1" id="Layer_1" xmlns="http://www.w3.org/2000/svg" xmlns:xlink="http://www.w3.org/1999/xlink" x="0px" y="0px"
	 viewBox="0 0 108 108" style="enable-background:new 0 0 108 108;" xml:space="preserve">
<title>timeAsset 4</title>
<g id="Layer_2_1_">
	<g id="Layer_1-2">
		<path d="M42.5,2.5C40,4.9,40,5.2,40,22s0,17.1,2.5,19.5c2,2.1,3.4,2.5,8,2.5H56v6c0,4.9,0.3,6,1.6,6c0.9,0,4.7-2.7,8.4-6l6.8-6
			h15.1c14.8,0,15.3-0.1,17.6-2.5c2.5-2.4,2.5-2.7,2.5-19.5s0-17.1-2.5-19.5L103.1,0H44.9L42.5,2.5z M102.4,5.6
			c1.3,1.3,1.6,4.2,1.6,16.4s-0.3,15.1-1.6,16.4S98.2,40,85.8,40h-15l-5.1,4.5L60.5,49l-0.3-4.5L59.9,40h-6.4c-9.4,0-9.5-0.2-9.5-18
			c0-12.2,0.3-15.1,1.6-16.4S50.9,4,74,4S101.1,4.2,102.4,5.6z"/>
		<path d="M56,14c0,1.9,0.7,2,18,2s18-0.1,18-2s-0.7-2-18-2S56,12.1,56,14z"/>
		<path d="M56,22c0,1.9,0.7,2,18,2s18-0.1,18-2s-0.7-2-18-2S56,20.1,56,22z"/>
		<path d="M56,30c0,1.9,0.7,2,14,2s14-0.1,14-2s-0.7-2-14-2S56,28.1,56,30z"/>
		<path d="M26.5,30.4c-8.6,8.4-8.8,22.2-0.4,30.8c2.1,2.3,3.8,4.2,3.7,4.2l-7,3.4c-12.5,6.3-21,18.6-22.5,32.5
			c-0.5,6.3-0.5,6.7,1.4,6.7c1.7,0,2.1-0.9,2.7-6c0.9-7.7,6.4-18.6,11.7-23.5c3.3-2.7,6.9-5,10.8-6.9c5.8-2.7,7.7-3.1,15.1-3.1
			s9.3,0.4,15.1,3.1c3.9,1.9,7.5,4.2,10.8,6.9c5.3,4.9,10.8,15.8,11.7,23.5c0.6,5.1,1,6,2.7,6c1.9,0,1.9-0.4,1.4-6.8
			c-1.3-13.9-11.3-27.8-24.1-33.3C54.5,65.7,52.5,64,55,64c0.6,0,1-0.9,1-2c0-2.5-2.2-2.6-5.7-0.3c-4,2.6-12.9,2.4-17.5-0.5
			C21.7,54.4,21.6,37.7,32.6,31c4-2.6,4.5-5,0.9-5C31.8,26,29.4,27.5,26.5,30.4z"/>
	</g>
</g>
</svg>
