<?xml version="1.0" encoding="utf-8"?>
<!-- Generator: Adobe Illustrator 22.1.0, SVG Export Plug-In . SVG Version: 6.00 Build 0)  -->
<svg version="1.1" id="Layer_1" xmlns="http://www.w3.org/2000/svg" xmlns:xlink="http://www.w3.org/1999/xlink" x="0px" y="0px"
	 viewBox="0 0 108 111.9" style="enable-background:new 0 0 108 111.9;" xml:space="preserve">
<title>plane</title>
<g id="Layer_2_1_">
	<g id="Layer_1-2">
		<path d="M52.3,32.2C19.4,52.5,0.1,65,0,66c0,1.2,5,3.2,20,7.9l20,6.4v15.8c0,20.3,0.6,20.5,11,3.7c4.1-6.7,7.9-12.3,8.5-12.5
			s7.4,1.6,15.2,4.1c13,4.1,17.3,5.2,17.3,4.1c0-0.3,3.6-21.1,8-46.4s8-46.6,8-47.5c0-0.9-0.6-1.6-1.5-1.6c-0.1,0-0.1,0-0.2,0
			C105.3,0,81,14.5,52.3,32.2z M95.4,50.5c-3.7,21.4-7,39.2-7.3,39.6s-10-2.3-21.4-6l-20.8-6.7l27.7-33.3
			c15.3-18.2,27.9-33,28.1-32.8S99.1,29.2,95.4,50.5z M68.9,43.1C55.1,59.8,43.2,74,42.5,74.7c-1,1.1-4.2,0.4-17.9-3.9
			c-11-3.5-16.3-5.6-15.6-6.3c1.5-1.5,84.5-52.4,84.8-52.1S82.8,26.4,68.9,43.1z M52.1,84.2l2.8,1.2l-5.4,8.5l-5.5,8.5V81.7l2.6,0.6
			C48.5,82.8,50.3,83.4,52.1,84.2z"/>
	</g>
</g>
</svg>
