<?xml version="1.0" encoding="utf-8"?>
<!-- Generator: Adobe Illustrator 22.1.0, SVG Export Plug-In . SVG Version: 6.00 Build 0)  -->
<svg version="1.1" id="Layer_1" xmlns="http://www.w3.org/2000/svg" xmlns:xlink="http://www.w3.org/1999/xlink" x="0px" y="0px"
	 viewBox="0 0 100 108" style="enable-background:new 0 0 100 108;" xml:space="preserve">
<title>present</title>
<g id="Layer_2_1_">
	<g id="Layer_1-2">
		<path d="M17.4,1.9c-5,3-6.7,10-3.9,16.3c0.6,1.6,0.1,1.8-3.9,1.8c-3.6,0-5.2,0.6-7.1,2.5C0.2,24.7,0,25.7,0,34.5S0.1,44,2,44
			s2,0.7,2,29.5v29.6l2.5,2.4l2.4,2.5h82.2l2.4-2.5l2.5-2.4V73.5C96,44.7,96,44,98,44s2-0.7,2-9.5s-0.2-9.8-2.5-12
			C95.6,20.6,94,20,90.4,20c-4,0-4.5-0.2-3.8-1.8C90.5,9.3,85.1,0,76,0c-4.4,0-6.3,1.2-16.7,10.7L50,19.2l-9.2-8.5
			c-3.7-3.4-7.5-6.6-11.5-9.6C26.1-0.6,20.9-0.2,17.4,1.9z M27.6,5.3c3.3,2.4,6.5,5.1,9.5,7.9l7.3,6.8H33.1c-11.1,0-11.3,0-14.2-2.9
			C17.3,15.5,16,13.2,16,12c0-2.6,5.2-8,7.7-8C25.1,4.2,26.4,4.6,27.6,5.3z M81.1,6.9C82.7,8.5,84,10.8,84,12s-1.3,3.5-2.9,5.1
			C78.2,20,78,20,66.9,20H55.6l7.3-6.8C74.3,2.8,76.3,2.1,81.1,6.9z M48,32v8H4v-6.4C4,23.8,3.4,24,27.6,24H48V32z M94.4,25.6
			c1.1,1.1,1.6,3.5,1.6,8V40H52V24h20.4C89.7,24,93.1,24.2,94.4,25.6z M48,74v30H29.6c-15.4,0-18.7-0.3-20-1.6S8,96.9,8,72.4V44h40
			V74z M92,72.4c0,24.5-0.2,28.7-1.6,30s-4.6,1.6-20,1.6H52V44h40V72.4z"/>
	</g>
</g>
</svg>
