<?xml version="1.0" encoding="utf-8"?>
<!-- Generator: Adobe Illustrator 22.1.0, SVG Export Plug-In . SVG Version: 6.00 Build 0)  -->
<svg version="1.1" id="Layer_1" xmlns="http://www.w3.org/2000/svg" xmlns:xlink="http://www.w3.org/1999/xlink" x="0px" y="0px"
	 viewBox="0 0 100 100" style="enable-background:new 0 0 100 100;" xml:space="preserve">
<title>profile</title>
<g id="Layer_2_1_">
	<g id="Layer_1-2">
		<path d="M37.1,1.6C15.3,7.6,0.2,27.4,0,50c0.1,27.6,22.4,49.9,50,50c44.3,0,66.7-53.9,35.3-85.3C72.6,2.2,54.4-2.8,37.1,1.6z
			 M60.5,5.5c23.1,6.1,38.6,28.8,34.8,51.2c-1.4,7.8-6.9,19.6-11.1,23.6l-3,2.9L73.9,81c-11.9-3.6-11.5-3.4-12.2-8.2
			c-0.5-3.3-0.2-4.9,1.2-6.8c1.3-2.2,2.2-4.5,2.6-7c0.4-2.5,1.5-5,2.4-5.7c1.4-1,1.6-3.4,1.5-16.2L69.3,22l-2.8-3
			C57.7,9.9,43.2,9.6,34,18.5c-0.2,0.2-0.4,0.4-0.5,0.5l-2.8,3l-0.1,15.1c-0.1,12.8,0.1,15.2,1.5,16.2c0.9,0.7,2,3.2,2.4,5.7
			c0.4,2.5,1.3,4.8,2.6,7c1.4,1.9,1.7,3.5,1.2,6.8c-0.7,4.8-0.3,4.6-12.2,8.2l-7.3,2.2l-3-2.9c-4.2-4-9.7-15.8-11.1-23.6
			C-0.5,25.9,30.2-2.4,60.5,5.5z"/>
	</g>
</g>
</svg>
