<?xml version="1.0" encoding="utf-8"?>
<!-- Generator: Adobe Illustrator 22.1.0, SVG Export Plug-In . SVG Version: 6.00 Build 0)  -->
<svg version="1.1" id="Layer_1" xmlns="http://www.w3.org/2000/svg" xmlns:xlink="http://www.w3.org/1999/xlink" x="0px" y="0px"
	 viewBox="0 0 107.9 107.9" style="enable-background:new 0 0 107.9 107.9;" xml:space="preserve">
<title>reddit</title>
<g id="Layer_2_1_">
	<g id="Layer_1-2">
		<path d="M40.6,1.5C31.2,3.9,22.7,8.9,16,15.9C5.7,25.8-0.1,39.6,0,53.9c-0.1,14.3,5.7,28.1,16,38c9.9,10.3,23.7,16.1,38,16
			c14.3,0.1,28.1-5.7,38-16c7.4-7.4,12.3-15.8,14.5-25.1c3-12.9,1.3-26.5-4.7-38.3c-4.1-7.8-14.6-18.3-22.4-22.4
			C67.4,0.1,53.7-1.5,40.6,1.5z M64.8,5.4c20,4.6,35.2,20.9,38.4,41.2c5.4,31.9-24.6,61.9-56.4,56.5c-21.6-3.4-38.6-20.4-42-42
			C-0.9,27.7,31.5-2.4,64.8,5.4z"/>
		<path d="M74.5,21.9c-1.9,1.8-2.3,1.9-7.5,0.5c-8.8-2.4-8.6-2.5-11.4,6.9L53,37.7l-5.3,0.7c-3.9,0.7-7.6,1.7-11.3,3.1
			c-4.9,2-6.7,2.2-8.8,1.4c-8.2-3.1-15.2,7.2-9.6,14.3c1.2,1.7,1.9,3.6,2,5.7c0,5.8,5.4,12.6,13.3,16.6c13.2,6.9,34.9,5.5,45.9-2.9
			c4.9-3.8,8.8-9.9,8.8-14c0.1-2,0.8-3.8,2-5.4c5.6-7.1-1.1-17.1-9.5-14.3c-2.5,0.8-4,0.7-7.6-0.9c-3.3-1.3-6.7-2.3-10.1-3.1
			c-3.2-0.6-5.8-1.4-5.8-1.7c0-0.7,3.3-11.6,3.6-12.1c0.1-0.2,2.7,0.2,5.6,0.8c4.2,1,5.7,1.8,7.1,4.1c4.2,7.3,13.7,4.9,13.7-3.5
			C87,20.7,78.7,17.6,74.5,21.9z M82.4,24.5c1.9,1.8,1.9,2,0.6,4.5c-1.8,3.3-7,1.8-7-2.1c0-1.9,1.9-4,3.6-4
			C80.7,23.1,81.7,23.7,82.4,24.5z M70.5,44.8c6.5,2.9,12.3,8.6,13.6,13.3c2.1,7.9-4.7,16.4-16.4,20.5c-7.7,2.6-21.4,2.3-29.1-0.7
			c-17.6-6.8-20.6-22-6-30.6c7.5-4.4,12-5.4,22.9-5.1C63.3,42.4,66.6,43,70.5,44.8z M23.7,50.5c-2.9,4.1-3.2,4.3-4.1,2.5
			c-1.2-2.9,1.7-7.1,4.9-7.1H27L23.7,50.5z M87.6,48.4c1.2,1.9,1.4,3.2,0.7,4.7c-0.8,1.9-1,1.8-3.3-1.6c-1.4-2-2.8-3.6-3.2-3.6
			c-0.5-0.1-0.9-0.5-0.8-1C81,44.8,86,45.9,87.6,48.4z"/>
		<path d="M38,54c-2.9,5.2,2.6,10.7,7.5,7.5c2.7-1.8,3.4-6.3,1.3-8.4S39.2,51.6,38,54z"/>
		<path d="M61,53.8c-1.7,3.2-1.1,6,1.5,7.7c4.9,3.2,10.4-2.3,7.5-7.5C68.5,51.2,62.5,51.1,61,53.8z"/>
		<path d="M41.5,69.9c-1.7,2.8,5,6,12.5,6c7.7,0,14.8-3.6,12.2-6.2c-0.7-0.7-1.9-0.4-3.8,0.8c-3.7,2.5-13,2.5-16.7,0.1
			C42.6,68.6,42.3,68.6,41.5,69.9z"/>
	</g>
</g>
</svg>
