<svg xmlns="http://www.w3.org/2000/svg" xmlns:xlink="http://www.w3.org/1999/xlink" viewBox="0 0 27 27" version="1.1" x="0px" y="0px"><title>reply-icon@1x</title><desc>Created with Sketch.</desc><g stroke="none" stroke-width="1" fill="none" fill-rule="evenodd"><g transform="translate(-530.000000, -1798.000000)" fill="#000000"><g transform="translate(0.000000, 1519.000000)"><g transform="translate(530.857143, 279.600000)"><path d="M11.3368985,6.64197044 L11.3368985,1.06167488 C11.3690561,0.777931034 11.2924453,0.494187192 11.0768,0.276650246 C10.7022581,-0.0922167488 10.0950463,-0.0922167488 9.72050442,0.276650246 L0.272780283,10.6427586 C0.0732137806,10.8413793 -0.0119093721,11.0967488 0.0013320072,11.3615764 C-0.0119093721,11.6169458 0.0732137806,11.8817734 0.272780283,12.0803941 L9.66848472,22.3802956 C9.84251427,22.5978325 10.0950463,22.7397044 10.3891941,22.7397044 C10.6578049,22.7397044 10.8970956,22.6262069 11.0692335,22.4465025 C11.0711251,22.4465025 11.0749084,22.4465025 11.0768,22.4370443 C11.2924453,22.2289655 11.3690561,21.9357635 11.3368985,21.6614778 C11.3368985,21.6614778 11.3529773,16.4122167 11.3529773,16.0906404 C17.5953419,16.0906404 23.2408985,20.5832512 24.3616867,26.5040394 C25.1164453,24.7637438 25.5401694,22.853202 25.5401694,20.8386207 C25.5401694,12.9978325 19.1805241,6.64197044 11.3368985,6.64197044 M12.2987901,14.1990148 C11.6802286,14.1990148 9.44243546,14.217931 9.44243546,14.217931 L9.44243546,19.2969458 L2.20034679,11.3615764 L9.44243546,3.41674877 L9.44243546,8.53359606 C9.44243546,8.53359606 11.8069675,8.50522167 12.2987901,8.52413793 C18.9781202,8.73221675 23.6154404,16.3365517 23.6466522,19.8928079 C21.6046424,17.2729064 16.2428295,14.1990148 12.2987901,14.1990148"></path></g></g></g></g></svg>