<?xml version="1.0" encoding="utf-8"?>
<!-- Generator: Adobe Illustrator 22.1.0, SVG Export Plug-In . SVG Version: 6.00 Build 0)  -->
<svg version="1.1" id="Layer_1" xmlns="http://www.w3.org/2000/svg" xmlns:xlink="http://www.w3.org/1999/xlink" x="0px" y="0px"
	 viewBox="0 0 96.5 75.8" style="enable-background:new 0 0 96.5 75.8;" xml:space="preserve">
<title>return</title>
<g id="Layer_2_1_">
	<g id="Layer_1-2">
		<path d="M24,16.3c-13.2,9-24,16.8-24,17.3s10.8,8.3,24,17.3l24,16.3l0.3-10.9l0.3-11L56,46c14.4,1.3,22.2,6.1,33.5,20.7l7,9.1
			v-7.9C96.4,42.4,85.8,27.7,64,23.1c-3.7-0.8-7.4-1.3-11.2-1.5h-4.2l-0.3-10.8L48,0L24,16.3z M48.8,25.6c12.4,0,25.9,4.3,32.2,10.1
			c4.9,4.5,9.3,13.6,10.2,20.8l0.6,4.9L85.1,55c-9.6-9.5-16.9-12.6-30.3-13.2l-10.3-0.5v18.4L26.3,47.2C16.2,40.4,8,34.3,8,33.6
			s8.1-6.7,18-13.5L44,7.9l0.3,8.8l0.3,8.9L48.8,25.6z"/>
	</g>
</g>
</svg>
