<?xml version="1.0" encoding="utf-8"?>
<!-- Generator: Adobe Illustrator 22.1.0, SVG Export Plug-In . SVG Version: 6.00 Build 0)  -->
<svg version="1.1" id="Layer_1" xmlns="http://www.w3.org/2000/svg" xmlns:xlink="http://www.w3.org/1999/xlink" x="0px" y="0px"
	 viewBox="0 0 54 52" style="enable-background:new 0 0 54 52;" xml:space="preserve">
<style type="text/css">
	.st0{fill:none;stroke:#666666;stroke-width:2;stroke-linecap:round;stroke-linejoin:round;}
</style>
<title>Asset 2</title>
<g id="Layer_2_1_">
	<g id="_64px">
		<g id="Outline">
			<g id="Construction">
				<g id="safety_helmet">
					<path class="st0" d="M25,3l-6,1c-1.1,0-2,0.9-2,2v11"/>
					<path class="st0" d="M25,19V3c0-1.1,0.9-2,2-2s2,0.9,2,2v16"/>
					<path class="st0" d="M29,3l6,1c1.1,0,2,0.9,2,2v11"/>
					<path class="st0" d="M37,6.7C45.3,9.9,51,17.3,51,29v4"/>
					<path class="st0" d="M17,6.7C8.7,9.9,3,17.3,3,29v4"/>
					<path class="st0" d="M45,37c-2,1-2,2-18,2s-16-1-18-2"/>
					<path class="st0" d="M3,33c-1.1,0-2,0.9-2,2c1.2,1.8,1.9,3.9,2,6c0.1,2.6,1.6,4.9,4,6c2,1,6,4,20,4s18-3,20-4
						c2.4-1.1,3.9-3.4,4-6c0.1-2.1,0.8-4.2,2-6c0-1.1-0.9-2-2-2"/>
				</g>
			</g>
		</g>
	</g>
</g>
</svg>
