<svg xmlns="http://www.w3.org/2000/svg" xmlns:xlink="http://www.w3.org/1999/xlink" xml:space="preserve" version="1.0" style="shape-rendering:geometricPrecision;text-rendering:geometricPrecision;image-rendering:optimizeQuality;" viewBox="0 0 4715 4715" x="0px" y="0px" fill-rule="evenodd" clip-rule="evenodd"><g><path class="fil0" d="M2357 2541c-101,0 -184,-82 -184,-184l0 -1478c0,-102 83,-184 184,-184 102,0 184,82 184,184l0 1294 860 0c102,0 184,83 184,184 0,102 -82,184 -184,184l-1044 0zm0 -2541c651,0 1241,264 1667,690 427,427 691,1016 691,1667 0,651 -264,1241 -691,1667 -426,427 -1016,691 -1667,691 -651,0 -1240,-264 -1667,-691 -426,-426 -690,-1016 -690,-1667 0,-651 264,-1240 690,-1667 427,-426 1016,-690 1667,-690zm1407 951c-360,-360 -857,-583 -1407,-583 -549,0 -1046,223 -1406,583 -360,360 -583,857 -583,1406 0,550 223,1047 583,1407 360,360 857,583 1406,583 550,0 1047,-223 1407,-583 360,-360 583,-857 583,-1407 0,-549 -223,-1046 -583,-1406z"></path></g></svg>