<?xml version="1.0" encoding="utf-8"?>
<!-- Generator: Adobe Illustrator 22.1.0, SVG Export Plug-In . SVG Version: 6.00 Build 0)  -->
<svg version="1.1" id="Layer_1" xmlns="http://www.w3.org/2000/svg" xmlns:xlink="http://www.w3.org/1999/xlink" x="0px" y="0px"
	 viewBox="0 0 96.2 96.1" style="enable-background:new 0 0 96.2 96.1;" xml:space="preserve">
<title>simpleclock</title>
<g id="Layer_2_1_">
	<g id="Layer_1-2">
		<path d="M35.2,1.6C19.5,5.8,5.8,19.8,1.6,35.6c-6.8,25.7,8.5,52.1,34.1,58.9c4,1.1,8.2,1.6,12.4,1.6c42.6,0,64.1-51.8,34-82
			C69.8,1.9,51.9-2.8,35.2,1.6z M56.1,5.1c8.3,1.6,16,5.7,22.1,11.6C95.6,32.8,96.5,60,80.3,77.3c-0.7,0.7-1.4,1.4-2.1,2.1
			C60.8,96,35.4,96,18,79.4c-17.7-17-18.3-43.6-1.3-61.5C27.3,6.8,41.4,2.2,56.1,5.1z"/>
		<path d="M48.1,32v16h-12c-11.3,0-12,0.1-12,2s0.7,2,14,2h14V34c0-17.3-0.1-18-2-18S48.1,16.8,48.1,32z"/>
	</g>
</g>
</svg>
