<?xml version="1.0" encoding="utf-8"?>
<!-- Generator: Adobe Illustrator 22.1.0, SVG Export Plug-In . SVG Version: 6.00 Build 0)  -->
<svg version="1.1" id="Layer_1" xmlns="http://www.w3.org/2000/svg" xmlns:xlink="http://www.w3.org/1999/xlink" x="0px" y="0px"
	 viewBox="0 0 48 64" style="enable-background:new 0 0 48 64;" xml:space="preserve">
<style type="text/css">
	.st0{fill:none;stroke:#666666;stroke-width:2;stroke-linecap:round;stroke-linejoin:round;}
	.st1{fill:none;stroke:#666666;stroke-width:2;stroke-linejoin:round;}
</style>
<title>Asset 9</title>
<g id="Layer_2_1_">
	<g id="_64px">
		<g id="Outline">
			<g id="Construction">
				<g id="spanner_screwdriver">
					<circle class="st0" cx="14" cy="56" r="1"/>
					<path class="st0" d="M3.2,19c3.6,3.4,5.7,8.1,5.8,13v26c0,2.8,2.2,5,5,5s5-2.2,5-5V32c0.1-4.9,2.2-9.6,5.8-13"/>
					<path class="st0" d="M27,13c0-6.1-2.1-12-6-12v8c0,2.2-3.1,4-7,4s-7-1.8-7-4V1C3.1,1,1,6.9,1,13s5.3,10,13,10S27,19.1,27,13z"
						/>
					<path class="st1" d="M47,31c-2.2-1.7-2.7-4.8-1-7c0.3-0.4,0.6-0.7,1-1l0,0V5c0-3.3-2.7-4-6-4s-6,0.7-6,4v18l0,0
						c2.2,1.7,2.7,4.8,1,7c-0.3,0.4-0.6,0.7-1,1v2h12V31z"/>
					<polyline class="st1" points="43,33 43,63 39,63 39,33 					"/>
					<line class="st1" x1="39" y1="57" x2="43" y2="57"/>
				</g>
			</g>
		</g>
	</g>
</g>
</svg>
