<svg xmlns="http://www.w3.org/2000/svg" xmlns:xlink="http://www.w3.org/1999/xlink" version="1.1" x="0px" y="0px" viewBox="0 0 100 100" enable-background="new 0 0 100 100" xml:space="preserve"><g><path d="M68.5,84.1c-1,0-2-0.2-2.9-0.7l-15.5-8.1c-0.1,0-0.2,0-0.3,0l-15.5,8.1c-0.9,0.5-1.9,0.7-2.9,0.7c-1.8,0-3.5-0.8-4.7-2.2   c-1.2-1.4-1.6-3.2-1.3-5l3-17.2c0-0.1,0-0.2-0.1-0.3L15.9,47.2c-1.7-1.6-2.3-4-1.6-6.3c0.7-2.2,2.6-3.8,4.9-4.2l17.3-2.5   c0.1,0,0.2-0.1,0.2-0.2l7.7-15.7c1-2.1,3.1-3.4,5.5-3.4s4.5,1.3,5.5,3.4l7.7,15.7c0,0.1,0.1,0.1,0.2,0.2l17.3,2.5   c2.3,0.3,4.2,1.9,4.9,4.2c0.7,2.2,0.1,4.6-1.6,6.3L71.6,59.4c-0.1,0.1-0.1,0.2-0.1,0.3l3,17.2c0.3,1.8-0.2,3.6-1.3,5   C72,83.3,70.3,84.1,68.5,84.1z M50,69.4c1,0,2,0.2,2.9,0.7l15.5,8.1c0.1,0,0.1,0,0.1,0c0.1,0,0.2,0,0.2-0.1   c0.1-0.1,0.1-0.1,0.1-0.2l-3-17.2c-0.3-2,0.3-4,1.8-5.4L80.1,43c0,0,0.1-0.1,0.1-0.3c-0.1-0.2-0.2-0.2-0.2-0.2L62.6,40   c-2-0.3-3.7-1.5-4.6-3.4L50.3,21c0-0.1-0.1-0.2-0.3-0.2s-0.2,0.1-0.3,0.2L42,36.7c-0.9,1.8-2.6,3.1-4.6,3.4l-17.3,2.5   c-0.1,0-0.2,0-0.2,0.2c-0.1,0.2,0,0.3,0.1,0.3l12.5,12.2c1.4,1.4,2.1,3.4,1.8,5.4l-3,17.2c0,0.1,0,0.2,0.1,0.2   c0.1,0.1,0.2,0.1,0.2,0.1c0,0,0.1,0,0.1,0l15.5-8.1C48,69.6,49,69.4,50,69.4z"></path></g></svg>