<?xml version="1.0" encoding="utf-8"?>
<!-- Generator: Adobe Illustrator 22.1.0, SVG Export Plug-In . SVG Version: 6.00 Build 0)  -->
<svg version="1.1" id="Layer_1" xmlns="http://www.w3.org/2000/svg" xmlns:xlink="http://www.w3.org/1999/xlink" x="0px" y="0px"
	 viewBox="0 0 83 111.5" style="enable-background:new 0 0 83 111.5;" xml:space="preserve">
<title>stopwatch</title>
<g id="Layer_2_1_">
	<g id="Layer_1-2">
		<path d="M32.9,1.9c-6,2.7-8.9,7.3-8.9,14.2c0,4.6,0.5,6.2,2.9,9.3c1,1.2,1.8,2.5,2.5,3.9c-0.2,0.1-3.4,1.7-7.1,3.5
			c-8.5,4.3-15.2,11.4-19.1,20C0.2,59,0,60.3,0,70.1c0,10.1,0.1,10.8,3.7,18c4.2,9,11.6,16.1,20.6,20.2c6.2,3,7.5,3.2,17.2,3.2
			s11-0.2,17.2-3.2c9-4.1,16.4-11.2,20.6-20.2c3.6-7.2,3.7-7.9,3.7-18c0-9.8-0.2-11.1-3.2-17.3c-3.9-8.6-10.6-15.7-19.1-20
			c-3.7-1.8-6.9-3.4-7.1-3.5c0.7-1.4,1.5-2.7,2.5-3.9c3.9-5.1,4.1-13.2,0.5-18.3C53.6,3,47.4,0,41.5,0C38.5,0.1,35.6,0.8,32.9,1.9z
			 M48.3,6c5.6,2.5,8,7.5,6.3,13.2c-1.4,4.4-7.1,9.2-7.1,5.8c0-0.6,0.9-1,2-1c1.8,0,2-0.7,2-6v-6h-20v6c0,5.3,0.2,6,2,6
			c1.1,0,2,0.4,2,1c0,3.4-5.7-1.4-7.1-5.8C26.7,13.5,29.1,8.5,34.7,6c2.1-1,4.4-1.7,6.8-2C43.9,4.3,46.2,5,48.3,6z M47.5,18
			c0,1.8-0.7,2-6,2s-6-0.2-6-2s0.7-2,6-2S47.5,16.2,47.5,18z M43.5,26c0.1,1-0.6,1.9-1.6,2c-0.1,0-0.3,0-0.4,0c-1,0.1-1.9-0.6-2-1.6
			c0-0.1,0-0.3,0-0.4c-0.1-1,0.6-1.9,1.6-2c0.1,0,0.3,0,0.4,0c1-0.1,1.9,0.6,2,1.6C43.5,25.7,43.5,25.9,43.5,26z M57,35.8
			c8.8,4.2,13.9,9.1,18.3,18c3.4,7,3.7,8.3,3.7,16.2s-0.3,9.2-3.7,16.2c-4.5,9-9.4,13.8-18.7,18.2c-5.8,2.7-7.7,3.1-15.2,3.1
			c-7.8,0-9.1-0.3-16.1-3.7c-9-4.5-13.8-9.4-18.2-18.7C4.4,79.3,4,77.4,4,70s0.4-9.3,3.1-15.1c1.8-3.8,4.1-7.3,6.8-10.6
			C17.8,39.9,27,34.6,33.1,33C39.8,31.4,50,32.6,57,35.8z"/>
		<path d="M39.5,55.7v15.8l10.2,10.2c5.7,5.7,11.1,10.3,12,10.3c3.8,0,1.4-3.9-8.2-13.5l-10-10V54.3c0-13.6-0.1-14.3-2-14.3
			S39.5,40.7,39.5,55.7z"/>
	</g>
</g>
</svg>
