<?xml version="1.0" encoding="utf-8"?>
<!-- Generator: Adobe Illustrator 22.1.0, SVG Export Plug-In . SVG Version: 6.00 Build 0)  -->
<svg version="1.1" id="Layer_1" xmlns="http://www.w3.org/2000/svg" xmlns:xlink="http://www.w3.org/1999/xlink" x="0px" y="0px"
	 viewBox="0 0 104.1 104.1" style="enable-background:new 0 0 104.1 104.1;" xml:space="preserve">
<title>tag</title>
<g id="Layer_2_1_">
	<g id="Layer_1-2">
		<path d="M41.2,17.8C5.5,54.5,0,60.7,0,64.3c0,2.9,2,5.3,18.3,21.5s18.6,18.3,21.5,18.3c3.6,0,9.8-5.5,46.5-41.2l17.8-17.3
			L104,25.3c0-27.2,2-25.2-25.2-25.2L58.5,0L41.2,17.8z M98.4,5.7c1.3,1.3,1.6,4.5,1.6,19.7v18.2l-9.4,9
			c-5.2,4.9-18.4,17.7-29.4,28.2s-20.6,19.3-21.3,19.3C38.2,100.1,4,65.9,4,64.2c0-0.7,8.7-10.2,19.3-21.3s23.3-24.2,28.2-29.4
			l9-9.4h18.2C93.9,4.1,97.1,4.4,98.4,5.7z"/>
		<path d="M74.9,15C71,18.9,71,25.2,74.8,29.1c1.9,1.9,4.5,3,7.2,3c3.3,0,4.8-0.6,7.1-2.9C93,25.3,93,19,89.2,15.1
			c-1.9-1.9-4.5-3-7.2-3C78.7,12.1,77.2,12.7,74.9,15z M86,18.1c1.1,1.1,1.8,2.5,2,4c0,2.6-3.4,6-6,6s-6-3.4-6-6s3.4-6,6-6
			C83.5,16.3,84.9,17,86,18.1z"/>
	</g>
</g>
</svg>
