<?xml version="1.0" encoding="utf-8"?>
<!-- Generator: Adobe Illustrator 22.1.0, SVG Export Plug-In . SVG Version: 6.00 Build 0)  -->
<svg version="1.1" id="Layer_1" xmlns="http://www.w3.org/2000/svg" xmlns:xlink="http://www.w3.org/1999/xlink" x="0px" y="0px"
	 viewBox="0 0 104.1 103.8" style="enable-background:new 0 0 104.1 103.8;" xml:space="preserve">
<title>tagbroken</title>
<g id="Layer_2_1_">
	<g id="Layer_1-2">
		<path d="M52.3,12.6L40,25.2V36h12v6c0,5.3,0.2,6,2,6s2,0.7,2,6v6h8v7.5c0,6.5,0.2,7.5,1.8,7.5c0.9,0,9.9-8,20-17.8l18.3-17.7
			L104,22.2C104-1.2,105.2,0,81.8,0H64.5L52.3,12.6z M98.4,5.6c1.3,1.3,1.6,4.3,1.6,16.8v15.2L84,52.9L68,68.2V56h-8v-6
			c0-5.3-0.2-6-2-6s-2-0.7-2-6v-6h-6c-5.4,0-6-0.2-6-2.1c0-1.3,4.3-6.7,11.1-14L66.3,4h15.3C94.1,4,97.1,4.3,98.4,5.6z"/>
		<path d="M74.9,14.9c-3.9,3.9-3.9,10.2,0,14.1c1.9,1.9,4.5,3,7.1,2.9c3.3,0,4.8-0.6,7.1-2.9C93,25.2,93,18.9,89.2,15
			c-1.9-1.9-4.5-3-7.2-3C78.7,12,77.2,12.6,74.9,14.9z M86,18c1.1,1.1,1.8,2.5,2,4c-0.4,3.1-2.9,5.6-6,6c-3.1-0.4-5.6-2.9-6-6
			c0.4-3.1,2.9-5.6,6-6C83.5,16.2,84.9,16.9,86,18z"/>
		<path d="M22.4,43.2C2.1,64,0,66.5,0,70.1c0,2.9,1.8,5.1,15.3,18.6c19.4,19.4,17.6,19.1,33.2,4.7L60,82.8V64h-8v-6c0-5.3-0.2-6-2-6
			s-2-0.7-2-6v-6H36.1l-0.3-3.7c-0.2-2-0.8-3.8-1.3-4S28.5,37.1,22.4,43.2z M38.1,44H44v6c0,5.3,0.2,6,2,6s2,0.7,2,6v6h8v11.5
			L45.7,89.8C40.1,95.4,34.8,100,34.1,100c-1.8,0-28.9-26.7-29.7-29.2c-0.4-1.3,3-5.6,13.3-16.3C28.6,42.9,31.6,40.3,31.8,42
			S32.9,44,38.1,44L38.1,44z"/>
	</g>
</g>
</svg>
