<?xml version="1.0" encoding="utf-8"?>
<!-- Generator: Adobe Illustrator 22.1.0, SVG Export Plug-In . SVG Version: 6.00 Build 0)  -->
<svg version="1.1" id="Layer_1" xmlns="http://www.w3.org/2000/svg" xmlns:xlink="http://www.w3.org/1999/xlink" x="0px" y="0px"
	 viewBox="0 0 104.1 104.1" style="enable-background:new 0 0 104.1 104.1;" xml:space="preserve">
<title>tagdollar</title>
<g id="Layer_2_1_">
	<g id="Layer_1-2">
		<path d="M41.2,17.8C5.5,54.5,0,60.7,0,64.3c0,2.9,2,5.3,18.3,21.5s18.6,18.3,21.5,18.3c3.6,0,9.8-5.5,46.5-41.2l17.8-17.3
			L104,25.3c0-27.2,2-25.2-25.2-25.2L58.5,0L41.2,17.8z M98.4,5.7c1.3,1.3,1.6,4.5,1.6,19.7v18.2l-9.4,9
			c-5.2,4.9-18.4,17.7-29.4,28.2s-20.6,19.3-21.3,19.3C38.2,100.1,4,65.9,4,64.2c0-0.7,8.7-10.2,19.3-21.3s23.3-24.2,28.2-29.4
			l9-9.4h18.2C93.9,4.1,97.1,4.4,98.4,5.7z"/>
		<path d="M74.9,15c-2.3,2.3-2.9,3.8-2.9,7.1s0.6,4.8,2.9,7.1s3.8,2.9,7.1,2.9s4.8-0.6,7.1-2.9s2.9-3.8,2.9-7.1s-0.6-4.8-2.9-7.1
			s-3.8-2.9-7.1-2.9S77.2,12.7,74.9,15z M86,18.1c1.1,1.1,1.8,2.5,2,4c-0.4,3.1-2.9,5.6-6,6c-3.1-0.4-5.6-2.9-6-6
			c0.4-3.1,2.9-5.6,6-6C83.5,16.3,84.9,17,86,18.1z"/>
		<path d="M62.9,37.6c-1.2,1.2-2.1,1.2-5.1,0.3C47,34.6,40.6,45.3,48,54.6c4.8,6,3.7,11.5-2.2,11.5c-5.6,0-9.8-7.3-6.8-12
			c0.9-1.5-0.4-4-2.1-4c-1.1,0-3.9,5.5-3.9,7.7c0.2,1.6,0.6,3.1,1.4,4.5c1.3,2.4,1.2,2.8-0.5,4.4c-2.5,2.2-2.5,5.4-0.1,5.4
			c1.4-0.2,2.7-0.9,3.6-1.9c1.6-1.7,2-1.8,4.4-0.5c1.4,0.8,2.9,1.2,4.5,1.4c3.2,0,7.4-2.8,8.7-5.9c1.6-3.8,0.7-7.4-3.1-12.5
			c-3.4-4.6-3.7-7.6-1-10c2.3-2.1,6.1-1.4,8.9,1.7c2.5,2.7,3.8,7.2,2.3,8.1c-1.9,1.2-1.3,4.6,0.8,4.6c3,0,4.7-5.3,3.3-10.4
			c-0.8-3.3-0.8-4.4,0.4-5.7C69.9,37.3,66.5,34.1,62.9,37.6z"/>
	</g>
</g>
</svg>
