<?xml version="1.0" encoding="utf-8"?>
<!-- Generator: Adobe Illustrator 22.1.0, SVG Export Plug-In . SVG Version: 6.00 Build 0)  -->
<svg version="1.1" id="Layer_1" xmlns="http://www.w3.org/2000/svg" xmlns:xlink="http://www.w3.org/1999/xlink" x="0px" y="0px"
	 viewBox="0 0 111.9 104.1" style="enable-background:new 0 0 111.9 104.1;" xml:space="preserve">
<title>tags</title>
<g id="Layer_2_1_">
	<g id="Layer_1-2">
		<path d="M37.1,19.8C26.5,30.7,13.8,44,8.8,49.3C-3.7,63-4,61.7,15.2,80.8S33,99.7,46.7,87.2c5.3-5,18.6-17.7,29.5-28.3L96,39.6
			l-0.1-17.3c0-23.4,1.2-22.2-22.2-22.2L56.4,0L37.1,19.8z M90.3,5.7c1.3,1.3,1.6,4.3,1.6,16.8v15.2l-28.1,27
			C48.4,79.5,35,91.8,34.2,91.9c-2,0.5-30.6-28.1-30.1-30.1C4.2,61,16.5,47.6,31.3,32.2l27-28.1h15.2C86,4.1,89,4.4,90.3,5.7z"/>
		<path d="M66.8,15c-3.9,3.9-3.9,10.2-0.1,14.1c1.9,1.9,4.5,3,7.2,3c3.3,0,4.8-0.6,7.1-2.9c3.9-3.9,3.9-10.2,0.1-14.1
			c-1.9-1.9-4.5-3-7.2-3C70.6,12.1,69.1,12.7,66.8,15z M77.9,18.1c1.1,1.1,1.8,2.5,2,4c0,2.6-3.4,6-6,6s-6-3.4-6-6s3.4-6,6-6
			C75.4,16.3,76.8,17,77.9,18.1z"/>
		<path d="M99.9,10.1c0,1.5,0.7,2,2.4,2c5,0,5.6,1.8,5.6,18.4v15.3l-28,26.9c-15.4,14.8-28.7,27-29.5,27.2s-2.2-0.6-3.2-1.7
			c-2.2-2.7-5.3-2.8-5.3-0.2c0,2.8,4.7,6.1,8.5,6.1c2.9,0,6.3-2.9,31.4-27.1c15.5-14.9,28.6-27.9,29.1-28.9s1-9.3,1-18.5
			c0-16.3,0-16.6-2.5-19C106.2,7.3,99.9,7,99.9,10.1z"/>
	</g>
</g>
</svg>
