<?xml version="1.0" encoding="utf-8"?>
<!-- Generator: Adobe Illustrator 22.1.0, SVG Export Plug-In . SVG Version: 6.00 Build 0)  -->
<svg version="1.1" id="Layer_1" xmlns="http://www.w3.org/2000/svg" xmlns:xlink="http://www.w3.org/1999/xlink" x="0px" y="0px"
	 viewBox="0 0 104 96" style="enable-background:new 0 0 104 96;" xml:space="preserve">
<title>threerows</title>
<g id="Layer_2_1_">
	<g id="Layer_1-2">
		<path d="M2.5,2.5C1,3.9,0.1,5.9,0,8c0.1,2.1,1,4.1,2.5,5.5L4.9,16h94.2l2.4-2.5c1.5-1.4,2.4-3.4,2.5-5.5c-0.1-2.1-1-4.1-2.5-5.5
			L99.1,0H4.9L2.5,2.5z M98.4,5.6c0.8,0.6,1.3,1.5,1.6,2.4c-0.3,0.9-0.8,1.8-1.6,2.4C97,11.8,91.4,12,52,12S7,11.8,5.6,10.4
			C4.8,9.8,4.3,8.9,4,8c0.3-0.9,0.8-1.8,1.6-2.4C7,4.2,12.6,4,52,4S97,4.2,98.4,5.6z"/>
		<path d="M2.5,42.5c-3,2.7-3.4,7.3-0.7,10.3C2,53,2.3,53.3,2.5,53.5L4.9,56h94.2l2.4-2.5c3-2.7,3.4-7.3,0.7-10.3
			c-0.2-0.2-0.5-0.5-0.7-0.7L99.1,40H4.9L2.5,42.5z M98.4,45.6c0.8,0.6,1.3,1.5,1.6,2.4c-0.3,0.9-0.8,1.8-1.6,2.4
			C97,51.8,91.4,52,52,52S7,51.8,5.6,50.4C4.8,49.8,4.3,48.9,4,48c0.3-0.9,0.8-1.8,1.6-2.4C7,44.2,12.6,44,52,44S97,44.2,98.4,45.6z
			"/>
		<path d="M2.5,82.5c-3,2.7-3.4,7.3-0.7,10.3C2,93,2.3,93.3,2.5,93.5L4.9,96h94.2l2.4-2.5c3-2.7,3.4-7.3,0.7-10.3
			c-0.2-0.2-0.5-0.5-0.7-0.7L99.1,80H4.9L2.5,82.5z M98.4,85.6c0.8,0.6,1.3,1.5,1.6,2.4c-0.3,0.9-0.8,1.8-1.6,2.4
			C97,91.8,91.4,92,52,92S7,91.8,5.6,90.4C4.8,89.8,4.3,88.9,4,88c0.3-0.9,0.8-1.8,1.6-2.4C7,84.2,12.6,84,52,84S97,84.2,98.4,85.6z
			"/>
	</g>
</g>
</svg>
