<?xml version="1.0" encoding="utf-8"?>
<!-- Generator: Adobe Illustrator 22.1.0, SVG Export Plug-In . SVG Version: 6.00 Build 0)  -->
<svg version="1.1" id="Layer_1" xmlns="http://www.w3.org/2000/svg" xmlns:xlink="http://www.w3.org/1999/xlink" x="0px" y="0px"
	 viewBox="0 0 112 92" style="enable-background:new 0 0 112 92;" xml:space="preserve">
<title>tickbox</title>
<g id="Layer_2_1_">
	<g id="Layer_1-2">
		<path d="M0,46v46h92V63c0-28.3,0-29-2-29s-2,0.7-2,27v27H4V4h84v6c0,5.3,0.2,6,2,6s2-0.7,2-8V0H0V46z"/>
		<path d="M77.3,35.2L46,66.5l-9.3-9.3c-9-8.9-12.7-11.1-12.7-7.4C24,51.9,43.9,72,46,72s66-64.1,66-66.3c0-0.9-0.8-1.7-1.7-1.7
			c0,0-0.1,0-0.1,0C109.3,4,94.5,18,77.3,35.2z"/>
	</g>
</g>
</svg>
