<?xml version="1.0" encoding="utf-8"?>
<!-- Generator: Adobe Illustrator 22.1.0, SVG Export Plug-In . SVG Version: 6.00 Build 0)  -->
<svg version="1.1" id="Layer_1" xmlns="http://www.w3.org/2000/svg" xmlns:xlink="http://www.w3.org/1999/xlink" x="0px" y="0px"
	 viewBox="0 0 108 96" style="enable-background:new 0 0 108 96;" xml:space="preserve">
<title>chatAsset 1</title>
<g id="Layer_2_1_">
	<g id="Layer_1-2">
		<path d="M76,2c0,1.8,0.7,2,6,2s6-0.2,6-2s-0.7-2-6-2S76,0.2,76,2z"/>
		<path d="M37.5,9.3C27,13.4,20,22.8,20,32.8v3.5l-2.3-2.1c-2.8-2.7-5.7-2.9-5.7-0.4C12,35.9,19.9,44,22,44s10-8.1,10-10.2
			c0-2.5-2.9-2.3-5.7,0.4L24,36.3v-2.4c0-4.7,3.1-11.6,6.8-15.2S41.3,12,45.6,12c1.7,0,2.4-0.6,2.4-2c0-1.7-0.6-2-3.7-1.9
			C42,8.2,39.7,8.6,37.5,9.3z"/>
		<path d="M56,10c0,1.9,0.7,2,17.9,2h17.9l-1,3.7c-1.1,4.4-5,11.4-7.3,13.3c-2.1,1.8-4.7-0.7-8.1-7.7c-2.5-5-4.5-6.5-5.9-4.3
			c-0.8,1.3,1.9,7.3,5.6,12.5c3.2,4.4,3.2,4.6,1.3,6C74.1,37.3,65.6,40,62.3,40c-1.6,0-2.3,0.6-2.3,2c0,1.6,0.7,2,3.3,2
			c5.5-0.3,10.9-2,15.6-4.9l3.1-2.2l3.1,2.2c4.7,2.9,10.1,4.6,15.6,4.9c2.6,0,3.3-0.4,3.3-2c0-1.4-0.7-2-2.3-2
			c-3.2,0-11.8-2.7-14.1-4.5c-1.8-1.3-1.7-1.7,2.2-7.4c2.2-3.4,4-7.1,5.2-11l1.2-5.1h5.9c5.2,0,5.9-0.2,5.9-2s-0.7-2-26-2
			S56,8.1,56,10z"/>
		<path d="M10.2,72.5C4.6,83.8,0,93.7,0,94.5c0.1,0.9,0.9,1.6,1.8,1.5c1.3,0,3-2.4,5.7-8l3.9-8h21.2l3.9,8c2.7,5.6,4.4,8,5.7,8
			c0.9,0.1,1.7-0.6,1.8-1.5c0-3-20.4-42.5-22-42.5C21,52,16.8,59.3,10.2,72.5z M26.3,67.5c2,4.2,3.7,7.8,3.7,8S26.4,76,22,76
			s-8-0.2-8-0.5c0-1,7.5-15.5,8-15.5C22.3,60,24.2,63.4,26.3,67.5z"/>
		<path d="M76.2,56.3c-4.4,4.4-5.4,7.7-2.5,7.7c0.9,0,2.7-1,4-2.2l2.3-2.1v2.5c0,4.5-3,11.2-6.7,15S62.8,84,58.3,84
			c-1.7,0-2.3,0.6-2.3,2.1c0,2,0.4,2.1,4.8,1.7c12.2-1.1,21.9-10.9,23-23.1l0.5-4.8l2.1,2c2.7,2.5,5.6,2.7,5.6,0.4S84.1,52,82,52
			C81.1,52,78.5,53.9,76.2,56.3z"/>
	</g>
</g>
</svg>
