<?xml version="1.0" encoding="utf-8"?>
<!-- Generator: Adobe Illustrator 22.1.0, SVG Export Plug-In . SVG Version: 6.00 Build 0)  -->
<svg version="1.1" id="Layer_1" xmlns="http://www.w3.org/2000/svg" xmlns:xlink="http://www.w3.org/1999/xlink" x="0px" y="0px"
	 viewBox="0 0 107.9 107.8" style="enable-background:new 0 0 107.9 107.8;" xml:space="preserve">
<title>twitter</title>
<g id="Layer_2_1_">
	<g id="Layer_1-2">
		<path d="M40.6,1.5C31.2,3.9,22.7,8.9,16,15.9C5.7,25.8-0.1,39.6,0,53.9c-0.1,14.3,5.7,28.1,16,38c7.4,7.4,15.8,12.3,25.1,14.5
			c12.9,3,26.5,1.3,38.3-4.7c7.8-4.1,18.3-14.6,22.4-22.4c8.2-15.9,8.2-34.9,0-50.8c-4.1-7.8-14.6-18.3-22.4-22.4
			C67.4,0.1,53.7-1.5,40.6,1.5z M64.8,5.4c25.4,6,42.6,30.9,38.4,55.7c-3.4,21.6-20.3,38.5-41.9,42C29.4,108.5-0.6,78.5,4.8,46.6
			C9.7,17.8,37.2-1.1,64.8,5.4z"/>
		<path d="M60.3,29.9c-4.1,2.5-6,5.5-6.9,10.7c-0.7,4.8-1,4.9-8.5,2.7C38.6,41.5,34,38.8,28.7,34c-3.1-2.8-4-3.2-4.8-2
			c-1.7,2.6-1,10,1.3,13.6l2.1,3.5l-2.1-0.7c-4.9-1.5-1.4,8.2,4.1,11.5c2.9,1.8,3,2,1,2c-1.3,0-2.3,0.6-2.3,1.3c0,1.7,4.6,6,8.5,8
			l3,1.6l-4.6,2c-3.1,1.3-6.4,2.1-9.8,2.4c-5,0.2-5,0.2-2.8,1.9c2.6,1.5,5.5,2.7,8.4,3.4c12.4,3.4,27.6,0.4,36.6-7.2
			C75.4,68.5,82,55.4,82,46c0-2.9,0.7-4.4,3.5-7.1c3.8-3.7,4.6-5.7,1.6-4c-3.4,1.8-4.3,1.1-2.2-1.6c3.1-3.9,2.6-4.6-1.9-2.8
			C79.2,32,78.9,32,75.7,30C71.3,27.3,64.6,27.2,60.3,29.9z"/>
	</g>
</g>
</svg>
