<?xml version="1.0" encoding="utf-8"?>
<!-- Generator: Adobe Illustrator 22.1.0, SVG Export Plug-In . SVG Version: 6.00 Build 0)  -->
<svg version="1.1" id="Layer_1" xmlns="http://www.w3.org/2000/svg" xmlns:xlink="http://www.w3.org/1999/xlink" x="0px" y="0px"
	 viewBox="0 0 116 111.8" style="enable-background:new 0 0 116 111.8;" xml:space="preserve">
<title>usersettings</title>
<g id="Layer_2_1_">
	<g id="Layer_1-2">
		<path d="M38.2,0.9c-4.6,1.4-11.8,8.8-13.1,13.5C22.6,23.2,24.4,31,30,37c4.5,4.7,4.6,4.8,2.4,4.8c-3.2,0-14,6.6-18.9,11.5
			C5.4,61.4,0,73.4,0,83.5c0,3.5,0.4,4.3,1.8,4.3s2-1.4,2.9-7.4c3.8-23.7,25.5-39.9,47.9-35.7c6.4,1.1,17.6,6,18.9,8.1
			C72.6,54.6,76,54,76,52s-10.6-8.9-15.2-9.9c-1.6-0.3-2.8-0.6-2.8-0.8s1.8-2,4-4.3c8.4-9,7.9-23.1-1.1-31.5C60,4.6,59,3.9,58,3.2
			C53.5,0.2,44-0.9,38.2,0.9z M55.6,6.8c10.8,6.7,10.6,23.4-0.4,30.2c-5.1,3.1-13.3,3.1-18.4,0c-8.4-5.1-11-16.1-5.9-24.5
			c0.7-1.2,1.6-2.3,2.6-3.2c2-1.9,4.3-3.4,6.8-4.4C44.7,3.5,51.6,4.4,55.6,6.8z"/>
		<path d="M83.2,57c-0.8,1-1.2,2.2-1.2,3.4c0,2.7-4.1,4-6.9,2.2c-4.3-2.7-11,4-8.3,8.3c1.8,2.8,0.5,6.9-2.2,6.9
			c-3.2,0-4.6,1.9-4.6,6s1.4,6,4.6,6c2.7,0,4,4.1,2.2,6.9c-2.7,4.3,4,11,8.3,8.3c2.8-1.8,6.9-0.5,6.9,2.2c0,3.2,1.9,4.6,6,4.6
			s6-1.4,6-4.6c0-2.7,4.1-4,6.9-2.2c4.3,2.7,11-4,8.3-8.3c-1.8-2.8-0.5-6.9,2.2-6.9c3.2,0,4.6-1.9,4.6-6s-1.4-6-4.6-6
			c-2.7,0-4-4.1-2.2-6.9c2.7-4.3-4-11-8.3-8.3c-2.8,1.8-6.9,0.5-6.9-2.2c0-3.2-1.9-4.6-6-4.6C86,55.8,83.9,56.3,83.2,57z M90.2,62.9
			c0.3,2.7,0.9,3.3,4.8,4.6c3.5,1.2,4.8,1.3,6.3,0.3c2.6-1.6,4.3,0.1,2.7,2.7c-1,1.5-0.9,2.8,0.3,6.3c1.3,3.9,1.9,4.5,4.6,4.8
			c2.3,0.2,3.1,0.8,3.1,2.2s-0.8,2-3.1,2.2c-2.7,0.3-3.3,0.9-4.6,4.8c-1.2,3.5-1.3,4.8-0.3,6.3c1.6,2.6-0.1,4.3-2.7,2.7
			c-1.5-1-2.8-0.9-6.3,0.3c-3.9,1.3-4.5,1.9-4.8,4.6c-0.2,2.3-0.8,3.1-2.2,3.1s-2-0.8-2.2-3.1c-0.3-2.7-0.9-3.3-4.8-4.6
			c-3.5-1.2-4.8-1.3-6.3-0.3c-2.6,1.6-4.3-0.1-2.7-2.7c1-1.5,0.9-2.8-0.3-6.3c-1.3-3.9-1.9-4.5-4.6-4.8c-2.3-0.2-3.1-0.8-3.1-2.2
			s0.8-2,3.1-2.2c2.7-0.3,3.3-0.9,4.6-4.8c1.2-3.5,1.3-4.8,0.3-6.3c-1.6-2.6,0.1-4.3,2.7-2.7c1.5,1,2.8,0.9,6.3-0.3
			c3.9-1.3,4.5-1.9,4.8-4.6c0.2-2.3,0.8-3.1,2.2-3.1S90,60.6,90.2,62.9L90.2,62.9z"/>
		<path d="M81.8,73.4c-7.7,4.1-7.5,16.9,0.2,20.9c8.4,4.3,18-1.3,18-10.5S90.1,68.9,81.8,73.4z M93.1,78.7c1.6,1.6,2.9,3.9,2.9,5.1
			c0,2.8-5.2,8-8,8s-8-5.2-8-8s5.2-8,8-8C89.2,75.8,91.5,77.1,93.1,78.7z"/>
	</g>
</g>
</svg>
