<?xml version="1.0" encoding="utf-8"?>
<!-- Generator: Adobe Illustrator 22.1.0, SVG Export Plug-In . SVG Version: 6.00 Build 0)  -->
<svg version="1.1" id="Layer_1" xmlns="http://www.w3.org/2000/svg" xmlns:xlink="http://www.w3.org/1999/xlink" x="0px" y="0px"
	 viewBox="0 0 115.7 119.5" style="enable-background:new 0 0 115.7 119.5;" xml:space="preserve">
<title>usernetwork</title>
<g id="Layer_2_1_">
	<g id="Layer_1-2">
		<path d="M17,1.6c-5.3,3.7-6.8,13.3-3.3,21C16,27.7,19.2,30,23.8,30c2.1,0,4.1-0.6,5.9-1.6C35,24.7,37.5,12.3,34.3,6
			C32.1,1.8,29,0,23.8,0C21.3,0,18.2,0.7,17,1.6z M27.3,4.6c2.1,0.9,4.5,5.6,4.5,9.1c-0.1,4.1-3.5,11-5.9,11.8
			c-3.5,1.1-6.2-0.5-8.2-4.8c-2.3-5.1-2.4-8.9-0.4-12.7S23,3,27.3,4.6L27.3,4.6z"/>
		<path d="M85,1.6c-5.3,3.7-6.8,13.3-3.3,21C84,27.7,87.2,30,91.8,30c2.1,0,4.1-0.6,5.9-1.6c5.3-3.7,7.8-16.1,4.6-22.4
			c-2.2-4.2-5.3-6-10.5-6C89.3,0,86.2,0.7,85,1.6z M95.3,4.6c2.1,0.9,4.5,5.6,4.5,9.1c-0.1,4.1-3.5,11-5.9,11.8
			c-3.5,1.1-6.2-0.5-8.2-4.8c-2.3-5.1-2.4-8.9-0.4-12.7S91,3,95.3,4.6L95.3,4.6z"/>
		<path d="M5.8,27.8C2,29.4-0.4,33.3,0,37.5c0.5,5.2,3.8,6,23.8,6c19.5,0,23.3-0.9,23.8-5.6c0.7-5.9-3.3-10.5-10.2-11.6
			c-3.1-0.5-3.6-0.3-3.6,1.4c0,1.4,1.1,2.3,4,3.2s4.4,2,5.1,3.8c0.5,1.4,0.8,2.8,0.6,3c-1,0.9-12.8,2.3-19.7,2.3S5.1,38.6,4.1,37.7
			c-0.2-0.2,0.1-1.6,0.6-3c0.7-1.8,2.2-3,5.1-3.8s4-1.8,4-3.1C13.8,25.5,10.5,25.4,5.8,27.8z"/>
		<path d="M73.8,27.8c-3.8,1.6-6.2,5.5-5.8,9.7c0.5,5.2,3.8,6,23.8,6c19.5,0,23.3-0.9,23.8-5.6c0.7-5.9-3.3-10.5-10.2-11.6
			c-3.1-0.5-3.6-0.3-3.6,1.4c0,1.4,1.1,2.3,4,3.2s4.4,2,5.1,3.8c0.5,1.4,0.8,2.8,0.6,3c-1,0.9-12.8,2.3-19.7,2.3s-18.7-1.4-19.7-2.3
			c-0.2-0.2,0.1-1.6,0.6-3c0.7-1.8,2.2-3,5.1-3.8s4-1.8,4-3.1C81.8,25.5,78.5,25.4,73.8,27.8z"/>
		<path d="M41.8,47.7c0,1.2,2.5,3.2,7,5.7l7,4v7.3c0,6.6,0.2,7.3,2,7.3s2-0.7,2-7.3v-7.3l7-4c4.5-2.5,7-4.5,7-5.7
			c0-2.6-2.5-2.1-9.1,1.8c-3.3,1.9-6.4,3.5-6.9,3.5s-3.6-1.6-6.9-3.5C44.3,45.6,41.8,45.1,41.8,47.7z"/>
		<path d="M51,77.6c-5.3,3.7-6.8,13.3-3.3,21c2.3,5.1,5.5,7.4,10.1,7.4c2.1,0,4.1-0.6,5.9-1.6c5.3-3.7,7.8-16.1,4.6-22.4
			c-2.2-4.2-5.3-6-10.5-6C55.3,76,52.2,76.7,51,77.6z M61.3,80.6c2.1,0.9,4.5,5.6,4.5,9.1c-0.1,4.1-3.5,11-5.9,11.8
			c-3.5,1.1-6.2-0.5-8.2-4.8c-2.3-5.1-2.4-8.9-0.4-12.7S57,79,61.3,80.6L61.3,80.6z"/>
		<path d="M39.8,103.8c-3.8,1.6-6.2,5.6-5.8,9.7c0.5,5.2,3.8,6,23.8,6c19.5,0,23.3-0.9,23.8-5.6c0.7-5.9-3.3-10.5-10.2-11.6
			c-3.1-0.5-3.6-0.3-3.6,1.4c0,1.4,1.1,2.3,4,3.2s4.4,2,5.1,3.8c0.5,1.4,0.8,2.8,0.6,3c-1,0.9-12.8,2.3-19.7,2.3s-18.7-1.4-19.7-2.3
			c-0.2-0.2,0.1-1.6,0.6-3c0.7-1.8,2.2-3,5.1-3.8s4-1.8,4-3.1C47.8,101.5,44.5,101.4,39.8,103.8z"/>
	</g>
</g>
</svg>
