<?xml version="1.0" encoding="utf-8"?>
<!-- Generator: Adobe Illustrator 22.1.0, SVG Export Plug-In . SVG Version: 6.00 Build 0)  -->
<svg version="1.1" id="Layer_1" xmlns="http://www.w3.org/2000/svg" xmlns:xlink="http://www.w3.org/1999/xlink" x="0px" y="0px"
	 viewBox="0 0 108 107.6" style="enable-background:new 0 0 108 107.6;" xml:space="preserve">
<title>useredit</title>
<g id="Layer_2_1_">
	<g id="Layer_1-2">
		<path d="M38.2,0.9c-4.6,1.4-11.8,8.8-13.1,13.5C22.6,23.2,24.4,31,30,37c4.5,4.7,4.6,4.8,2.4,4.8c-3.2,0-14,6.6-18.9,11.5
			C5.4,61.4,0,73.4,0,83.5c0,3.5,0.4,4.3,1.8,4.3s2-1.4,2.9-7.4c3-18.7,16.2-32.3,34.7-35.7c12.1-2.3,26.3,2.2,35.4,11
			c4.5,4.4,7.2,5.2,7.2,2.2c0-3.7-17.3-16.1-22.4-16.1c-2.2,0-2.1-0.1,2.4-4.8c8.4-9,7.9-23.1-1.1-31.5C60,4.6,59,3.8,58,3.2
			C53.5,0.2,44-0.9,38.2,0.9z M55.6,6.8c10.8,6.7,10.6,23.4-0.4,30.2c-5.1,3.1-13.3,3.1-18.4,0c-8.4-5.1-11-16.1-5.9-24.5
			c0.7-1.2,1.6-2.3,2.6-3.2c2-1.9,4.3-3.4,6.8-4.4C44.7,3.5,51.6,4.4,55.6,6.8z"/>
		<path d="M78.3,70C62,86.5,59.8,89.1,56.1,96.5c-6.4,12.9-5.7,13.6,7.2,7.2c7.4-3.7,10-5.9,26.5-22.2C103.1,68.2,108,62.7,108,61
			c0-3.1-6.1-9.2-9.2-9.2C97.1,51.8,91.6,56.7,78.3,70z M95.9,64.2l2.3,2.4L84.9,80.2L71.7,93.9l-2.9-2.8l-2.9-2.7l13.3-13.3
			c7.3-7.3,13.5-13.3,13.9-13.3C94.2,62.4,95.1,63.2,95.9,64.2L95.9,64.2z M65.4,94.7c1.7,1.9,1.6,2-2.3,4.1l-4.2,2.1l2.1-4.1
			c0.6-1.4,1.4-2.8,2.4-4C64.1,93.3,64.8,94,65.4,94.7z"/>
	</g>
</g>
</svg>
