<?xml version="1.0" encoding="utf-8"?>
<!-- Generator: Adobe Illustrator 22.1.0, SVG Export Plug-In . SVG Version: 6.00 Build 0)  -->
<svg version="1.1" id="Layer_1" xmlns="http://www.w3.org/2000/svg" xmlns:xlink="http://www.w3.org/1999/xlink" x="0px" y="0px"
	 viewBox="0 0 107.7 119.5" style="enable-background:new 0 0 107.7 119.5;" xml:space="preserve">
<title>userhierarchy</title>
<g id="Layer_2_1_">
	<g id="Layer_1-2">
		<path d="M47,1.6c-5.3,3.7-6.8,13.3-3.3,21C46,27.7,49.2,30,53.8,30c2.1,0,4.1-0.6,5.9-1.6C65,24.7,67.5,12.3,64.3,6
			C62.1,1.8,59,0,53.8,0C51.3,0,48.2,0.7,47,1.6z M57.3,4.6c2.1,0.9,4.5,5.6,4.5,9.1c-0.1,4.1-3.5,11-5.9,11.8
			c-3.5,1.1-6.2-0.5-8.2-4.8c-2.3-5.1-2.4-8.9-0.4-12.7S53,3,57.3,4.6L57.3,4.6z"/>
		<path d="M35.8,27.8c-3.8,1.6-6.2,5.5-5.8,9.7c0.5,5.2,3.8,6,23.8,6c19.5,0,23.3-0.9,23.8-5.6c0.7-5.9-3.3-10.5-10.2-11.6
			c-3.1-0.5-3.6-0.3-3.6,1.4c0,1.4,1.1,2.3,4,3.2s4.4,2,5.1,3.8c0.5,1.4,0.8,2.8,0.6,3c-1,0.9-12.8,2.3-19.7,2.3s-18.7-1.4-19.7-2.3
			c-0.2-0.2,0.1-1.6,0.6-3c0.7-1.8,2.2-3,5.1-3.8s4-1.8,4-3.1C43.8,25.5,40.5,25.4,35.8,27.8z"/>
		<path d="M51.8,54v6h-28v6c0,5.3,0.2,6,2,6s2-0.7,2-4v-4h52v4c0,3.3,0.3,4,2,4s2-0.7,2-6v-6h-28v-6c0-5.3-0.2-6-2-6
			S51.8,48.7,51.8,54z"/>
		<path d="M17,77.6c-5.3,3.7-6.8,13.3-3.3,21c2.3,5.1,5.5,7.4,10.1,7.4c2.1,0,4.1-0.6,5.9-1.6c5.3-3.7,7.8-16.1,4.6-22.4
			c-2.2-4.2-5.3-6-10.5-6C21.3,76,18.2,76.7,17,77.6z M27.3,80.6c2.1,0.9,4.5,5.6,4.5,9.1c-0.1,4.1-3.5,11-5.9,11.8
			c-3.5,1.1-6.2-0.5-8.2-4.8c-2.3-5.1-2.4-8.9-0.4-12.7S23,79,27.3,80.6L27.3,80.6z"/>
		<path d="M77,77.6c-5.3,3.7-6.8,13.3-3.3,21c2.3,5.1,5.5,7.4,10.1,7.4c2.1,0,4.1-0.6,5.9-1.6c5.3-3.7,7.8-16.1,4.6-22.4
			c-2.2-4.2-5.3-6-10.5-6C81.3,76,78.2,76.7,77,77.6z M87.3,80.6c2.1,0.9,4.5,5.6,4.5,9.1c-0.1,4.1-3.5,11-5.9,11.8
			c-3.5,1.1-6.2-0.5-8.2-4.8c-2.3-5.1-2.4-8.9-0.4-12.7S83,79,87.3,80.6L87.3,80.6z"/>
		<path d="M5.8,103.8c-3.8,1.6-6.2,5.5-5.8,9.7c0.5,5.2,3.8,6,23.8,6c19.5,0,23.3-0.9,23.8-5.6c0.7-5.9-3.3-10.5-10.2-11.6
			c-3.1-0.5-3.6-0.3-3.6,1.4c0,1.4,1.1,2.3,4,3.2s4.4,2,5.1,3.8c0.5,1.4,0.8,2.8,0.6,3c-1,0.9-12.8,2.3-19.7,2.3s-18.7-1.4-19.7-2.3
			c-0.2-0.2,0.1-1.6,0.6-3c0.7-1.8,2.2-3,5.1-3.8s4-1.8,4-3.1C13.8,101.5,10.5,101.4,5.8,103.8z"/>
		<path d="M65.8,103.8c-3.8,1.6-6.2,5.6-5.8,9.7c0.5,5.2,3.8,6,23.8,6c19.5,0,23.3-0.9,23.8-5.6c0.7-5.9-3.3-10.5-10.2-11.6
			c-3.1-0.5-3.6-0.3-3.6,1.4c0,1.4,1.1,2.3,4,3.2s4.4,2,5.1,3.8c0.5,1.4,0.8,2.8,0.6,3c-1,0.9-12.8,2.3-19.7,2.3s-18.7-1.4-19.7-2.3
			c-0.2-0.2,0.1-1.6,0.6-3c0.7-1.8,2.2-3,5.1-3.8s4-1.8,4-3.1C73.8,101.5,70.5,101.4,65.8,103.8z"/>
	</g>
</g>
</svg>
