<?xml version="1.0" encoding="utf-8"?>
<!-- Generator: Adobe Illustrator 22.1.0, SVG Export Plug-In . SVG Version: 6.00 Build 0)  -->
<svg version="1.1" id="Layer_1" xmlns="http://www.w3.org/2000/svg" xmlns:xlink="http://www.w3.org/1999/xlink" x="0px" y="0px"
	 viewBox="0 0 99.5 108.1" style="enable-background:new 0 0 99.5 108.1;" xml:space="preserve">
<title>userfemale</title>
<g id="Layer_2_1_">
	<g id="Layer_1-2">
		<path d="M39.9,2.1c-8.1,4-12.2,11.5-12.2,22c0,7.5-1.7,12.8-5.1,16c-1.6,1.5-2.9,3.4-2.9,4.4c0,2.2,6.8,5.1,15,6.4
			c13.6,2.2,32.2,0.9,40.7-2.9c5-2.2,5.6-4.9,1.8-7.7c-3.3-2.4-5.4-8.3-5.5-15.7s-1.6-12.6-5.1-17C60.4,0.2,48.7-2.2,39.9,2.1z
			 M57.4,6.1c4.5,2.1,7.9,6.1,9.3,10.9l0.9,3H51l-1.8-4c-1.1-2.4-2.5-4-3.5-4s-2.4,1.6-3.5,4c-1.7,3.8-2.1,4-6.1,4
			c-4.3,0-4.3,0-3.4-3c1.4-4.8,4.7-8.7,9.2-10.9C47.3,3.4,51.9,3.4,57.4,6.1z M47.2,22c0.6,1.8,1.5,2,10.6,2h9.9v2.8
			c0,3.1-1.6,5.2-4,5.2c-1.1,0-2.2,1.8-3.3,5.4c-2,6.3-6.3,10.6-10.7,10.6S41,43.7,39,37.4c-1.1-3.6-2.2-5.4-3.3-5.4
			c-2.4,0-4-2.1-4-5.2c0-2.8,0.1-2.8,5.9-2.8c5.1,0,6.1-0.3,6.6-2c0.3-1.1,1-2,1.5-2S46.9,20.9,47.2,22z M34.7,38.3
			c0.4,1.8,1.1,3.5,2.1,5.1l2,3.8l-4.3-0.7c-2.2-0.3-4.4-0.9-6.5-1.6l-2.3-0.8l2.5-3.7c1.1-1.4,1.9-2.9,2.5-4.6c0-0.5,0.9-0.4,2,0.2
			C33.8,36.6,34.7,37.6,34.7,38.3L34.7,38.3z M68.7,35.9c0.6,1.6,1.5,3.1,2.5,4.5l2.5,3.7L71.1,45c-2.1,0.8-4.3,1.3-6.5,1.6
			l-4.1,0.7l2.1-3.9c0.9-1.5,1.7-3.2,2.1-4.9c0-1.3,2-3.5,3.2-3.5C68.4,35,68.8,35.5,68.7,35.9L68.7,35.9z"/>
		<path d="M27.2,57.5C15.7,60,8.5,64.6,4.7,71.9c-2.4,4.9-5.4,19.2-4.6,22.4s6.9,6.2,14,7.3c2.8,0.4,5.5,1.3,8,2.5
			c9,5.3,46.2,5.3,55.1,0c2.5-1.3,5.2-2.1,8-2.4c6.8-1,13.4-4.3,14.1-7.2c0.8-3.1-2.1-16.9-4.7-22.2C90.5,63.8,81.1,58.4,67,56.5
			c-7-0.9-8.8-0.2-10.7,4.8c-1,2.5-2.4,5-4,7.2c-2,2.5-2.6,2.8-4,1.6c-1.7-2.1-3.2-4.5-4.3-7c-1.5-3.1-3.2-5.9-3.8-6.3
			C38.7,55.7,34.1,56,27.2,57.5z M32.1,68.7c-3.9,12.7-4.1,12.4,9.4,9.4c8-1.8,8.4-1.8,16.5,0c13.4,3,13.2,3.3,9.3-9.4L64.9,61h2.3
			c4.2,0,15.4,4,18.5,6.7C89.8,71.1,92.1,76,94,85c1.6,7.3,1.6,7.6-0.4,9.2c-1.7,1.5-9.9,3.8-13.4,3.8c-0.8,0-3,1-5,2.1
			c-2.5,1.5-6.6,2.4-14.5,3.2c-14.3,1.4-31.3-0.1-36.5-3.2c-2-1.1-4.2-2.1-5-2.1c-3.5,0-11.7-2.3-13.4-3.8c-2-1.6-2-1.9-0.4-9.2
			c2.9-14.2,7.2-19.2,19.3-22.6c2.3-0.7,4.8-1.1,7.2-1.3l2.6-0.1L32.1,68.7z M42.7,73.1c-1.5,0.6-3.1,1-4.7,1.3l-3.1,0.7l1.4-4.8
			c2.4-8.2,2.3-8.1,5.2-2.8C43.8,71.7,44,72.6,42.7,73.1z M63,69.7c0.8,2.9,1.3,5.3,1,5.3s-2.3-0.5-4.7-1.1L55,72.8l2.6-4.8
			c1.4-2.7,2.9-4.6,3.2-4.2S62.1,66.9,63,69.7z"/>
	</g>
</g>
</svg>
