<?xml version="1.0" encoding="utf-8"?>
<!-- Generator: Adobe Illustrator 22.1.0, SVG Export Plug-In . SVG Version: 6.00 Build 0)  -->
<svg version="1.1" id="Layer_1" xmlns="http://www.w3.org/2000/svg" xmlns:xlink="http://www.w3.org/1999/xlink" x="0px" y="0px"
	 viewBox="0 0 111.9 107.8" style="enable-background:new 0 0 111.9 107.8;" xml:space="preserve">
<title>userlocation</title>
<g id="Layer_2_1_">
	<g id="Layer_1-2">
		<path d="M38.2,0.9c-4.6,1.4-11.8,8.8-13.1,13.5C22.6,23.2,24.4,31,30,37c4.5,4.7,4.6,4.8,2.4,4.8c-3.2,0-14,6.6-18.9,11.5
			C5.4,61.4,0,73.4,0,83.5c0,3.5,0.4,4.3,1.8,4.3s2-1.4,2.9-7.4c3.8-23.7,25.5-39.9,47.9-35.7c6.4,1.1,17.6,6,18.9,8.1
			C72.6,54.6,76,54,76,52s-10.6-8.9-15.2-9.9c-1.6-0.3-2.8-0.6-2.8-0.8s1.8-2,4-4.3c8.4-9,7.9-23.1-1.1-31.5C60,4.6,59,3.9,58,3.2
			C53.5,0.2,44-0.9,38.2,0.9z M55.6,6.8c10.8,6.7,10.6,23.4-0.4,30.2c-5.1,3.1-13.3,3.1-18.4,0c-8.4-5.1-11-16.1-5.9-24.5
			c0.7-1.2,1.6-2.3,2.6-3.2c2-1.9,4.3-3.4,6.8-4.4C44.7,3.5,51.6,4.4,55.6,6.8z"/>
		<path d="M86,53.7c-5.6,2.8-9.4,8.4-9.8,14.7c-0.4,5.4-0.1,6.2,7.9,22.5c5.6,11.3,8.8,16.9,9.9,16.9s4.3-5.6,9.9-16.9
			c8-16.3,8.3-17.1,7.9-22.5c-0.6-9.4-8.4-16.6-17.8-16.6C91.2,51.8,88.5,52.5,86,53.7z M101.5,58.2c3.4,2.3,5.6,5.9,6.2,10
			c0.5,3.1-0.4,5.7-6.3,17.6c-3.7,7.7-7.1,14-7.4,14s-3.7-6.3-7.4-14c-6-12.1-6.8-14.4-6.3-17.7C82,58.1,93.2,52.8,101.5,58.2z"/>
		<path d="M88.5,64.3c-3.1,3.1-3.1,8.1,0,11.2c1.5,1.5,3.5,2.3,5.5,2.3c4.3-0.2,7.8-3.7,8-8c-0.2-4.3-3.7-7.8-8-8
			C91.9,61.8,89.9,62.7,88.5,64.3z M96.4,67.4c0.8,0.6,1.3,1.5,1.6,2.4c0,1.1-2.9,4-4,4s-4-2.9-4-4s2.9-4,4-4
			C94.9,66,95.8,66.6,96.4,67.4z"/>
	</g>
</g>
</svg>
