<?xml version="1.0" encoding="utf-8"?>
<!-- Generator: Adobe Illustrator 22.1.0, SVG Export Plug-In . SVG Version: 6.00 Build 0)  -->
<svg version="1.1" id="Layer_1" xmlns="http://www.w3.org/2000/svg" xmlns:xlink="http://www.w3.org/1999/xlink" x="0px" y="0px"
	 viewBox="0 0 99.6 103.9" style="enable-background:new 0 0 99.6 103.9;" xml:space="preserve">
<title>usermale</title>
<g id="Layer_2_1_">
	<g id="Layer_1-2">
		<path d="M41.1,0.8c-5.9,1.8-11.4,10.4-11.4,17.7c0,1.2-0.4,2.5-1,2.8s-1,3-1,5.9c0,4.1,0.5,5.7,2.1,7.2c1.5,1.6,2.7,3.4,3.5,5.4
			c3.1,7.2,9.6,12,16.4,12S63,47,66.1,39.8c0.8-2,2-3.8,3.5-5.4c1.6-1.5,2.1-3.1,2.1-7.2c0-2.9-0.4-5.5-0.9-5.8s-1.1-2.8-1.5-5.5
			c-0.7-5.3-3.5-10.2-7.8-13.4C58.4,0.2,46.3-0.8,41.1,0.8z M59.3,6.2c2.5,1.7,4.7,5.4,5.8,9.9c1,4.3-1.5,3-3.9-2.1
			c-1.1-2.3-2.5-4.1-3.1-4.2s-2.6,1.3-4.3,2.9c-3.2,3-9.2,5.4-16.4,6.6l-3.9,0.6l0.7-3.3c2.1-9.7,7-13.1,17.3-12.3
			C54.2,4.4,56.9,5.1,59.3,6.2z M60,20.3c1.9,1.9,4.4,3.5,5.6,3.5c1.7,0,2.1,0.6,2.1,3.6c0,2.6-0.5,3.7-1.8,4.1
			c-1,0.2-2.5,2.4-3.5,5.3c-1.8,5.1-6.2,9.6-10.3,10.6c-5.8,1.5-12.5-3.2-15.1-10.6c-1-2.9-2.5-5.1-3.5-5.3
			c-1.3-0.4-1.8-1.5-1.8-4.1c0-3.4,0.2-3.6,3.3-3.6c4.7,0,14.6-2.8,18.2-5c1-0.7,2.1-1.4,3.2-2C56.4,16.8,58.1,18.4,60,20.3L60,20.3
			z"/>
		<path d="M28.2,53.4C15.7,56.1,8.4,60.5,4.8,67.7c-2.5,4.9-5.5,19.2-4.7,22.4s6.9,6.2,14,7.3c2.8,0.4,5.5,1.3,8,2.5
			c9,5.3,46.2,5.3,55.1,0c2.5-1.3,5.2-2.1,8-2.4c6.8-1,13.4-4.3,14.1-7.2c1.4-5.7-3.6-22.4-8.2-27.5C85.8,57,71.7,52.1,62.7,53
			c-3,0.3-3.8,1-6.8,6.3c-1.4,2.6-3,5.1-4.8,7.5c-1.8,1.9-3.1,0.7-7.6-7.5l-3.4-6l-4.9-0.2C32.9,53,30.6,53.1,28.2,53.4z M39.2,60.7
			c2.4,5.5,7.8,11.1,10.5,11.1s8.1-5.6,10.5-11.1c2.1-4.6,2.9-4.7,14-1.9C87,62.1,91,66.5,94,80.8c1.6,7.3,1.6,7.6-0.4,9.2
			c-1.7,1.5-9.9,3.8-13.4,3.8c-0.8,0-3,1-5,2.1C70,99,53,100.5,38.7,99.1c-7.9-0.8-12-1.7-14.5-3.2c-2-1.1-4.2-2.1-5-2.1
			c-3.5,0-11.7-2.3-13.4-3.8c-2-1.6-2-1.9-0.4-9.2c2.8-13.4,6.4-18.1,16.3-21C35.7,55.7,36.9,55.8,39.2,60.7z"/>
	</g>
</g>
</svg>
