<?xml version="1.0" encoding="utf-8"?>
<!-- Generator: Adobe Illustrator 22.1.0, SVG Export Plug-In . SVG Version: 6.00 Build 0)  -->
<svg version="1.1" id="Layer_1" xmlns="http://www.w3.org/2000/svg" xmlns:xlink="http://www.w3.org/1999/xlink" x="0px" y="0px"
	 viewBox="0 0 100 112" style="enable-background:new 0 0 100 112;" xml:space="preserve">
<title>walletcoin</title>
<g id="Layer_2_1_">
	<g id="Layer_1-2">
		<path d="M55.9,2.3C50.7,5.8,48,10.5,48,16s2.7,10.2,7.9,13.7c7,4.7,16.5,2.3,21.8-5.6c4.7-7,2.3-16.5-5.6-21.8
			C69.7,0.7,66.9-0.1,64,0C61.1-0.1,58.3,0.7,55.9,2.3z M69.1,5.5c3.5,1.9,6.9,7,6.9,10.5c0,5.6-6.5,12-12.2,12
			C58.5,28,52,21.4,52,16S58.5,4,63.8,4C65.6,4.2,67.4,4.7,69.1,5.5z"/>
		<path d="M27.9,22.3c-4.1,2.8-7.9,8.2-7.9,11.3c0,2.2-0.4,2.4-5.5,2.4c-2.9,0-5.8,0.5-8.5,1.5C0.3,40.5,0,42,0,74
			c0,24.1,0.3,29.6,1.5,32c3.1,5.9,3.8,6,44.5,6s41.4-0.1,44.5-6c1-2.7,1.5-5.5,1.5-8.4c0-4.6,0.3-5.6,2-6.1c1.6-0.7,3-1.8,4-3.2
			c1.8-2.3,2-4,2-18.3s-0.2-16-2-18.3c-1-1.4-2.4-2.5-4-3.2c-1.1-0.4-2-1.3-2-2.1c0-2.8-3-7.4-6-8.9c-2.2-1.1-6.5-1.5-18.5-1.5H52
			v-2.4C52,27.3,43.4,20,36,20C33.1,19.9,30.3,20.7,27.9,22.3z M41.1,25.5c3.4,1.8,6.9,7,6.9,10.3c-0.2,1.8-0.7,3.6-1.5,5.2
			c-1.5,3-1.6,3-10.5,3s-9,0-10.5-3c-0.8-1.6-1.3-3.3-1.5-5c0-5.4,6.5-12,11.8-12C37.6,24.2,39.4,24.7,41.1,25.5z M21,42
			c1,1.9,0.8,2-6,2c-6.3,0-7,0.2-7,2c0,2,0.7,2,37.1,2h37.1l2.9,2.9c2.4,2.5,2.9,3.7,2.9,8V64H77.2c-8.5,0-11.4,0.4-14.1,1.8
			c-9.3,5-9.3,19.4,0,24.4c2.7,1.4,5.6,1.8,14.1,1.8H88v5.1c0,4.3-0.5,5.5-2.9,8l-2.9,2.9H9.8l-2.9-2.9L4,102.2V45.8l2.9-2.9
			c2.5-2.4,3.7-2.9,8-2.9C18.9,40,20.1,40.4,21,42z M84.4,42.1c3.1,2.4,3.6,4.5,0.7,2.9c-1.1-0.6-9-1-18.6-1c-16.3,0-16.6,0-15.5-2
			s2.1-2,15.9-2C80.4,40,82,40.2,84.4,42.1z M95.2,55.5c0.8,1.6,0.8,3.4,0,5c-1.8,4-3.2,2.9-3.2-2.5S93.4,51.5,95.2,55.5z M96,75.5
			c0,12.4-0.4,12.8-17.1,12.3c-12.5-0.3-12.9-0.4-15.6-3.1c-3.7-3.6-3.8-9.6-0.2-13.3c0.1-0.1,0.1-0.1,0.2-0.2
			c2.7-2.6,3.1-2.7,17-3.3c7.8-0.3,14.5-0.6,15-0.7S96,70.8,96,75.5z"/>
		<path d="M65.7,73.8c-2.3,2.4-2.2,6.3,0.3,8.6c1.1,1.1,2.7,1.7,4.2,1.6c5.1,0,7.8-6.9,4-10.3C71.8,71.5,67.7,71.6,65.7,73.8z
			 M71.6,77.1c1,1.7-1.3,3.6-2.7,2.2c-0.8-0.7-0.8-1.9-0.1-2.7c0.3-0.3,0.7-0.5,1.2-0.6C70.7,76.1,71.2,76.5,71.6,77.1z"/>
	</g>
</g>
</svg>
