<?xml version="1.0" encoding="utf-8"?>
<!-- Generator: Adobe Illustrator 22.1.0, SVG Export Plug-In . SVG Version: 6.00 Build 0)  -->
<svg version="1.1" id="Layer_1" xmlns="http://www.w3.org/2000/svg" xmlns:xlink="http://www.w3.org/1999/xlink" x="0px" y="0px"
	 viewBox="0 0 112 92.1" style="enable-background:new 0 0 112 92.1;" xml:space="preserve">
<title>wallet</title>
<g id="Layer_2_1_">
	<g id="Layer_1-2">
		<path d="M5.8,1.7C0.1,4.7,0,5.6,0,46.1c0,31.2,0.2,37.6,1.5,40c3.1,6,3.2,6,50.5,6s47.4,0,50.5-6c1-2,1.5-5.9,1.5-12.4
			c0-8.5,0.2-9.5,2-10.1c1.6-0.7,3-1.8,4-3.2c1.8-2.3,2-4,2-18.3s-0.2-16-2-18.3c-1-1.4-2.4-2.5-4-3.2c-1.7-0.5-2-1.5-2-6.1
			c0-6.6-2-10.8-6-12.9C93.7-0.6,9.9-0.6,5.8,1.7z M96.4,6.2c3.1,2.4,3.6,4.5,0.7,2.9c-1.3-0.6-17.4-1-45.5-1C8.7,8.1,8,8.1,8,10.1
			s0.7,2,43.1,2h43.1l2.9,2.9c2.8,2.8,2.9,3.3,2.9,12v9.1H89.2c-8.5,0-11.4,0.4-14.1,1.8c-6.5,3.5-8.9,12.3-5.3,19.1
			c3,5.7,7,7.1,19.4,7.1H100v9.1c0,8.7-0.1,9.2-2.9,12l-2.9,2.9H9.8l-2.9-2.9L4,82.3V9.9L6.9,7l2.9-2.9h42
			C92.7,4.1,93.8,4.2,96.4,6.2z M107.2,27.6c0.8,1.6,0.8,3.4,0,5c-1.8,4-3.2,2.9-3.2-2.5S105.4,23.6,107.2,27.6z M108,47.6
			c0,12.4-0.4,12.8-17.1,12.3c-12.5-0.3-12.9-0.4-15.6-3.1c-3.7-3.6-3.8-9.6-0.2-13.3c0.1-0.1,0.1-0.1,0.2-0.2
			c2.7-2.6,3.1-2.7,17-3.3c7.8-0.3,14.5-0.6,15-0.7S108,42.9,108,47.6z"/>
		<path d="M77.7,45.9c-2.2,2.4-2.1,6.5,0.1,8.5c2.4,2.3,6.3,2.2,8.6-0.3c1.1-1.1,1.7-2.7,1.6-4.2C88,44.8,81.1,42.1,77.7,45.9z
			 M83.6,49.2c1,1.7-1.3,3.6-2.7,2.2c-0.8-0.7-0.8-1.9-0.1-2.7c0.3-0.3,0.7-0.5,1.2-0.6C82.7,48.3,83.2,48.7,83.6,49.2z"/>
	</g>
</g>
</svg>
