<?xml version="1.0" encoding="utf-8"?>
<!-- Generator: Adobe Illustrator 22.1.0, SVG Export Plug-In . SVG Version: 6.00 Build 0)  -->
<svg version="1.1" id="Layer_1" xmlns="http://www.w3.org/2000/svg" xmlns:xlink="http://www.w3.org/1999/xlink" x="0px" y="0px"
	 viewBox="0 0 58 48" style="enable-background:new 0 0 58 48;" xml:space="preserve">
<style type="text/css">
	.st0{fill:none;stroke:#666666;stroke-width:2;stroke-linecap:round;stroke-linejoin:round;}
</style>
<title>Asset 5</title>
<g id="Layer_2_1_">
	<g id="_64px">
		<g id="Outline">
			<g id="Construction">
				<g id="warning_danger">
					<circle class="st0" cx="29" cy="37" r="2"/>
					<path class="st0" d="M33,17c0-2.2-1.8-4-4-4s-4,1.8-4,4l2,12c0,1.1,0.9,2,2,2s2-0.9,2-2L33,17z"/>
					<path class="st0" d="M51,47c3.3,0,6-2.7,6-6c-0.1-0.9-0.3-1.8-0.6-2.7L33.9,3.5l0,0c-1.9-2.7-5.7-3.3-8.4-1.4
						c-0.5,0.4-1,0.9-1.4,1.4l0,0L1.6,38.3C1.3,39.2,1.1,40.1,1,41c0,3.3,2.7,6,6,6H51z"/>
				</g>
			</g>
		</g>
	</g>
</g>
</svg>
