<?xml version="1.0" encoding="utf-8"?>
<!-- Generator: Adobe Illustrator 22.1.0, SVG Export Plug-In . SVG Version: 6.00 Build 0)  -->
<svg version="1.1" id="Layer_1" xmlns="http://www.w3.org/2000/svg" xmlns:xlink="http://www.w3.org/1999/xlink" x="0px" y="0px"
	 viewBox="0 0 107.9 107.9" style="enable-background:new 0 0 107.9 107.9;" xml:space="preserve">
<title>web</title>
<g id="Layer_2_1_">
	<g id="Layer_1-2">
		<path d="M40.6,1.5C31.2,3.9,22.7,8.9,16,15.9C5.7,25.8-0.1,39.6,0,53.9c-0.1,14.3,5.7,28.1,16,38c9.9,10.3,23.7,16.1,38,16
			c14.3,0.1,28.1-5.7,38-16c7.4-7.4,12.3-15.8,14.5-25.1c3-12.9,1.3-26.5-4.7-38.3c-4.1-7.8-14.6-18.3-22.4-22.4
			C67.4,0.1,53.7-1.5,40.6,1.5z M64.8,5.4c20,4.6,35.2,20.9,38.4,41.2c5.4,31.9-24.6,61.9-56.4,56.5c-21.6-3.4-38.6-20.4-42-42
			C-0.9,27.7,31.5-2.4,64.8,5.4z"/>
		<path d="M42.3,15.3c-10.8,3.6-19.7,11.4-24.6,21.6c-3,6-3.2,7.2-3.2,17s0.2,11,3.2,17C21.9,79.3,28.6,86,37,90.2
			c6,3,7.2,3.2,17,3.2s11-0.2,17-3.2c8.4-4.2,15.1-10.9,19.3-19.3c3-6,3.2-7.2,3.2-17s-0.2-11-3.2-17c-4.1-8.4-10.9-15.1-19.2-19.3
			c-5.5-2.7-7.6-3.2-15.5-3.4C49.9,14,44.9,14.4,42.3,15.3z M63,21.5c7.2,2.1,13.3,6,12.3,7.8c-2.2,3.9-16.3,12.2-17,10.1
			c-0.2-0.6-2.7-4.8-5.7-9.5c-3.8-5.9-5.1-8.7-4.3-9.2C50.3,19.4,57.3,19.8,63,21.5z M45.8,32.9c2.8,4.6,5.2,8.6,5.2,9
			s-2,1.3-4.4,1.9c-5.4,1.3-24.5,3.6-25.1,2.9c-1.2-1.2,3-10.1,6.8-14.4c4.3-4.9,9.5-8.6,11.2-8.1C40.1,24.4,42.9,28.3,45.8,32.9z
			 M86,43.8c2.9,9.3,2.9,9.5-2.6,8.7c-2.6-0.3-7.9-0.6-11.9-0.6c-6.7,0-7.3-0.2-8.3-2.5c-1.6-3.5-1.8-3.2,3.6-5.9
			c3.3-1.8,6.4-3.9,9.2-6.4l4.5-4.1l1.7,2.2C83.2,36.4,84.9,40.3,86,43.8z M56,51c1.4,2.5,1.6,2.1-4,4.6c-6.6,3-15.1,9.7-19.4,15.4
			c-3,3.9-4.1,4.7-5.2,3.8c-2.3-1.9-6.2-11.3-6.9-16.6l-0.7-5l10.3-0.7c5.3-0.2,10.7-0.9,15.9-2C53.7,48.6,54.8,48.6,56,51z
			 M83.3,58.5C86,59,87,59.7,87,60.9c0,3.6-4.1,11.1-8.7,16.1l-4.7,5L71,72.2c-1.4-5.4-3-10.8-3.4-12.1c-0.7-2.1-0.5-2.2,5.6-2.2
			C76.6,57.9,79.9,58.1,83.3,58.5z M60.9,62.5C62,65.1,67,83.3,67,84.9s-11.3,3.2-17,2.6c-6.2-0.7-16-5.1-16-7.1
			c0-2.8,11-13.2,17.7-16.8c3.8-2,7.1-3.7,7.4-3.7S60.2,61.1,60.9,62.5z"/>
	</g>
</g>
</svg>
