<?xml version="1.0" encoding="utf-8"?>
<!-- Generator: Adobe Illustrator 22.1.0, SVG Export Plug-In . SVG Version: 6.00 Build 0)  -->
<svg version="1.1" id="Layer_1" xmlns="http://www.w3.org/2000/svg" xmlns:xlink="http://www.w3.org/1999/xlink" x="0px" y="0px"
	 viewBox="0 0 62 58" style="enable-background:new 0 0 62 58;" xml:space="preserve">
<style type="text/css">
	.st0{fill:none;stroke:#666666;stroke-width:2;stroke-linecap:round;stroke-linejoin:round;}
</style>
<title>Asset 6</title>
<g id="Layer_2_1_">
	<g id="_64px">
		<g id="Outline">
			<g id="Construction">
				<g id="workman">
					<path class="st0" d="M33.9,8.2c-1.5,2.4-3.8,3.7-6.1,2.1s-2.2-4.2-0.7-6.6s3.8-3.6,6.1-2.1S35.4,5.8,33.9,8.2z"/>
					<path class="st0" d="M9,37v5c0,1.8-0.5,3.5-1.6,5l-5.7,7.1c-0.7,0.8-1.1,1.7-0.3,2.5s1.7,0.4,2.5-0.4l7.4-7.5
						c1.1-1.3,1.8-2.8,2-4.5l0.2-3.2"/>
					<path class="st0" d="M12.6,35.5l7.2,7.2c0.6,0.6,1,1.5,1.2,2.3l1,10c0,1.1,0.4,2,1.5,2s1.5-0.9,1.5-2V45
						c0.1-0.8-0.1-1.7-0.6-2.4L18.7,34c-1.1-1.9-1-2.9,0.4-5c1.2-1.8,6-8,6-8l1,14.5c0,0.8,0.7,1.5,1.5,1.5s1.5-0.7,1.5-1.5V19
						c0-3-4-6-4-6c-1.8-1.2-3.9-1.9-6-2h-8.7c-1.3,0.1-2.5,0.9-3.2,2l-3.9,6.7l0,0c-0.4,0.7-0.2,1.6,0.5,2.1C4,21.9,4.2,22,4.5,22
						c0.5,0,1-0.2,1.2-0.7l0,0l3.3-4.5c0.9-1.1,2.1-1.7,3.5-1.8H18c0,0-3.8,5.1-7.2,9.5C7.6,28.8,9,31.9,12.6,35.5z"/>
					<path class="st0" d="M61,57c0-5-3.7-9.2-8.6-9.9l0,0c-1.6-3.5-5.7-5.1-9.2-3.6c-2.3,1-3.9,3.2-4.1,5.7c-3.5,0.9-6,4.1-6,7.8H61
						z"/>
					<path class="st0" d="M39.4,47.6l-3.6-2.4c-0.9-0.6-1.1-1.9-0.5-2.8l1.7-2.5c0.6-0.9,1.9-1.1,2.8-0.5l5.4,3.7"/>
					<line class="st0" x1="28.9" y1="36.1" x2="36.2" y2="41"/>
					<line class="st0" x1="18.8" y1="29.3" x2="25.9" y2="34.1"/>
					<line class="st0" x1="6.2" y1="20.8" x2="11.1" y2="24.1"/>
				</g>
			</g>
		</g>
	</g>
</g>
</svg>
