<?xml version="1.0" encoding="utf-8"?>
<!-- Generator: Adobe Illustrator 22.1.0, SVG Export Plug-In . SVG Version: 6.00 Build 0)  -->
<svg version="1.1" id="Layer_1" xmlns="http://www.w3.org/2000/svg" xmlns:xlink="http://www.w3.org/1999/xlink" x="0px" y="0px"
	 viewBox="0 0 84.1 85" style="enable-background:new 0 0 84.1 85;" xml:space="preserve">
<title>nativeAsset 6</title>
<g id="Layer_2_1_">
	<g id="Layer_1-2">
		<path d="M54.2,22.3C32.2,44.3,32,44.6,32,48.8V53h4.3c4.2,0,4.4-0.2,26.4-22.3C80.1,13.3,84.7,8.2,84,7s-5.3,2.9-22.5,20
			C41.1,47.4,39.9,48.4,38.3,46.7s-0.7-2.8,19.4-23C75.9,5.4,80.3,0,77.2,0C76.8,0,66.5,10,54.2,22.3z"/>
		<path d="M0,47v38h76V56c0-28.3,0-29-2-29s-2,0.7-2,27v27H4V13h27c26.3,0,27,0,27-2s-0.7-2-29-2H0V47z"/>
	</g>
</g>
</svg>
