<?xml version="1.0" encoding="utf-8"?>
<!-- Generator: Adobe Illustrator 17.1.0, SVG Export Plug-In . SVG Version: 6.00 Build 0)  -->
<!DOCTYPE svg PUBLIC "-//W3C//DTD SVG 1.1//EN" "http://www.w3.org/Graphics/SVG/1.1/DTD/svg11.dtd">
<svg version="1.1" id="Layer_1" xmlns="http://www.w3.org/2000/svg" xmlns:xlink="http://www.w3.org/1999/xlink" x="0px" y="0px"
	 viewBox="0 0 50 50" enable-background="new 0 0 50 50" xml:space="preserve">
<path fill="#231F20" d="M39.907,19.763c0-0.553-0.448-1-1-1H10.64c-0.552,0-1,0.447-1,1v12c0,0.553,0.448,1,1,1h28.267
	c0.552,0,1-0.447,1-1v-2.17h0.733c0.552,0,1-0.447,1-1v-5.367c0-0.553-0.448-1-1-1h-0.733V19.763z M37.907,30.763H11.64v-10h26.267
	V30.763z"/>
<path fill="#231F20" d="M14.725,29.759c0.552,0,1-0.447,1-1v-5.992c0-0.553-0.448-1-1-1s-1,0.447-1,1v5.992
	C13.725,29.312,14.173,29.759,14.725,29.759z"/>
<path fill="#231F20" d="M18.737,29.759c0.552,0,1-0.447,1-1v-5.992c0-0.553-0.448-1-1-1s-1,0.447-1,1v5.992
	C17.737,29.312,18.185,29.759,18.737,29.759z"/>
<path fill="#231F20" d="M22.75,29.759c0.552,0,1-0.447,1-1v-5.992c0-0.553-0.448-1-1-1s-1,0.447-1,1v5.992
	C21.75,29.312,22.198,29.759,22.75,29.759z"/>
<path fill="#231F20" d="M26.762,29.759c0.552,0,1-0.447,1-1v-5.992c0-0.553-0.448-1-1-1s-1,0.447-1,1v5.992
	C25.762,29.312,26.21,29.759,26.762,29.759z"/>
</svg>
