<?xml version="1.0" encoding="utf-8"?>
<!-- Generator: Adobe Illustrator 17.1.0, SVG Export Plug-In . SVG Version: 6.00 Build 0)  -->
<!DOCTYPE svg PUBLIC "-//W3C//DTD SVG 1.1//EN" "http://www.w3.org/Graphics/SVG/1.1/DTD/svg11.dtd">
<svg version="1.1" id="Layer_1" xmlns="http://www.w3.org/2000/svg" xmlns:xlink="http://www.w3.org/1999/xlink" x="0px" y="0px"
	 viewBox="0 0 50 50" enable-background="new 0 0 50 50" xml:space="preserve">
<path d="M36.477,8.938c-2.983,0-5.454,2.236-5.887,5.141H15.438c-0.403,0-0.767,0.242-0.922,0.613
	c-0.156,0.372-0.073,0.801,0.209,1.088l10.738,10.923v12.235h-2.491c-0.552,0-1,0.447-1,1s0.448,1,1,1h6.982c0.552,0,1-0.447,1-1
	s-0.448-1-1-1h-2.491V26.703l6.254-6.362c0.848,0.451,1.786,0.691,2.76,0.691c3.287,0,5.961-2.713,5.961-6.047
	S39.764,8.938,36.477,8.938z M35.102,16.078l-8.639,8.788l-8.64-8.788H35.102z M36.477,19.031c-0.436,0-0.86-0.075-1.263-0.213
	l2.987-3.039c0.282-0.287,0.365-0.716,0.209-1.088c-0.156-0.371-0.52-0.613-0.922-0.613h-4.863c0.405-1.795,1.974-3.141,3.853-3.141
	c2.184,0,3.961,1.815,3.961,4.047S38.661,19.031,36.477,19.031z"/>
</svg>
