<?xml version="1.0" encoding="utf-8"?>
<!-- Generator: Adobe Illustrator 17.1.0, SVG Export Plug-In . SVG Version: 6.00 Build 0)  -->
<!DOCTYPE svg PUBLIC "-//W3C//DTD SVG 1.1//EN" "http://www.w3.org/Graphics/SVG/1.1/DTD/svg11.dtd">
<svg version="1.1" id="Layer_1" xmlns="http://www.w3.org/2000/svg" xmlns:xlink="http://www.w3.org/1999/xlink" x="0px" y="0px"
	 viewBox="0 0 50 50" enable-background="new 0 0 50 50" xml:space="preserve">
<path d="M25.019,35.247c-0.329-0.442-0.953-0.538-1.398-0.21c-0.768,0.567-1.208,1.413-1.208,2.32c0,0.563,0.171,1.111,0.515,1.61
	l1.919,2.614c0.188,0.257,0.488,0.408,0.806,0.408h0c0.318,0,0.618-0.152,0.806-0.409l1.936-2.643
	c0.323-0.474,0.494-1.021,0.494-1.581c0-0.932-0.459-1.791-1.261-2.357c-0.452-0.319-1.075-0.211-1.394,0.239
	c-0.319,0.451-0.212,1.075,0.239,1.394c0.264,0.187,0.415,0.45,0.415,0.725c0,0.159-0.049,0.313-0.126,0.427l-1.11,1.516
	l-1.093-1.489c-0.097-0.141-0.146-0.293-0.146-0.453c0-0.266,0.145-0.525,0.396-0.711C25.253,36.317,25.347,35.691,25.019,35.247z"
	/>
<path d="M31.989,35.356c0.187,0.164,0.423,0.25,0.662,0.25c0.139,0,0.279-0.029,0.411-0.089C33.42,35.356,33.65,35,33.65,34.606
	v-6.402c0-0.287-0.123-0.56-0.338-0.75l-3.593-3.171v-9.212c0-0.217-0.07-0.428-0.201-0.601L26.45,10.39
	c-0.378-0.504-1.221-0.504-1.599,0l-3.069,4.081c-0.13,0.173-0.201,0.384-0.201,0.601v9.212l-3.593,3.171
	c-0.215,0.19-0.338,0.463-0.338,0.75v6.402c0,0.394,0.23,0.75,0.589,0.911c0.132,0.06,0.272,0.089,0.411,0.089
	c0.239,0,0.475-0.086,0.662-0.25l2.659-2.346c0.17,0.135,0.376,0.228,0.611,0.228h6.138c0.234,0,0.44-0.093,0.611-0.228
	L31.989,35.356z M31.65,32.391l-1.931-1.704v-3.735l1.931,1.704V32.391z M25.65,12.654l2.069,2.751v8.438h-4.138v-8.438
	L25.65,12.654z M19.65,28.655l1.931-1.704v3.735l-1.931,1.704V28.655z M23.582,31.238v-5.395h4.138v5.395H23.582z"/>
</svg>
