<?xml version="1.0" encoding="utf-8"?>
<!-- Generator: Adobe Illustrator 17.1.0, SVG Export Plug-In . SVG Version: 6.00 Build 0)  -->
<!DOCTYPE svg PUBLIC "-//W3C//DTD SVG 1.1//EN" "http://www.w3.org/Graphics/SVG/1.1/DTD/svg11.dtd">
<svg version="1.1" id="Layer_1" xmlns="http://www.w3.org/2000/svg" xmlns:xlink="http://www.w3.org/1999/xlink" x="0px" y="0px"
	 viewBox="0 0 50 50" enable-background="new 0 0 50 50" xml:space="preserve">
<path d="M29.934,18.164c-0.016-0.044-0.028-0.09-0.05-0.132l-4-7.563c-0.346-0.654-1.422-0.654-1.768,0l-4,7.563
	c-0.022,0.042-0.034,0.087-0.05,0.132c-0.005,0.014-0.016,0.024-0.021,0.038c-0.002,0.008,0,0.015-0.002,0.023
	C20.017,18.314,20,18.406,20,18.5v22.438c0,0.553,0.447,1,1,1h8c0.553,0,1-0.447,1-1V18.5c0-0.094-0.017-0.185-0.043-0.275
	c-0.002-0.008,0-0.015-0.002-0.023C29.951,18.188,29.939,18.178,29.934,18.164z M22,19.859l2.702,0.842
	c0.098,0.03,0.197,0.045,0.298,0.045s0.2-0.015,0.298-0.045L28,19.859V35.45h-6V19.859z M25,13.076l2.553,4.827L25,18.698
	l-2.553-0.795L25,13.076z M22,39.938V37.45h6v2.487H22z"/>
</svg>
