<?xml version="1.0" encoding="utf-8"?>
<!-- Generator: Adobe Illustrator 17.1.0, SVG Export Plug-In . SVG Version: 6.00 Build 0)  -->
<!DOCTYPE svg PUBLIC "-//W3C//DTD SVG 1.1//EN" "http://www.w3.org/Graphics/SVG/1.1/DTD/svg11.dtd">
<svg version="1.1" id="Layer_1" xmlns="http://www.w3.org/2000/svg" xmlns:xlink="http://www.w3.org/1999/xlink" x="0px" y="0px"
	 viewBox="0 0 50 50" enable-background="new 0 0 50 50" xml:space="preserve">
<path d="M29.063,40.313c0.552,0,1-0.447,1-1V10.75c0-0.553-0.448-1-1-1h-8.851c-0.552,0-1,0.447-1,1v28.563c0,0.553,0.448,1,1,1
	H29.063z M28.063,11.75v26.563h-6.851v-1.938h1.664c0.552,0,1-0.447,1-1s-0.448-1-1-1h-1.664v-2h1.664c0.552,0,1-0.447,1-1
	s-0.448-1-1-1h-1.664v-2h1.664c0.552,0,1-0.447,1-1s-0.448-1-1-1h-1.664v-2h1.664c0.552,0,1-0.447,1-1s-0.448-1-1-1h-1.664v-2h1.664
	c0.552,0,1-0.447,1-1s-0.448-1-1-1h-1.664v-2h1.664c0.552,0,1-0.447,1-1s-0.448-1-1-1h-1.664V11.75H28.063z"/>
</svg>
