<?xml version="1.0" encoding="utf-8"?>
<!-- Generator: Adobe Illustrator 17.1.0, SVG Export Plug-In . SVG Version: 6.00 Build 0)  -->
<!DOCTYPE svg PUBLIC "-//W3C//DTD SVG 1.1//EN" "http://www.w3.org/Graphics/SVG/1.1/DTD/svg11.dtd">
<svg version="1.1" id="Layer_1" xmlns="http://www.w3.org/2000/svg" xmlns:xlink="http://www.w3.org/1999/xlink" x="0px" y="0px"
	 viewBox="0 0 50 50" enable-background="new 0 0 50 50" xml:space="preserve">
<path d="M26.583,9.292c-7.72,0-14,6.69-14,14.913c0,0.553,0.447,1,1,1s1-0.447,1-1c0-1.365,1.009-2.477,2.249-2.477
	c1.239,0,2.248,1.111,2.248,2.477c0,0.553,0.447,1,1,1s1-0.447,1-1c0-1.365,1.009-2.477,2.248-2.477s2.248,1.111,2.248,2.477
	c0,0.012,0.006,0.022,0.007,0.034v11.596c0,0.049,0.021,0.091,0.028,0.138c-0.015,0.069-0.042,0.133-0.042,0.206
	c0,1.716-1.39,3.112-3.099,3.112s-3.099-1.396-3.099-3.112c0-0.553-0.447-1-1-1s-1,0.447-1,1c0,2.819,2.287,5.112,5.099,5.112
	s5.099-2.293,5.099-5.112c0-0.049-0.021-0.091-0.028-0.138c0.015-0.069,0.042-0.133,0.042-0.206V24.131
	c0.037-1.33,1.025-2.402,2.241-2.402c1.239,0,2.248,1.111,2.248,2.477c0,0.553,0.447,1,1,1s1-0.447,1-1
	c0-1.365,1.009-2.477,2.249-2.477c1.239,0,2.248,1.111,2.248,2.477c0,0.553,0.447,1,1,1c0.002,0,0.004-0.001,0.007-0.001
	s0.004,0.001,0.007,0.001c0.553,0,1-0.447,1-1C40.583,15.982,34.303,9.292,26.583,9.292z M36.321,19.729
	c-1.31,0-2.469,0.641-3.249,1.626c-0.78-0.985-1.938-1.626-3.248-1.626c-1.31,0-2.468,0.641-3.248,1.626
	c-0.78-0.985-1.938-1.626-3.248-1.626s-2.468,0.641-3.248,1.626c-0.78-0.985-1.938-1.626-3.248-1.626
	c-0.568,0-1.109,0.123-1.605,0.337c1.608-5.093,6.086-8.773,11.356-8.773c5.272,0,9.751,3.682,11.358,8.778
	C37.441,19.852,36.895,19.729,36.321,19.729z"/>
</svg>
